%TF.GenerationSoftware,KiCad,Pcbnew,(6.0.7-1)-1*%
%TF.CreationDate,2022-09-24T17:28:48+02:00*%
%TF.ProjectId,Bike-lights-kicad,42696b65-2d6c-4696-9768-74732d6b6963,rev?*%
%TF.SameCoordinates,Original*%
%TF.FileFunction,Soldermask,Top*%
%TF.FilePolarity,Negative*%
%FSLAX46Y46*%
G04 Gerber Fmt 4.6, Leading zero omitted, Abs format (unit mm)*
G04 Created by KiCad (PCBNEW (6.0.7-1)-1) date 2022-09-24 17:28:48*
%MOMM*%
%LPD*%
G01*
G04 APERTURE LIST*
G04 Aperture macros list*
%AMRoundRect*
0 Rectangle with rounded corners*
0 $1 Rounding radius*
0 $2 $3 $4 $5 $6 $7 $8 $9 X,Y pos of 4 corners*
0 Add a 4 corners polygon primitive as box body*
4,1,4,$2,$3,$4,$5,$6,$7,$8,$9,$2,$3,0*
0 Add four circle primitives for the rounded corners*
1,1,$1+$1,$2,$3*
1,1,$1+$1,$4,$5*
1,1,$1+$1,$6,$7*
1,1,$1+$1,$8,$9*
0 Add four rect primitives between the rounded corners*
20,1,$1+$1,$2,$3,$4,$5,0*
20,1,$1+$1,$4,$5,$6,$7,0*
20,1,$1+$1,$6,$7,$8,$9,0*
20,1,$1+$1,$8,$9,$2,$3,0*%
G04 Aperture macros list end*
%ADD10RoundRect,0.225000X0.225000X0.250000X-0.225000X0.250000X-0.225000X-0.250000X0.225000X-0.250000X0*%
%ADD11R,0.750000X0.300000*%
%ADD12R,1.750000X1.450000*%
%ADD13RoundRect,0.250000X0.475000X-0.250000X0.475000X0.250000X-0.475000X0.250000X-0.475000X-0.250000X0*%
%ADD14RoundRect,0.150000X0.587500X0.150000X-0.587500X0.150000X-0.587500X-0.150000X0.587500X-0.150000X0*%
%ADD15R,1.200000X3.700000*%
%ADD16C,3.000000*%
%ADD17R,1.000000X2.800000*%
%ADD18RoundRect,0.200000X-0.200000X-0.275000X0.200000X-0.275000X0.200000X0.275000X-0.200000X0.275000X0*%
%ADD19RoundRect,0.200000X-0.275000X0.200000X-0.275000X-0.200000X0.275000X-0.200000X0.275000X0.200000X0*%
%ADD20RoundRect,0.225000X-0.225000X-0.250000X0.225000X-0.250000X0.225000X0.250000X-0.225000X0.250000X0*%
%ADD21RoundRect,0.200000X0.275000X-0.200000X0.275000X0.200000X-0.275000X0.200000X-0.275000X-0.200000X0*%
%ADD22R,1.800000X1.800000*%
%ADD23C,1.800000*%
%ADD24RoundRect,0.250000X0.250000X0.475000X-0.250000X0.475000X-0.250000X-0.475000X0.250000X-0.475000X0*%
%ADD25RoundRect,0.250000X-0.250000X-0.475000X0.250000X-0.475000X0.250000X0.475000X-0.250000X0.475000X0*%
%ADD26RoundRect,0.062500X0.062500X-0.287500X0.062500X0.287500X-0.062500X0.287500X-0.062500X-0.287500X0*%
%ADD27R,1.200000X0.800000*%
%ADD28RoundRect,0.062500X-0.375000X-0.062500X0.375000X-0.062500X0.375000X0.062500X-0.375000X0.062500X0*%
%ADD29RoundRect,0.062500X-0.062500X-0.375000X0.062500X-0.375000X0.062500X0.375000X-0.062500X0.375000X0*%
%ADD30R,3.450000X3.450000*%
%ADD31RoundRect,0.087500X0.087500X-0.187500X0.087500X0.187500X-0.087500X0.187500X-0.087500X-0.187500X0*%
%ADD32RoundRect,0.087500X0.187500X-0.087500X0.187500X0.087500X-0.187500X0.087500X-0.187500X-0.087500X0*%
%ADD33RoundRect,0.150000X0.512500X0.150000X-0.512500X0.150000X-0.512500X-0.150000X0.512500X-0.150000X0*%
%ADD34RoundRect,0.062500X-0.325000X-0.062500X0.325000X-0.062500X0.325000X0.062500X-0.325000X0.062500X0*%
%ADD35R,1.400000X1.400000*%
%ADD36C,0.990600*%
G04 APERTURE END LIST*
D10*
%TO.C,C8*%
X68875000Y-8087500D03*
X67325000Y-8087500D03*
%TD*%
D11*
%TO.C,U2*%
X94850000Y-12550000D03*
X94850000Y-13050000D03*
X94850000Y-13550000D03*
X94850000Y-14050000D03*
X97750000Y-14050000D03*
X97750000Y-13550000D03*
X97750000Y-13050000D03*
X97750000Y-12550000D03*
D12*
X96300000Y-13300000D03*
%TD*%
D13*
%TO.C,C2*%
X95200000Y-11150000D03*
X95200000Y-9250000D03*
%TD*%
D10*
%TO.C,C7*%
X103075000Y-9100000D03*
X101525000Y-9100000D03*
%TD*%
D14*
%TO.C,Q5*%
X59037500Y-14550000D03*
X59037500Y-12650000D03*
X57162500Y-13600000D03*
%TD*%
D15*
%TO.C,L2*%
X88500000Y-12900000D03*
X85700000Y-12900000D03*
%TD*%
D10*
%TO.C,C11*%
X68875000Y-10087500D03*
X67325000Y-10087500D03*
%TD*%
D16*
%TO.C,REF\u002A\u002A*%
X52500000Y-7850000D03*
%TD*%
D17*
%TO.C,SW1*%
X1500000Y-4950000D03*
X1500000Y-10750000D03*
X5500000Y-10750000D03*
X5500000Y-4950000D03*
%TD*%
D18*
%TO.C,R10*%
X32875000Y-11100000D03*
X34525000Y-11100000D03*
%TD*%
D14*
%TO.C,Q4*%
X47037500Y-14550000D03*
X47037500Y-12650000D03*
X45162500Y-13600000D03*
%TD*%
D19*
%TO.C,R5*%
X71600000Y-2462500D03*
X71600000Y-4112500D03*
%TD*%
D14*
%TO.C,Q3*%
X35037500Y-14550000D03*
X35037500Y-12650000D03*
X33162500Y-13600000D03*
%TD*%
D20*
%TO.C,C9*%
X2825000Y-2400000D03*
X4375000Y-2400000D03*
%TD*%
D16*
%TO.C,REF\u002A\u002A*%
X16500000Y-7850000D03*
%TD*%
D13*
%TO.C,C1*%
X98200000Y-6250000D03*
X98200000Y-4350000D03*
%TD*%
D21*
%TO.C,R6*%
X75300000Y-4025000D03*
X75300000Y-2375000D03*
%TD*%
D22*
%TO.C,D3*%
X34500000Y-9120000D03*
D23*
X34500000Y-6580000D03*
%TD*%
D24*
%TO.C,C4*%
X92050000Y-1400000D03*
X90150000Y-1400000D03*
%TD*%
D21*
%TO.C,R3*%
X99300000Y-14425000D03*
X99300000Y-12775000D03*
%TD*%
D20*
%TO.C,C10*%
X78225000Y-13100000D03*
X79775000Y-13100000D03*
%TD*%
D14*
%TO.C,Q1*%
X11037500Y-14550000D03*
X11037500Y-12650000D03*
X9162500Y-13600000D03*
%TD*%
D25*
%TO.C,C5*%
X90150000Y-8900000D03*
X92050000Y-8900000D03*
%TD*%
D22*
%TO.C,D4*%
X46500000Y-9120000D03*
D23*
X46500000Y-6580000D03*
%TD*%
D16*
%TO.C,REF\u002A\u002A*%
X40500000Y-7850000D03*
%TD*%
D22*
%TO.C,D5*%
X58500000Y-9120000D03*
D23*
X58500000Y-6580000D03*
%TD*%
D18*
%TO.C,R8*%
X8875000Y-11100000D03*
X10525000Y-11100000D03*
%TD*%
%TO.C,R9*%
X20875000Y-11100000D03*
X22525000Y-11100000D03*
%TD*%
D26*
%TO.C,U5*%
X101750000Y-7700000D03*
X102250000Y-7700000D03*
X102750000Y-7700000D03*
X103250000Y-7700000D03*
X103250000Y-5700000D03*
X102750000Y-5700000D03*
X102250000Y-5700000D03*
X101750000Y-5700000D03*
D27*
X102500000Y-6700000D03*
%TD*%
D18*
%TO.C,R4*%
X2775000Y-13300000D03*
X4425000Y-13300000D03*
%TD*%
D28*
%TO.C,U4*%
X71212500Y-8100000D03*
X71212500Y-8600000D03*
X71212500Y-9100000D03*
X71212500Y-9600000D03*
X71212500Y-10100000D03*
X71212500Y-10600000D03*
X71212500Y-11100000D03*
X71212500Y-11600000D03*
D29*
X71900000Y-12287500D03*
X72400000Y-12287500D03*
X72900000Y-12287500D03*
X73400000Y-12287500D03*
X73900000Y-12287500D03*
X74400000Y-12287500D03*
X74900000Y-12287500D03*
X75400000Y-12287500D03*
D28*
X76087500Y-11600000D03*
X76087500Y-11100000D03*
X76087500Y-10600000D03*
X76087500Y-10100000D03*
X76087500Y-9600000D03*
X76087500Y-9100000D03*
X76087500Y-8600000D03*
X76087500Y-8100000D03*
D29*
X75400000Y-7412500D03*
X74900000Y-7412500D03*
X74400000Y-7412500D03*
X73900000Y-7412500D03*
X73400000Y-7412500D03*
X72900000Y-7412500D03*
X72400000Y-7412500D03*
X71900000Y-7412500D03*
D30*
X73650000Y-9850000D03*
%TD*%
D21*
%TO.C,R2*%
X84100000Y-9825000D03*
X84100000Y-8175000D03*
%TD*%
D25*
%TO.C,C3*%
X90250000Y-11600000D03*
X92150000Y-11600000D03*
%TD*%
D31*
%TO.C,U6*%
X66300000Y-4625000D03*
X66800000Y-4625000D03*
X67300000Y-4625000D03*
X67800000Y-4625000D03*
X68300000Y-4625000D03*
D32*
X68525000Y-3900000D03*
X68525000Y-3400000D03*
X68525000Y-2900000D03*
D31*
X68300000Y-2175000D03*
X67800000Y-2175000D03*
X67300000Y-2175000D03*
X66800000Y-2175000D03*
X66300000Y-2175000D03*
D32*
X66075000Y-2900000D03*
X66075000Y-3400000D03*
X66075000Y-3900000D03*
%TD*%
D22*
%TO.C,D1*%
X10500000Y-9120000D03*
D23*
X10500000Y-6580000D03*
%TD*%
D13*
%TO.C,C6*%
X97500000Y-11150000D03*
X97500000Y-9250000D03*
%TD*%
D18*
%TO.C,R11*%
X44875000Y-11100000D03*
X46525000Y-11100000D03*
%TD*%
D33*
%TO.C,U1*%
X96137500Y-6250000D03*
X96137500Y-5300000D03*
X96137500Y-4350000D03*
X93862500Y-4350000D03*
X93862500Y-6250000D03*
%TD*%
D21*
%TO.C,R7*%
X73300000Y-4125000D03*
X73300000Y-2475000D03*
%TD*%
D34*
%TO.C,U3*%
X85637500Y-8450000D03*
X85637500Y-8950000D03*
X85637500Y-9450000D03*
X85637500Y-9950000D03*
X88562500Y-9950000D03*
X88562500Y-9450000D03*
X88562500Y-8950000D03*
X88562500Y-8450000D03*
D35*
X87100000Y-9200000D03*
%TD*%
D18*
%TO.C,R12*%
X56875000Y-11100000D03*
X58525000Y-11100000D03*
%TD*%
D10*
%TO.C,C13*%
X63625000Y-3100000D03*
X62075000Y-3100000D03*
%TD*%
D14*
%TO.C,Q2*%
X23037500Y-14550000D03*
X23037500Y-12650000D03*
X21162500Y-13600000D03*
%TD*%
D15*
%TO.C,L1*%
X91900000Y-4800000D03*
X89100000Y-4800000D03*
%TD*%
D24*
%TO.C,C12*%
X63600000Y-5000000D03*
X61700000Y-5000000D03*
%TD*%
D22*
%TO.C,D2*%
X22500000Y-9120000D03*
D23*
X22500000Y-6580000D03*
%TD*%
D36*
%TO.C,J1*%
X83140000Y-4384000D03*
X83140000Y-6416000D03*
X78060000Y-5400000D03*
%TD*%
M02*
