M48
; DRILL file {KiCad (6.0.7-1)-1} date 2022 September 24, Saturday 17:28:44
; FORMAT={-:-/ absolute / inch / decimal}
; #@! TF.CreationDate,2022-09-24T17:28:44+02:00
; #@! TF.GenerationSoftware,Kicad,Pcbnew,(6.0.7-1)-1
; #@! TF.FileFunction,Plated,1,2,PTH
FMAT,2
INCH
; #@! TA.AperFunction,Plated,PTH,ViaDrill
T1C0.0098
; #@! TA.AperFunction,Plated,PTH,ViaDrill
T2C0.0157
; #@! TA.AperFunction,Plated,PTH,ComponentDrill
T3C0.0354
; #@! TA.AperFunction,Plated,PTH,ComponentDrill
T4C0.0787
%
G90
G05
T1
X0.1366Y-0.2126
X0.1417Y-0.1654
X0.1417Y-0.2756
X0.1417Y-0.3701
X0.1417Y-0.4567
X0.1457Y-0.4134
X0.2205Y-0.0433
X0.2795Y-0.563
X0.2913Y-0.315
X0.3071Y-0.4764
X0.3583Y-0.1378
X0.7402Y-0.4606
X1.2126Y-0.4291
X1.6969Y-0.4252
X2.1614Y-0.4685
X2.2441Y-0.1102
X2.2598Y-0.1929
X2.311Y-0.1693
X2.378Y-0.1417
X2.437Y-0.4882
X2.4803Y-0.0669
X2.5079Y-0.2598
X2.5827Y-0.2598
X2.5945Y-0.3661
X2.5984Y-0.4803
X2.6693Y-0.4794
X2.6969Y-0.2598
X2.7126Y-0.0394
X2.7441Y-0.5148
X2.7559Y-0.1929
X2.7559Y-0.343
X2.7643Y-0.1334
X2.8189Y-0.0945
X2.9016Y-0.3858
X2.9252Y-0.248
X2.9606Y-0.2126
X3.0236Y-0.122
X3.0236Y-0.5709
X3.0399Y-0.4759
X3.0866Y-0.1654
X3.1063Y-0.5906
X3.122Y-0.3317
X3.1732Y-0.3071
X3.2087Y-0.5197
X3.2795Y-0.5984
X3.2835Y-0.4685
X3.2835Y-0.5079
X3.3425Y-0.0916
X3.374Y-0.248
X3.4134Y-0.1614
X3.4291Y-0.0512
X3.4331Y-0.3622
X3.437Y-0.2795
X3.5748Y-0.5787
X3.6496Y-0.2992
X3.6655Y-0.5361
X3.685Y-0.4882
X3.7047Y-0.4055
X3.7244Y-0.0591
X3.752Y-0.0394
X3.7913Y-0.5354
X3.815Y-0.1142
X3.8386Y-0.3661
X3.9134Y-0.2835
X3.9134Y-0.4488
X3.9331Y-0.185
X3.9488Y-0.4213
X3.9803Y-0.0512
X4.0Y-0.4409
X4.0118Y-0.5472
X4.0236Y-0.4764
X4.0472Y-0.4291
X4.0709Y-0.4646
X4.0787Y-0.1299
X4.0866Y-0.4173
X4.1063Y-0.563
X4.1142Y-0.1654
X4.1181Y-0.2165
T2
X0.0551Y-0.5354
X0.5039Y-0.5709
X0.9764Y-0.5748
X1.4449Y-0.5709
X1.9252Y-0.5709
X2.7829Y-0.5286
X2.8212Y-0.5433
X2.8606Y-0.5433
X2.8891Y-0.5706
X2.9252Y-0.5512
T3
X0.4134Y-0.2591
X0.4134Y-0.3591
X0.8858Y-0.2591
X0.8858Y-0.3591
X1.3583Y-0.2591
X1.3583Y-0.3591
X1.8307Y-0.2591
X1.8307Y-0.3591
X2.3031Y-0.2591
X2.3031Y-0.3591
T4
X1.5945Y-0.3091
T0
M30
