%TF.GenerationSoftware,KiCad,Pcbnew,(6.0.7-1)-1*%
%TF.CreationDate,2022-09-24T17:28:48+02:00*%
%TF.ProjectId,Bike-lights-kicad,42696b65-2d6c-4696-9768-74732d6b6963,rev?*%
%TF.SameCoordinates,Original*%
%TF.FileFunction,Legend,Bot*%
%TF.FilePolarity,Positive*%
%FSLAX46Y46*%
G04 Gerber Fmt 4.6, Leading zero omitted, Abs format (unit mm)*
G04 Created by KiCad (PCBNEW (6.0.7-1)-1) date 2022-09-24 17:28:48*
%MOMM*%
%LPD*%
G01*
G04 APERTURE LIST*
%ADD10C,0.152400*%
%ADD11C,0.150000*%
%ADD12C,0.120000*%
G04 APERTURE END LIST*
D10*
X92854285Y-11313391D02*
X92854285Y-10500591D01*
X92854285Y-10810229D02*
X92776876Y-10771524D01*
X92622057Y-10771524D01*
X92544647Y-10810229D01*
X92505942Y-10848934D01*
X92467238Y-10926343D01*
X92467238Y-11158572D01*
X92505942Y-11235981D01*
X92544647Y-11274686D01*
X92622057Y-11313391D01*
X92776876Y-11313391D01*
X92854285Y-11274686D01*
X92118895Y-11313391D02*
X92118895Y-10771524D01*
X92118895Y-10500591D02*
X92157600Y-10539296D01*
X92118895Y-10578000D01*
X92080190Y-10539296D01*
X92118895Y-10500591D01*
X92118895Y-10578000D01*
X91731847Y-11313391D02*
X91731847Y-10500591D01*
X91654438Y-11003753D02*
X91422209Y-11313391D01*
X91422209Y-10771524D02*
X91731847Y-11081162D01*
X90764228Y-11274686D02*
X90841638Y-11313391D01*
X90996457Y-11313391D01*
X91073866Y-11274686D01*
X91112571Y-11197276D01*
X91112571Y-10887638D01*
X91073866Y-10810229D01*
X90996457Y-10771524D01*
X90841638Y-10771524D01*
X90764228Y-10810229D01*
X90725523Y-10887638D01*
X90725523Y-10965048D01*
X91112571Y-11042457D01*
X90261066Y-11313391D02*
X90338476Y-11274686D01*
X90377180Y-11197276D01*
X90377180Y-10500591D01*
X89951428Y-11313391D02*
X89951428Y-10771524D01*
X89951428Y-10500591D02*
X89990133Y-10539296D01*
X89951428Y-10578000D01*
X89912723Y-10539296D01*
X89951428Y-10500591D01*
X89951428Y-10578000D01*
X89216038Y-10771524D02*
X89216038Y-11429505D01*
X89254742Y-11506915D01*
X89293447Y-11545619D01*
X89370857Y-11584324D01*
X89486971Y-11584324D01*
X89564380Y-11545619D01*
X89216038Y-11274686D02*
X89293447Y-11313391D01*
X89448266Y-11313391D01*
X89525676Y-11274686D01*
X89564380Y-11235981D01*
X89603085Y-11158572D01*
X89603085Y-10926343D01*
X89564380Y-10848934D01*
X89525676Y-10810229D01*
X89448266Y-10771524D01*
X89293447Y-10771524D01*
X89216038Y-10810229D01*
X88828990Y-11313391D02*
X88828990Y-10500591D01*
X88480647Y-11313391D02*
X88480647Y-10887638D01*
X88519352Y-10810229D01*
X88596761Y-10771524D01*
X88712876Y-10771524D01*
X88790285Y-10810229D01*
X88828990Y-10848934D01*
X88209714Y-10771524D02*
X87900076Y-10771524D01*
X88093600Y-10500591D02*
X88093600Y-11197276D01*
X88054895Y-11274686D01*
X87977485Y-11313391D01*
X87900076Y-11313391D01*
X87009866Y-11313391D02*
X87009866Y-10771524D01*
X87009866Y-10926343D02*
X86971161Y-10848934D01*
X86932457Y-10810229D01*
X86855047Y-10771524D01*
X86777638Y-10771524D01*
X86197066Y-11274686D02*
X86274476Y-11313391D01*
X86429295Y-11313391D01*
X86506704Y-11274686D01*
X86545409Y-11197276D01*
X86545409Y-10887638D01*
X86506704Y-10810229D01*
X86429295Y-10771524D01*
X86274476Y-10771524D01*
X86197066Y-10810229D01*
X86158361Y-10887638D01*
X86158361Y-10965048D01*
X86545409Y-11042457D01*
X85887428Y-10771524D02*
X85693904Y-11313391D01*
X85500380Y-10771524D01*
X84300533Y-10887638D02*
X84184419Y-10926343D01*
X84145714Y-10965048D01*
X84107009Y-11042457D01*
X84107009Y-11158572D01*
X84145714Y-11235981D01*
X84184419Y-11274686D01*
X84261828Y-11313391D01*
X84571466Y-11313391D01*
X84571466Y-10500591D01*
X84300533Y-10500591D01*
X84223123Y-10539296D01*
X84184419Y-10578000D01*
X84145714Y-10655410D01*
X84145714Y-10732819D01*
X84184419Y-10810229D01*
X84223123Y-10848934D01*
X84300533Y-10887638D01*
X84571466Y-10887638D01*
X92815580Y-12389770D02*
X92428533Y-12389770D01*
X92892990Y-12621999D02*
X92622057Y-11809199D01*
X92351123Y-12621999D01*
X91964076Y-12621999D02*
X92041485Y-12583294D01*
X92080190Y-12505884D01*
X92080190Y-11809199D01*
X91344800Y-12583294D02*
X91422209Y-12621999D01*
X91577028Y-12621999D01*
X91654438Y-12583294D01*
X91693142Y-12505884D01*
X91693142Y-12196246D01*
X91654438Y-12118837D01*
X91577028Y-12080132D01*
X91422209Y-12080132D01*
X91344800Y-12118837D01*
X91306095Y-12196246D01*
X91306095Y-12273656D01*
X91693142Y-12351065D01*
X91035161Y-12621999D02*
X90609409Y-12080132D01*
X91035161Y-12080132D02*
X90609409Y-12621999D01*
X90299771Y-12621999D02*
X90299771Y-12080132D01*
X90299771Y-11809199D02*
X90338476Y-11847904D01*
X90299771Y-11886608D01*
X90261066Y-11847904D01*
X90299771Y-11809199D01*
X90299771Y-11886608D01*
X89951428Y-12583294D02*
X89874019Y-12621999D01*
X89719200Y-12621999D01*
X89641790Y-12583294D01*
X89603085Y-12505884D01*
X89603085Y-12467180D01*
X89641790Y-12389770D01*
X89719200Y-12351065D01*
X89835314Y-12351065D01*
X89912723Y-12312361D01*
X89951428Y-12234951D01*
X89951428Y-12196246D01*
X89912723Y-12118837D01*
X89835314Y-12080132D01*
X89719200Y-12080132D01*
X89641790Y-12118837D01*
X88635466Y-12621999D02*
X88635466Y-11809199D01*
X88364533Y-12389770D01*
X88093600Y-11809199D01*
X88093600Y-12621999D01*
X87358209Y-12621999D02*
X87358209Y-12196246D01*
X87396914Y-12118837D01*
X87474323Y-12080132D01*
X87629142Y-12080132D01*
X87706552Y-12118837D01*
X87358209Y-12583294D02*
X87435619Y-12621999D01*
X87629142Y-12621999D01*
X87706552Y-12583294D01*
X87745257Y-12505884D01*
X87745257Y-12428475D01*
X87706552Y-12351065D01*
X87629142Y-12312361D01*
X87435619Y-12312361D01*
X87358209Y-12273656D01*
X86971161Y-12621999D02*
X86971161Y-12080132D01*
X86971161Y-12234951D02*
X86932457Y-12157542D01*
X86893752Y-12118837D01*
X86816342Y-12080132D01*
X86738933Y-12080132D01*
X86119657Y-12080132D02*
X86119657Y-12892932D01*
X86119657Y-12583294D02*
X86197066Y-12621999D01*
X86351885Y-12621999D01*
X86429295Y-12583294D01*
X86468000Y-12544589D01*
X86506704Y-12467180D01*
X86506704Y-12234951D01*
X86468000Y-12157542D01*
X86429295Y-12118837D01*
X86351885Y-12080132D01*
X86197066Y-12080132D01*
X86119657Y-12118837D01*
X85384266Y-12080132D02*
X85384266Y-12621999D01*
X85732609Y-12080132D02*
X85732609Y-12505884D01*
X85693904Y-12583294D01*
X85616495Y-12621999D01*
X85500380Y-12621999D01*
X85422971Y-12583294D01*
X85384266Y-12544589D01*
X84687580Y-12583294D02*
X84764990Y-12621999D01*
X84919809Y-12621999D01*
X84997219Y-12583294D01*
X85035923Y-12505884D01*
X85035923Y-12196246D01*
X84997219Y-12118837D01*
X84919809Y-12080132D01*
X84764990Y-12080132D01*
X84687580Y-12118837D01*
X84648876Y-12196246D01*
X84648876Y-12273656D01*
X85035923Y-12351065D01*
X84416647Y-12080132D02*
X84107009Y-12080132D01*
X84300533Y-11809199D02*
X84300533Y-12505884D01*
X84261828Y-12583294D01*
X84184419Y-12621999D01*
X84107009Y-12621999D01*
X99741942Y-9896914D02*
X99780647Y-10013028D01*
X99819352Y-10051733D01*
X99896761Y-10090438D01*
X100012876Y-10090438D01*
X100090285Y-10051733D01*
X100128990Y-10013028D01*
X100167695Y-9935619D01*
X100167695Y-9625980D01*
X99354895Y-9625980D01*
X99354895Y-9896914D01*
X99393600Y-9974323D01*
X99432304Y-10013028D01*
X99509714Y-10051733D01*
X99587123Y-10051733D01*
X99664533Y-10013028D01*
X99703238Y-9974323D01*
X99741942Y-9896914D01*
X99741942Y-9625980D01*
X99935466Y-10400076D02*
X99935466Y-10787123D01*
X100167695Y-10322666D02*
X99354895Y-10593600D01*
X100167695Y-10864533D01*
X99354895Y-11019352D02*
X99354895Y-11483809D01*
X100167695Y-11251580D02*
X99354895Y-11251580D01*
X99858057Y-11754742D02*
X99858057Y-12374019D01*
X99641942Y-3896914D02*
X99680647Y-4013028D01*
X99719352Y-4051733D01*
X99796761Y-4090438D01*
X99912876Y-4090438D01*
X99990285Y-4051733D01*
X100028990Y-4013028D01*
X100067695Y-3935619D01*
X100067695Y-3625980D01*
X99254895Y-3625980D01*
X99254895Y-3896914D01*
X99293600Y-3974323D01*
X99332304Y-4013028D01*
X99409714Y-4051733D01*
X99487123Y-4051733D01*
X99564533Y-4013028D01*
X99603238Y-3974323D01*
X99641942Y-3896914D01*
X99641942Y-3625980D01*
X99835466Y-4400076D02*
X99835466Y-4787123D01*
X100067695Y-4322666D02*
X99254895Y-4593600D01*
X100067695Y-4864533D01*
X99254895Y-5019352D02*
X99254895Y-5483809D01*
X100067695Y-5251580D02*
X99254895Y-5251580D01*
X99758057Y-5754742D02*
X99758057Y-6374019D01*
X100067695Y-6064380D02*
X99448419Y-6064380D01*
X95600591Y-4226285D02*
X95600591Y-4690742D01*
X96413391Y-4458514D02*
X95600591Y-4458514D01*
X95600591Y-5116495D02*
X95600591Y-5271314D01*
X95639296Y-5348723D01*
X95716705Y-5426133D01*
X95871524Y-5464838D01*
X96142457Y-5464838D01*
X96297276Y-5426133D01*
X96374686Y-5348723D01*
X96413391Y-5271314D01*
X96413391Y-5116495D01*
X96374686Y-5039085D01*
X96297276Y-4961676D01*
X96142457Y-4922971D01*
X95871524Y-4922971D01*
X95716705Y-4961676D01*
X95639296Y-5039085D01*
X95600591Y-5116495D01*
X95987638Y-6703390D02*
X96026343Y-6819504D01*
X96065048Y-6858209D01*
X96142457Y-6896914D01*
X96258572Y-6896914D01*
X96335981Y-6858209D01*
X96374686Y-6819504D01*
X96413391Y-6742095D01*
X96413391Y-6432457D01*
X95600591Y-6432457D01*
X95600591Y-6703390D01*
X95639296Y-6780800D01*
X95678000Y-6819504D01*
X95755410Y-6858209D01*
X95832819Y-6858209D01*
X95910229Y-6819504D01*
X95948934Y-6780800D01*
X95987638Y-6703390D01*
X95987638Y-6432457D01*
X96181162Y-7206552D02*
X96181162Y-7593600D01*
X96413391Y-7129142D02*
X95600591Y-7400076D01*
X96413391Y-7671009D01*
X95600591Y-7825828D02*
X95600591Y-8290285D01*
X96413391Y-8058057D02*
X95600591Y-8058057D01*
X95600591Y-8445104D02*
X95600591Y-8909561D01*
X96413391Y-8677333D02*
X95600591Y-8677333D01*
X95987638Y-9180495D02*
X95987638Y-9451428D01*
X96413391Y-9567542D02*
X96413391Y-9180495D01*
X95600591Y-9180495D01*
X95600591Y-9567542D01*
X96413391Y-10380342D02*
X96026343Y-10109409D01*
X96413391Y-9915885D02*
X95600591Y-9915885D01*
X95600591Y-10225523D01*
X95639296Y-10302933D01*
X95678000Y-10341638D01*
X95755410Y-10380342D01*
X95871524Y-10380342D01*
X95948934Y-10341638D01*
X95987638Y-10302933D01*
X96026343Y-10225523D01*
X96026343Y-9915885D01*
X96026343Y-10883504D02*
X96413391Y-10883504D01*
X95600591Y-10612571D02*
X96026343Y-10883504D01*
X95600591Y-11154438D01*
X97721999Y-3548952D02*
X97180132Y-3548952D01*
X97257542Y-3548952D02*
X97218837Y-3587657D01*
X97180132Y-3665066D01*
X97180132Y-3781180D01*
X97218837Y-3858590D01*
X97296246Y-3897295D01*
X97721999Y-3897295D01*
X97296246Y-3897295D02*
X97218837Y-3936000D01*
X97180132Y-4013409D01*
X97180132Y-4129523D01*
X97218837Y-4206933D01*
X97296246Y-4245638D01*
X97721999Y-4245638D01*
X97721999Y-4981028D02*
X97296246Y-4981028D01*
X97218837Y-4942323D01*
X97180132Y-4864914D01*
X97180132Y-4710095D01*
X97218837Y-4632685D01*
X97683294Y-4981028D02*
X97721999Y-4903619D01*
X97721999Y-4710095D01*
X97683294Y-4632685D01*
X97605884Y-4593980D01*
X97528475Y-4593980D01*
X97451065Y-4632685D01*
X97412361Y-4710095D01*
X97412361Y-4903619D01*
X97373656Y-4981028D01*
X97721999Y-5290666D02*
X97180132Y-5716419D01*
X97180132Y-5290666D02*
X97721999Y-5716419D01*
X97721999Y-7071085D02*
X97721999Y-6606628D01*
X97721999Y-6838857D02*
X96909199Y-6838857D01*
X97025313Y-6761447D01*
X97102723Y-6684038D01*
X97141427Y-6606628D01*
X97489770Y-7380723D02*
X97489770Y-7767771D01*
X97721999Y-7303314D02*
X96909199Y-7574247D01*
X97721999Y-7845180D01*
X97683294Y-9083733D02*
X97721999Y-9006323D01*
X97721999Y-8851504D01*
X97683294Y-8774095D01*
X97644589Y-8735390D01*
X97567180Y-8696685D01*
X97334951Y-8696685D01*
X97257542Y-8735390D01*
X97218837Y-8774095D01*
X97180132Y-8851504D01*
X97180132Y-9006323D01*
X97218837Y-9083733D01*
X97721999Y-9432076D02*
X96909199Y-9432076D01*
X97721999Y-9780419D02*
X97296246Y-9780419D01*
X97218837Y-9741714D01*
X97180132Y-9664304D01*
X97180132Y-9548190D01*
X97218837Y-9470780D01*
X97257542Y-9432076D01*
X97721999Y-10515809D02*
X97296246Y-10515809D01*
X97218837Y-10477104D01*
X97180132Y-10399695D01*
X97180132Y-10244876D01*
X97218837Y-10167466D01*
X97683294Y-10515809D02*
X97721999Y-10438400D01*
X97721999Y-10244876D01*
X97683294Y-10167466D01*
X97605884Y-10128761D01*
X97528475Y-10128761D01*
X97451065Y-10167466D01*
X97412361Y-10244876D01*
X97412361Y-10438400D01*
X97373656Y-10515809D01*
X97721999Y-10902857D02*
X97180132Y-10902857D01*
X97334951Y-10902857D02*
X97257542Y-10941561D01*
X97218837Y-10980266D01*
X97180132Y-11057676D01*
X97180132Y-11135085D01*
X97180132Y-11754361D02*
X97838113Y-11754361D01*
X97915523Y-11715657D01*
X97954227Y-11676952D01*
X97992932Y-11599542D01*
X97992932Y-11483428D01*
X97954227Y-11406019D01*
X97683294Y-11754361D02*
X97721999Y-11676952D01*
X97721999Y-11522133D01*
X97683294Y-11444723D01*
X97644589Y-11406019D01*
X97567180Y-11367314D01*
X97334951Y-11367314D01*
X97257542Y-11406019D01*
X97218837Y-11444723D01*
X97180132Y-11522133D01*
X97180132Y-11676952D01*
X97218837Y-11754361D01*
X97683294Y-12451047D02*
X97721999Y-12373638D01*
X97721999Y-12218819D01*
X97683294Y-12141409D01*
X97605884Y-12102704D01*
X97296246Y-12102704D01*
X97218837Y-12141409D01*
X97180132Y-12218819D01*
X97180132Y-12373638D01*
X97218837Y-12451047D01*
X97296246Y-12489752D01*
X97373656Y-12489752D01*
X97451065Y-12102704D01*
X8106400Y-10919276D02*
X8145104Y-10996685D01*
X8145104Y-11112800D01*
X8106400Y-11228914D01*
X8028990Y-11306323D01*
X7951580Y-11345028D01*
X7796761Y-11383733D01*
X7680647Y-11383733D01*
X7525828Y-11345028D01*
X7448419Y-11306323D01*
X7371009Y-11228914D01*
X7332304Y-11112800D01*
X7332304Y-11035390D01*
X7371009Y-10919276D01*
X7409714Y-10880571D01*
X7680647Y-10880571D01*
X7680647Y-11035390D01*
X7332304Y-10532228D02*
X8145104Y-10532228D01*
X7332304Y-10067771D01*
X8145104Y-10067771D01*
X7332304Y-9680723D02*
X8145104Y-9680723D01*
X8145104Y-9487200D01*
X8106400Y-9371085D01*
X8028990Y-9293676D01*
X7951580Y-9254971D01*
X7796761Y-9216266D01*
X7680647Y-9216266D01*
X7525828Y-9254971D01*
X7448419Y-9293676D01*
X7371009Y-9371085D01*
X7332304Y-9487200D01*
X7332304Y-9680723D01*
X8145104Y-5854819D02*
X8145104Y-6241866D01*
X7758057Y-6280571D01*
X7796761Y-6241866D01*
X7835466Y-6164457D01*
X7835466Y-5970933D01*
X7796761Y-5893523D01*
X7758057Y-5854819D01*
X7680647Y-5816114D01*
X7487123Y-5816114D01*
X7409714Y-5854819D01*
X7371009Y-5893523D01*
X7332304Y-5970933D01*
X7332304Y-6164457D01*
X7371009Y-6241866D01*
X7409714Y-6280571D01*
X8145104Y-5583885D02*
X7332304Y-5312952D01*
X8145104Y-5042019D01*
X8509714Y-10951276D02*
X8471009Y-10989980D01*
X8432304Y-11106095D01*
X8432304Y-11183504D01*
X8471009Y-11299619D01*
X8548419Y-11377028D01*
X8625828Y-11415733D01*
X8780647Y-11454438D01*
X8896761Y-11454438D01*
X9051580Y-11415733D01*
X9128990Y-11377028D01*
X9206400Y-11299619D01*
X9245104Y-11183504D01*
X9245104Y-11106095D01*
X9206400Y-10989980D01*
X9167695Y-10951276D01*
X8432304Y-10602933D02*
X9245104Y-10602933D01*
X8858057Y-10602933D02*
X8858057Y-10138476D01*
X8432304Y-10138476D02*
X9245104Y-10138476D01*
X9206400Y-9325676D02*
X9245104Y-9403085D01*
X9245104Y-9519200D01*
X9206400Y-9635314D01*
X9128990Y-9712723D01*
X9051580Y-9751428D01*
X8896761Y-9790133D01*
X8780647Y-9790133D01*
X8625828Y-9751428D01*
X8548419Y-9712723D01*
X8471009Y-9635314D01*
X8432304Y-9519200D01*
X8432304Y-9441790D01*
X8471009Y-9325676D01*
X8509714Y-9286971D01*
X8780647Y-9286971D01*
X8780647Y-9441790D01*
X8432304Y-8319352D02*
X9245104Y-8319352D01*
X8432304Y-7932304D02*
X9245104Y-7932304D01*
X8432304Y-7467847D01*
X9245104Y-7467847D01*
X8432304Y-7080800D02*
X9245104Y-7080800D01*
X9245104Y-6771161D01*
X9206400Y-6693752D01*
X9167695Y-6655047D01*
X9090285Y-6616342D01*
X8974171Y-6616342D01*
X8896761Y-6655047D01*
X8858057Y-6693752D01*
X8819352Y-6771161D01*
X8819352Y-7080800D01*
X9245104Y-6268000D02*
X8587123Y-6268000D01*
X8509714Y-6229295D01*
X8471009Y-6190590D01*
X8432304Y-6113180D01*
X8432304Y-5958361D01*
X8471009Y-5880952D01*
X8509714Y-5842247D01*
X8587123Y-5803542D01*
X9245104Y-5803542D01*
X9245104Y-5532609D02*
X9245104Y-5068152D01*
X8432304Y-5300380D02*
X9245104Y-5300380D01*
D11*
%TO.C,J1*%
X80933333Y-2152380D02*
X80933333Y-2866666D01*
X80980952Y-3009523D01*
X81076190Y-3104761D01*
X81219047Y-3152380D01*
X81314285Y-3152380D01*
X79933333Y-3152380D02*
X80504761Y-3152380D01*
X80219047Y-3152380D02*
X80219047Y-2152380D01*
X80314285Y-2295238D01*
X80409523Y-2390476D01*
X80504761Y-2438095D01*
%TO.C,TP2*%
X104461904Y-7404380D02*
X103890476Y-7404380D01*
X104176190Y-8404380D02*
X104176190Y-7404380D01*
X103557142Y-8404380D02*
X103557142Y-7404380D01*
X103176190Y-7404380D01*
X103080952Y-7452000D01*
X103033333Y-7499619D01*
X102985714Y-7594857D01*
X102985714Y-7737714D01*
X103033333Y-7832952D01*
X103080952Y-7880571D01*
X103176190Y-7928190D01*
X103557142Y-7928190D01*
X102604761Y-7499619D02*
X102557142Y-7452000D01*
X102461904Y-7404380D01*
X102223809Y-7404380D01*
X102128571Y-7452000D01*
X102080952Y-7499619D01*
X102033333Y-7594857D01*
X102033333Y-7690095D01*
X102080952Y-7832952D01*
X102652380Y-8404380D01*
X102033333Y-8404380D01*
%TO.C,TP1*%
X104461904Y-1354380D02*
X103890476Y-1354380D01*
X104176190Y-2354380D02*
X104176190Y-1354380D01*
X103557142Y-2354380D02*
X103557142Y-1354380D01*
X103176190Y-1354380D01*
X103080952Y-1402000D01*
X103033333Y-1449619D01*
X102985714Y-1544857D01*
X102985714Y-1687714D01*
X103033333Y-1782952D01*
X103080952Y-1830571D01*
X103176190Y-1878190D01*
X103557142Y-1878190D01*
X102033333Y-2354380D02*
X102604761Y-2354380D01*
X102319047Y-2354380D02*
X102319047Y-1354380D01*
X102414285Y-1497238D01*
X102509523Y-1592476D01*
X102604761Y-1640095D01*
D12*
%TO.C,TP4*%
X1269106Y-8278936D02*
X1269106Y-12678936D01*
X5669106Y-12678936D02*
X5669106Y-8278936D01*
X1269106Y-12678936D02*
X5669106Y-12678936D01*
X5669106Y-8278936D02*
X1269106Y-8278936D01*
%TO.C,TP3*%
X1269106Y-3198936D02*
X1269106Y-7598936D01*
X1269106Y-7598936D02*
X5669106Y-7598936D01*
X5669106Y-7598936D02*
X5669106Y-3198936D01*
X5669106Y-3198936D02*
X1269106Y-3198936D01*
%TO.C,J1*%
X78695000Y-4130000D02*
X78695000Y-4765000D01*
X79330000Y-4130000D02*
X78695000Y-4130000D01*
%TO.C,TP2*%
X101000000Y-8650000D02*
X101000000Y-13050000D01*
X105400000Y-8650000D02*
X101000000Y-8650000D01*
X101000000Y-13050000D02*
X105400000Y-13050000D01*
X105400000Y-13050000D02*
X105400000Y-8650000D01*
%TO.C,TP1*%
X101000000Y-7000000D02*
X105400000Y-7000000D01*
X105400000Y-7000000D02*
X105400000Y-2600000D01*
X101000000Y-2600000D02*
X101000000Y-7000000D01*
X105400000Y-2600000D02*
X101000000Y-2600000D01*
%TD*%
M02*
