%TF.GenerationSoftware,KiCad,Pcbnew,(6.0.7-1)-1*%
%TF.CreationDate,2022-09-24T17:28:48+02:00*%
%TF.ProjectId,Bike-lights-kicad,42696b65-2d6c-4696-9768-74732d6b6963,rev?*%
%TF.SameCoordinates,Original*%
%TF.FileFunction,Copper,L1,Top*%
%TF.FilePolarity,Positive*%
%FSLAX46Y46*%
G04 Gerber Fmt 4.6, Leading zero omitted, Abs format (unit mm)*
G04 Created by KiCad (PCBNEW (6.0.7-1)-1) date 2022-09-24 17:28:48*
%MOMM*%
%LPD*%
G01*
G04 APERTURE LIST*
G04 Aperture macros list*
%AMRoundRect*
0 Rectangle with rounded corners*
0 $1 Rounding radius*
0 $2 $3 $4 $5 $6 $7 $8 $9 X,Y pos of 4 corners*
0 Add a 4 corners polygon primitive as box body*
4,1,4,$2,$3,$4,$5,$6,$7,$8,$9,$2,$3,0*
0 Add four circle primitives for the rounded corners*
1,1,$1+$1,$2,$3*
1,1,$1+$1,$4,$5*
1,1,$1+$1,$6,$7*
1,1,$1+$1,$8,$9*
0 Add four rect primitives between the rounded corners*
20,1,$1+$1,$2,$3,$4,$5,0*
20,1,$1+$1,$4,$5,$6,$7,0*
20,1,$1+$1,$6,$7,$8,$9,0*
20,1,$1+$1,$8,$9,$2,$3,0*%
G04 Aperture macros list end*
%TA.AperFunction,SMDPad,CuDef*%
%ADD10RoundRect,0.225000X0.225000X0.250000X-0.225000X0.250000X-0.225000X-0.250000X0.225000X-0.250000X0*%
%TD*%
%TA.AperFunction,SMDPad,CuDef*%
%ADD11R,0.750000X0.300000*%
%TD*%
%TA.AperFunction,SMDPad,CuDef*%
%ADD12R,1.750000X1.450000*%
%TD*%
%TA.AperFunction,SMDPad,CuDef*%
%ADD13RoundRect,0.250000X0.475000X-0.250000X0.475000X0.250000X-0.475000X0.250000X-0.475000X-0.250000X0*%
%TD*%
%TA.AperFunction,SMDPad,CuDef*%
%ADD14RoundRect,0.150000X0.587500X0.150000X-0.587500X0.150000X-0.587500X-0.150000X0.587500X-0.150000X0*%
%TD*%
%TA.AperFunction,SMDPad,CuDef*%
%ADD15R,1.200000X3.700000*%
%TD*%
%TA.AperFunction,SMDPad,CuDef*%
%ADD16R,1.000000X2.800000*%
%TD*%
%TA.AperFunction,SMDPad,CuDef*%
%ADD17RoundRect,0.200000X-0.200000X-0.275000X0.200000X-0.275000X0.200000X0.275000X-0.200000X0.275000X0*%
%TD*%
%TA.AperFunction,SMDPad,CuDef*%
%ADD18RoundRect,0.200000X-0.275000X0.200000X-0.275000X-0.200000X0.275000X-0.200000X0.275000X0.200000X0*%
%TD*%
%TA.AperFunction,SMDPad,CuDef*%
%ADD19RoundRect,0.225000X-0.225000X-0.250000X0.225000X-0.250000X0.225000X0.250000X-0.225000X0.250000X0*%
%TD*%
%TA.AperFunction,SMDPad,CuDef*%
%ADD20RoundRect,0.200000X0.275000X-0.200000X0.275000X0.200000X-0.275000X0.200000X-0.275000X-0.200000X0*%
%TD*%
%TA.AperFunction,ComponentPad*%
%ADD21R,1.800000X1.800000*%
%TD*%
%TA.AperFunction,ComponentPad*%
%ADD22C,1.800000*%
%TD*%
%TA.AperFunction,SMDPad,CuDef*%
%ADD23RoundRect,0.250000X0.250000X0.475000X-0.250000X0.475000X-0.250000X-0.475000X0.250000X-0.475000X0*%
%TD*%
%TA.AperFunction,SMDPad,CuDef*%
%ADD24RoundRect,0.250000X-0.250000X-0.475000X0.250000X-0.475000X0.250000X0.475000X-0.250000X0.475000X0*%
%TD*%
%TA.AperFunction,ComponentPad*%
%ADD25C,3.000000*%
%TD*%
%TA.AperFunction,SMDPad,CuDef*%
%ADD26RoundRect,0.062500X0.062500X-0.287500X0.062500X0.287500X-0.062500X0.287500X-0.062500X-0.287500X0*%
%TD*%
%TA.AperFunction,SMDPad,CuDef*%
%ADD27R,1.200000X0.800000*%
%TD*%
%TA.AperFunction,SMDPad,CuDef*%
%ADD28RoundRect,0.062500X-0.375000X-0.062500X0.375000X-0.062500X0.375000X0.062500X-0.375000X0.062500X0*%
%TD*%
%TA.AperFunction,SMDPad,CuDef*%
%ADD29RoundRect,0.062500X-0.062500X-0.375000X0.062500X-0.375000X0.062500X0.375000X-0.062500X0.375000X0*%
%TD*%
%TA.AperFunction,SMDPad,CuDef*%
%ADD30R,3.450000X3.450000*%
%TD*%
%TA.AperFunction,SMDPad,CuDef*%
%ADD31RoundRect,0.087500X0.087500X-0.187500X0.087500X0.187500X-0.087500X0.187500X-0.087500X-0.187500X0*%
%TD*%
%TA.AperFunction,SMDPad,CuDef*%
%ADD32RoundRect,0.087500X0.187500X-0.087500X0.187500X0.087500X-0.187500X0.087500X-0.187500X-0.087500X0*%
%TD*%
%TA.AperFunction,SMDPad,CuDef*%
%ADD33RoundRect,0.150000X0.512500X0.150000X-0.512500X0.150000X-0.512500X-0.150000X0.512500X-0.150000X0*%
%TD*%
%TA.AperFunction,SMDPad,CuDef*%
%ADD34RoundRect,0.062500X-0.325000X-0.062500X0.325000X-0.062500X0.325000X0.062500X-0.325000X0.062500X0*%
%TD*%
%TA.AperFunction,SMDPad,CuDef*%
%ADD35R,1.400000X1.400000*%
%TD*%
%TA.AperFunction,ViaPad*%
%ADD36C,0.600000*%
%TD*%
%TA.AperFunction,ViaPad*%
%ADD37C,0.800000*%
%TD*%
%TA.AperFunction,Conductor*%
%ADD38C,0.250000*%
%TD*%
%TA.AperFunction,Conductor*%
%ADD39C,0.500000*%
%TD*%
%TA.AperFunction,Conductor*%
%ADD40C,0.254000*%
%TD*%
G04 APERTURE END LIST*
D10*
%TO.P,C8,1*%
%TO.N,+1V8*%
X68875000Y-8087500D03*
%TO.P,C8,2*%
%TO.N,GND*%
X67325000Y-8087500D03*
%TD*%
D11*
%TO.P,U2,1,VIN*%
%TO.N,/PM_CHG_5V_INPUT*%
X94850000Y-12550000D03*
%TO.P,U2,2,~{PPR}*%
%TO.N,/PM_CHG_PRESENT*%
X94850000Y-13050000D03*
%TO.P,U2,3,~{CHG}*%
%TO.N,/PM_CHG_CHARGING*%
X94850000Y-13550000D03*
%TO.P,U2,4,~{EN}*%
%TO.N,/PM_CHG_5V_INPUT*%
X94850000Y-14050000D03*
%TO.P,U2,5,GND*%
%TO.N,GND*%
X97750000Y-14050000D03*
%TO.P,U2,6,~{FAST}*%
%TO.N,unconnected-(U2-Pad6)*%
X97750000Y-13550000D03*
%TO.P,U2,7,ISET*%
%TO.N,Net-(R3-Pad2)*%
X97750000Y-13050000D03*
%TO.P,U2,8,BAT*%
%TO.N,/VBAT*%
X97750000Y-12550000D03*
D12*
%TO.P,U2,9,EPAD*%
%TO.N,GND*%
X96300000Y-13300000D03*
%TD*%
D13*
%TO.P,C2,1*%
%TO.N,/PM_CHG_5V_INPUT*%
X95200000Y-11150000D03*
%TO.P,C2,2*%
%TO.N,GND*%
X95200000Y-9250000D03*
%TD*%
D10*
%TO.P,C7,1*%
%TO.N,/VBAT*%
X103075000Y-9100000D03*
%TO.P,C7,2*%
%TO.N,GND*%
X101525000Y-9100000D03*
%TD*%
D14*
%TO.P,Q5,1,G*%
%TO.N,/D_EN4*%
X59037500Y-14550000D03*
%TO.P,Q5,2,S*%
%TO.N,GND*%
X59037500Y-12650000D03*
%TO.P,Q5,3,D*%
%TO.N,Net-(Q5-Pad3)*%
X57162500Y-13600000D03*
%TD*%
D15*
%TO.P,L2,1,1*%
%TO.N,/VBAT*%
X88500000Y-12900000D03*
%TO.P,L2,2,2*%
%TO.N,Net-(L2-Pad2)*%
X85700000Y-12900000D03*
%TD*%
D10*
%TO.P,C11,1*%
%TO.N,+1V8*%
X68875000Y-10087500D03*
%TO.P,C11,2*%
%TO.N,GND*%
X67325000Y-10087500D03*
%TD*%
D16*
%TO.P,SW1,1,1*%
%TO.N,/TUBE_BTN*%
X1500000Y-4950000D03*
X1500000Y-10750000D03*
%TO.P,SW1,2,2*%
%TO.N,GND*%
X5500000Y-10750000D03*
X5500000Y-4950000D03*
%TD*%
D17*
%TO.P,R10,1*%
%TO.N,Net-(Q3-Pad3)*%
X32875000Y-11100000D03*
%TO.P,R10,2*%
%TO.N,Net-(D3-Pad1)*%
X34525000Y-11100000D03*
%TD*%
D14*
%TO.P,Q4,1,G*%
%TO.N,/D_EN3*%
X47037500Y-14550000D03*
%TO.P,Q4,2,S*%
%TO.N,GND*%
X47037500Y-12650000D03*
%TO.P,Q4,3,D*%
%TO.N,Net-(Q4-Pad3)*%
X45162500Y-13600000D03*
%TD*%
D18*
%TO.P,R5,1*%
%TO.N,GND*%
X71600000Y-2462500D03*
%TO.P,R5,2*%
%TO.N,Net-(R5-Pad2)*%
X71600000Y-4112500D03*
%TD*%
D14*
%TO.P,Q3,1,G*%
%TO.N,/D_EN2*%
X35037500Y-14550000D03*
%TO.P,Q3,2,S*%
%TO.N,GND*%
X35037500Y-12650000D03*
%TO.P,Q3,3,D*%
%TO.N,Net-(Q3-Pad3)*%
X33162500Y-13600000D03*
%TD*%
D19*
%TO.P,C9,1*%
%TO.N,/TUBE_BTN*%
X2825000Y-2400000D03*
%TO.P,C9,2*%
%TO.N,GND*%
X4375000Y-2400000D03*
%TD*%
D13*
%TO.P,C1,1*%
%TO.N,/VBAT*%
X98200000Y-6250000D03*
%TO.P,C1,2*%
%TO.N,GND*%
X98200000Y-4350000D03*
%TD*%
D20*
%TO.P,R6,1*%
%TO.N,/I2C1_SCL*%
X75300000Y-4025000D03*
%TO.P,R6,2*%
%TO.N,+1V8*%
X75300000Y-2375000D03*
%TD*%
D21*
%TO.P,D3,1,K*%
%TO.N,Net-(D3-Pad1)*%
X34500000Y-9120000D03*
D22*
%TO.P,D3,2,A*%
%TO.N,+5V*%
X34500000Y-6580000D03*
%TD*%
D23*
%TO.P,C4,1*%
%TO.N,+1V8*%
X92050000Y-1400000D03*
%TO.P,C4,2*%
%TO.N,GND*%
X90150000Y-1400000D03*
%TD*%
D20*
%TO.P,R3,1*%
%TO.N,GND*%
X99300000Y-14425000D03*
%TO.P,R3,2*%
%TO.N,Net-(R3-Pad2)*%
X99300000Y-12775000D03*
%TD*%
D19*
%TO.P,C10,1*%
%TO.N,+1V8*%
X78225000Y-13100000D03*
%TO.P,C10,2*%
%TO.N,GND*%
X79775000Y-13100000D03*
%TD*%
D14*
%TO.P,Q1,1,G*%
%TO.N,/D_EN0*%
X11037500Y-14550000D03*
%TO.P,Q1,2,S*%
%TO.N,GND*%
X11037500Y-12650000D03*
%TO.P,Q1,3,D*%
%TO.N,Net-(Q1-Pad3)*%
X9162500Y-13600000D03*
%TD*%
D24*
%TO.P,C5,1*%
%TO.N,+5V*%
X90150000Y-8900000D03*
%TO.P,C5,2*%
%TO.N,GND*%
X92050000Y-8900000D03*
%TD*%
D21*
%TO.P,D4,1,K*%
%TO.N,Net-(D4-Pad1)*%
X46500000Y-9120000D03*
D22*
%TO.P,D4,2,A*%
%TO.N,+5V*%
X46500000Y-6580000D03*
%TD*%
D25*
%TO.P,REF\u002A\u002A,1*%
%TO.N,N/C*%
X40500000Y-7850000D03*
%TD*%
D21*
%TO.P,D5,1,K*%
%TO.N,Net-(D5-Pad1)*%
X58500000Y-9120000D03*
D22*
%TO.P,D5,2,A*%
%TO.N,+5V*%
X58500000Y-6580000D03*
%TD*%
D17*
%TO.P,R8,1*%
%TO.N,Net-(Q1-Pad3)*%
X8875000Y-11100000D03*
%TO.P,R8,2*%
%TO.N,Net-(D1-Pad1)*%
X10525000Y-11100000D03*
%TD*%
%TO.P,R9,1*%
%TO.N,Net-(Q2-Pad3)*%
X20875000Y-11100000D03*
%TO.P,R9,2*%
%TO.N,Net-(D2-Pad1)*%
X22525000Y-11100000D03*
%TD*%
D26*
%TO.P,U5,1,CTG*%
%TO.N,GND*%
X101750000Y-7700000D03*
%TO.P,U5,2,CELL*%
%TO.N,/VBAT*%
X102250000Y-7700000D03*
%TO.P,U5,3,VDD*%
X102750000Y-7700000D03*
%TO.P,U5,4,GND*%
%TO.N,GND*%
X103250000Y-7700000D03*
%TO.P,U5,5,ALRT_L*%
%TO.N,/FUEL_INT*%
X103250000Y-5700000D03*
%TO.P,U5,6,QSTRT*%
%TO.N,GND*%
X102750000Y-5700000D03*
%TO.P,U5,7,SCL*%
%TO.N,/I2C1_SCL*%
X102250000Y-5700000D03*
%TO.P,U5,8,SDA*%
%TO.N,/I2C1_SDA*%
X101750000Y-5700000D03*
D27*
%TO.P,U5,9,GND*%
%TO.N,GND*%
X102500000Y-6700000D03*
%TD*%
D17*
%TO.P,R4,1*%
%TO.N,/TUBE_BTN*%
X2775000Y-13300000D03*
%TO.P,R4,2*%
%TO.N,+1V8*%
X4425000Y-13300000D03*
%TD*%
D28*
%TO.P,U4,1,VDD*%
%TO.N,+1V8*%
X71212500Y-8100000D03*
%TO.P,U4,2,PC14*%
%TO.N,unconnected-(U4-Pad2)*%
X71212500Y-8600000D03*
%TO.P,U4,3,PC15*%
%TO.N,unconnected-(U4-Pad3)*%
X71212500Y-9100000D03*
%TO.P,U4,4,NRST*%
%TO.N,/nRST*%
X71212500Y-9600000D03*
%TO.P,U4,5,VDDA*%
%TO.N,+1V8*%
X71212500Y-10100000D03*
%TO.P,U4,6,PA0*%
%TO.N,unconnected-(U4-Pad6)*%
X71212500Y-10600000D03*
%TO.P,U4,7,PA1*%
%TO.N,/ACC_INT1*%
X71212500Y-11100000D03*
%TO.P,U4,8,PA2*%
%TO.N,/FUEL_INT*%
X71212500Y-11600000D03*
D29*
%TO.P,U4,9,PA3*%
%TO.N,/TUBE_BTN*%
X71900000Y-12287500D03*
%TO.P,U4,10,PA4*%
%TO.N,/D_EN0*%
X72400000Y-12287500D03*
%TO.P,U4,11,PA5*%
%TO.N,/D_EN1*%
X72900000Y-12287500D03*
%TO.P,U4,12,PA6*%
%TO.N,/D_EN2*%
X73400000Y-12287500D03*
%TO.P,U4,13,PA7*%
%TO.N,/D_EN3*%
X73900000Y-12287500D03*
%TO.P,U4,14,PB0*%
%TO.N,unconnected-(U4-Pad14)*%
X74400000Y-12287500D03*
%TO.P,U4,15,PB1*%
%TO.N,/PM5V_EN*%
X74900000Y-12287500D03*
%TO.P,U4,16,PB2*%
%TO.N,unconnected-(U4-Pad16)*%
X75400000Y-12287500D03*
D28*
%TO.P,U4,17,VDD*%
%TO.N,+1V8*%
X76087500Y-11600000D03*
%TO.P,U4,18,PA8*%
%TO.N,/D_EN4*%
X76087500Y-11100000D03*
%TO.P,U4,19,PA9*%
%TO.N,/PM_CHG_PRESENT*%
X76087500Y-10600000D03*
%TO.P,U4,20,PA10*%
%TO.N,/PM_CHG_CHARGING*%
X76087500Y-10100000D03*
%TO.P,U4,21,PA11*%
%TO.N,unconnected-(U4-Pad21)*%
X76087500Y-9600000D03*
%TO.P,U4,22,PA12*%
%TO.N,unconnected-(U4-Pad22)*%
X76087500Y-9100000D03*
%TO.P,U4,23,PA13*%
%TO.N,/SWDIO*%
X76087500Y-8600000D03*
%TO.P,U4,24,PA14*%
%TO.N,/SWCLK*%
X76087500Y-8100000D03*
D29*
%TO.P,U4,25,PA15*%
%TO.N,unconnected-(U4-Pad25)*%
X75400000Y-7412500D03*
%TO.P,U4,26,PB3*%
%TO.N,unconnected-(U4-Pad26)*%
X74900000Y-7412500D03*
%TO.P,U4,27,PB4*%
%TO.N,unconnected-(U4-Pad27)*%
X74400000Y-7412500D03*
%TO.P,U4,28,PB5*%
%TO.N,unconnected-(U4-Pad28)*%
X73900000Y-7412500D03*
%TO.P,U4,29,PB6*%
%TO.N,/I2C1_SCL*%
X73400000Y-7412500D03*
%TO.P,U4,30,PB7*%
%TO.N,/I2C1_SDA*%
X72900000Y-7412500D03*
%TO.P,U4,31,BOOT0*%
%TO.N,Net-(R5-Pad2)*%
X72400000Y-7412500D03*
%TO.P,U4,32,PB8*%
%TO.N,unconnected-(U4-Pad32)*%
X71900000Y-7412500D03*
D30*
%TO.P,U4,33,VSS*%
%TO.N,GND*%
X73650000Y-9850000D03*
%TD*%
D20*
%TO.P,R2,1*%
%TO.N,GND*%
X84100000Y-9825000D03*
%TO.P,R2,2*%
%TO.N,/PM5V_EN*%
X84100000Y-8175000D03*
%TD*%
D24*
%TO.P,C3,1*%
%TO.N,/VBAT*%
X90250000Y-11600000D03*
%TO.P,C3,2*%
%TO.N,GND*%
X92150000Y-11600000D03*
%TD*%
D31*
%TO.P,U6,1,VDD_IO*%
%TO.N,+1V8*%
X66300000Y-4625000D03*
%TO.P,U6,2,NC*%
%TO.N,unconnected-(U6-Pad2)*%
X66800000Y-4625000D03*
%TO.P,U6,3,NC*%
%TO.N,unconnected-(U6-Pad3)*%
X67300000Y-4625000D03*
%TO.P,U6,4,SCL/SPC*%
%TO.N,/I2C1_SCL*%
X67800000Y-4625000D03*
%TO.P,U6,5,GND*%
%TO.N,GND*%
X68300000Y-4625000D03*
D32*
%TO.P,U6,6,SDA/SDI/SDO*%
%TO.N,/I2C1_SDA*%
X68525000Y-3900000D03*
%TO.P,U6,7,SDO/SA0*%
%TO.N,unconnected-(U6-Pad7)*%
X68525000Y-3400000D03*
%TO.P,U6,8,CS*%
%TO.N,+1V8*%
X68525000Y-2900000D03*
D31*
%TO.P,U6,9,INT2*%
%TO.N,unconnected-(U6-Pad9)*%
X68300000Y-2175000D03*
%TO.P,U6,10,GND*%
%TO.N,GND*%
X67800000Y-2175000D03*
%TO.P,U6,11,INT1*%
%TO.N,/ACC_INT1*%
X67300000Y-2175000D03*
%TO.P,U6,12,GND*%
%TO.N,GND*%
X66800000Y-2175000D03*
%TO.P,U6,13,ADC3*%
%TO.N,unconnected-(U6-Pad13)*%
X66300000Y-2175000D03*
D32*
%TO.P,U6,14,VDD*%
%TO.N,+1V8*%
X66075000Y-2900000D03*
%TO.P,U6,15,ADC2*%
%TO.N,unconnected-(U6-Pad15)*%
X66075000Y-3400000D03*
%TO.P,U6,16,ADC1*%
%TO.N,unconnected-(U6-Pad16)*%
X66075000Y-3900000D03*
%TD*%
D21*
%TO.P,D1,1,K*%
%TO.N,Net-(D1-Pad1)*%
X10500000Y-9120000D03*
D22*
%TO.P,D1,2,A*%
%TO.N,+5V*%
X10500000Y-6580000D03*
%TD*%
D13*
%TO.P,C6,1*%
%TO.N,/VBAT*%
X97500000Y-11150000D03*
%TO.P,C6,2*%
%TO.N,GND*%
X97500000Y-9250000D03*
%TD*%
D17*
%TO.P,R11,1*%
%TO.N,Net-(Q4-Pad3)*%
X44875000Y-11100000D03*
%TO.P,R11,2*%
%TO.N,Net-(D4-Pad1)*%
X46525000Y-11100000D03*
%TD*%
D33*
%TO.P,U1,1,Vin*%
%TO.N,/VBAT*%
X96137500Y-6250000D03*
%TO.P,U1,2,GND*%
%TO.N,GND*%
X96137500Y-5300000D03*
%TO.P,U1,3,EN*%
%TO.N,/VBAT*%
X96137500Y-4350000D03*
%TO.P,U1,4,FB*%
%TO.N,+1V8*%
X93862500Y-4350000D03*
%TO.P,U1,5,SW*%
%TO.N,Net-(L1-Pad1)*%
X93862500Y-6250000D03*
%TD*%
D20*
%TO.P,R7,1*%
%TO.N,/I2C1_SDA*%
X73300000Y-4125000D03*
%TO.P,R7,2*%
%TO.N,+1V8*%
X73300000Y-2475000D03*
%TD*%
D34*
%TO.P,U3,1,EN*%
%TO.N,/PM5V_EN*%
X85637500Y-8450000D03*
%TO.P,U3,2,AGND*%
%TO.N,GND*%
X85637500Y-8950000D03*
%TO.P,U3,3,PGND*%
X85637500Y-9450000D03*
%TO.P,U3,4,SW*%
%TO.N,Net-(L2-Pad2)*%
X85637500Y-9950000D03*
%TO.P,U3,5,VIN*%
%TO.N,/VBAT*%
X88562500Y-9950000D03*
%TO.P,U3,6,NC*%
%TO.N,unconnected-(U3-Pad6)*%
X88562500Y-9450000D03*
%TO.P,U3,7,VOUT*%
%TO.N,+5V*%
X88562500Y-8950000D03*
%TO.P,U3,8,NC*%
%TO.N,unconnected-(U3-Pad8)*%
X88562500Y-8450000D03*
D35*
%TO.P,U3,9,GND*%
%TO.N,GND*%
X87100000Y-9200000D03*
%TD*%
D17*
%TO.P,R12,1*%
%TO.N,Net-(Q5-Pad3)*%
X56875000Y-11100000D03*
%TO.P,R12,2*%
%TO.N,Net-(D5-Pad1)*%
X58525000Y-11100000D03*
%TD*%
D10*
%TO.P,C13,1*%
%TO.N,+1V8*%
X63625000Y-3100000D03*
%TO.P,C13,2*%
%TO.N,GND*%
X62075000Y-3100000D03*
%TD*%
D14*
%TO.P,Q2,1,G*%
%TO.N,/D_EN1*%
X23037500Y-14550000D03*
%TO.P,Q2,2,S*%
%TO.N,GND*%
X23037500Y-12650000D03*
%TO.P,Q2,3,D*%
%TO.N,Net-(Q2-Pad3)*%
X21162500Y-13600000D03*
%TD*%
D15*
%TO.P,L1,1,1*%
%TO.N,Net-(L1-Pad1)*%
X91900000Y-4800000D03*
%TO.P,L1,2,2*%
%TO.N,+1V8*%
X89100000Y-4800000D03*
%TD*%
D23*
%TO.P,C12,1*%
%TO.N,+1V8*%
X63600000Y-5000000D03*
%TO.P,C12,2*%
%TO.N,GND*%
X61700000Y-5000000D03*
%TD*%
D21*
%TO.P,D2,1,K*%
%TO.N,Net-(D2-Pad1)*%
X22500000Y-9120000D03*
D22*
%TO.P,D2,2,A*%
%TO.N,+5V*%
X22500000Y-6580000D03*
%TD*%
D36*
%TO.N,GND*%
X87100000Y-1300000D03*
%TO.N,/PM_CHG_5V_INPUT*%
X3600000Y-4200000D03*
X3469106Y-5398936D03*
X3600000Y-7000000D03*
%TO.N,GND*%
X3600000Y-9400000D03*
X3700000Y-10500000D03*
X3600000Y-11600000D03*
X102800000Y-10900000D03*
X101600000Y-11200000D03*
X102200000Y-12100000D03*
X103400000Y-11800000D03*
X103800000Y-10600000D03*
%TO.N,/VBAT*%
X103600000Y-3300000D03*
X104500000Y-4200000D03*
X104600000Y-5500000D03*
%TO.N,GND*%
X99900000Y-4700000D03*
X97500000Y-9300000D03*
X90800000Y-14700000D03*
X87200000Y-9200000D03*
X71600000Y-2400000D03*
X63000000Y-1700000D03*
X68900000Y-1000000D03*
X61900000Y-12400000D03*
X57000000Y-2800000D03*
X57400000Y-4900000D03*
X73700000Y-9800000D03*
X81500000Y-13200000D03*
X96300000Y-13600000D03*
X85700000Y-6300000D03*
X7100000Y-14300000D03*
X5600000Y-1100000D03*
X9100000Y-3500000D03*
X7400000Y-8000000D03*
X7800000Y-12100000D03*
X18800000Y-11700000D03*
X30800000Y-10900000D03*
X43100000Y-10800000D03*
X54900000Y-11900000D03*
X101100000Y-1300000D03*
X96900000Y-2900000D03*
X99400000Y-11400000D03*
X101900000Y-13900000D03*
X104300000Y-14300000D03*
X92700000Y-7600000D03*
X70000000Y-4900000D03*
X74300000Y-6300000D03*
X66000000Y-12200000D03*
X65600000Y-6600000D03*
X65900000Y-9300000D03*
X60400000Y-3600000D03*
%TO.N,+1V8*%
X63700000Y-6600000D03*
X58700000Y-4300000D03*
%TO.N,/PM_CHG_5V_INPUT*%
X84900000Y-2325500D03*
X86700000Y-4100000D03*
%TO.N,/VBAT*%
X99400000Y-7200000D03*
%TO.N,+1V8*%
X78400000Y-4200000D03*
%TO.N,/VBAT*%
X100300000Y-10700000D03*
%TO.N,/PM_CHG_5V_INPUT*%
X94100000Y-10300000D03*
%TO.N,+1V8*%
X77212500Y-12087500D03*
X67800000Y-12175500D03*
%TO.N,+5V*%
X87300000Y-7100000D03*
D37*
%TO.N,/TUBE_BTN*%
X70685558Y-13425500D03*
X1400000Y-13600000D03*
D36*
%TO.N,/SWDIO*%
X79300000Y-8424500D03*
%TO.N,/nRST*%
X70000000Y-8712000D03*
%TO.N,/SWCLK*%
X80600000Y-7800000D03*
D37*
%TO.N,/D_EN0*%
X12800000Y-14500000D03*
X71659025Y-13800000D03*
%TO.N,/D_EN1*%
X72658528Y-13800000D03*
X24800000Y-14600000D03*
%TO.N,/D_EN2*%
X73383028Y-14492374D03*
X36700000Y-14500000D03*
%TO.N,/D_EN3*%
X74300000Y-14000000D03*
X48900000Y-14500000D03*
D36*
%TO.N,/PM5V_EN*%
X76800000Y-14500000D03*
X78900000Y-15000000D03*
%TO.N,/I2C1_SCL*%
X95300000Y-1000000D03*
X68500000Y-6600000D03*
X76800000Y-3100000D03*
X75200000Y-5400000D03*
%TO.N,/I2C1_SDA*%
X94600000Y-1500000D03*
X70212500Y-3387500D03*
%TO.N,/PM_CHG_PRESENT*%
X93600000Y-12400000D03*
X83400000Y-12900000D03*
%TO.N,/PM_CHG_CHARGING*%
X83400000Y-11900000D03*
X93102667Y-13616004D03*
%TO.N,/FUEL_INT*%
X83300000Y-15200000D03*
X69700000Y-13075500D03*
%TD*%
D38*
%TO.N,GND*%
X101750000Y-7700000D02*
X101750000Y-8875000D01*
%TO.N,/VBAT*%
X100300000Y-10700000D02*
X100300000Y-10400000D01*
X100500000Y-10200000D02*
X101975000Y-10200000D01*
X100300000Y-10400000D02*
X100500000Y-10200000D01*
X101975000Y-10200000D02*
X103075000Y-9100000D01*
%TO.N,GND*%
X103500000Y-7700000D02*
X104100000Y-8300000D01*
X103250000Y-7700000D02*
X103500000Y-7700000D01*
X104100000Y-8300000D02*
X104100000Y-10300000D01*
X104100000Y-10300000D02*
X103800000Y-10600000D01*
%TO.N,/TUBE_BTN*%
X1500000Y-10750000D02*
X1500000Y-4950000D01*
%TO.N,/I2C1_SCL*%
X76800000Y-3100000D02*
X75875000Y-4025000D01*
X75875000Y-4025000D02*
X75300000Y-4025000D01*
D39*
%TO.N,/PM_CHG_5V_INPUT*%
X86700000Y-4000000D02*
X86700000Y-4100000D01*
X84900000Y-2325500D02*
X85025500Y-2325500D01*
X85025500Y-2325500D02*
X86700000Y-4000000D01*
%TO.N,+1V8*%
X83850000Y-3250000D02*
X85450000Y-4850000D01*
X83850000Y-3250000D02*
X81150000Y-3250000D01*
X81150000Y-3250000D02*
X78500000Y-600000D01*
X78500000Y-600000D02*
X70800000Y-600000D01*
D38*
%TO.N,GND*%
X103250000Y-7700000D02*
X103250000Y-6950000D01*
X103250000Y-6950000D02*
X103100000Y-6800000D01*
X102750000Y-5700000D02*
X102750000Y-2950000D01*
X102750000Y-2950000D02*
X101100000Y-1300000D01*
X102750000Y-5700000D02*
X102750000Y-6450000D01*
D39*
X96137500Y-5300000D02*
X97250000Y-5300000D01*
X97250000Y-5300000D02*
X98200000Y-4350000D01*
%TO.N,/VBAT*%
X99400000Y-7200000D02*
X99300000Y-7200000D01*
X99300000Y-7200000D02*
X98900000Y-7600000D01*
X98900000Y-7600000D02*
X94300000Y-7600000D01*
X93500000Y-8400000D02*
X93500000Y-9600000D01*
X93500000Y-9600000D02*
X92800000Y-10300000D01*
X94300000Y-7600000D02*
X93500000Y-8400000D01*
X92800000Y-10300000D02*
X91400000Y-10300000D01*
X91400000Y-10300000D02*
X90250000Y-11450000D01*
D38*
%TO.N,GND*%
X97750000Y-14050000D02*
X96750000Y-14050000D01*
X96750000Y-14050000D02*
X96300000Y-13600000D01*
X92150000Y-12150000D02*
X90800000Y-13500000D01*
X90800000Y-13500000D02*
X90800000Y-14700000D01*
X85637500Y-8950000D02*
X86950000Y-8950000D01*
X85637500Y-8950000D02*
X85637500Y-9450000D01*
X85637500Y-9450000D02*
X84475000Y-9450000D01*
X84475000Y-9450000D02*
X84100000Y-9825000D01*
%TO.N,/I2C1_SCL*%
X68500000Y-6600000D02*
X67800000Y-5900000D01*
X67800000Y-5900000D02*
X67800000Y-4625000D01*
%TO.N,GND*%
X68900000Y-1000000D02*
X68616637Y-1000000D01*
X68616637Y-1000000D02*
X67800000Y-1816637D01*
X67800000Y-1816637D02*
X67800000Y-2175000D01*
%TO.N,+1V8*%
X66075000Y-2900000D02*
X66433363Y-2900000D01*
X67566637Y-3500000D02*
X68166637Y-2900000D01*
X68166637Y-2900000D02*
X68525000Y-2900000D01*
X66433363Y-2900000D02*
X67033363Y-3500000D01*
X67033363Y-3500000D02*
X67566637Y-3500000D01*
%TO.N,GND*%
X66800000Y-2175000D02*
X66800000Y-1816637D01*
X66800000Y-1816637D02*
X66235363Y-1252000D01*
X65448000Y-1252000D02*
X65000000Y-1700000D01*
X66235363Y-1252000D02*
X65448000Y-1252000D01*
X68300000Y-4625000D02*
X69725000Y-4625000D01*
X69725000Y-4625000D02*
X70000000Y-4900000D01*
%TO.N,/nRST*%
X70726992Y-9600000D02*
X71212500Y-9600000D01*
X70000000Y-8712000D02*
X70000000Y-8873008D01*
X70000000Y-8873008D02*
X70726992Y-9600000D01*
%TO.N,/ACC_INT1*%
X71212500Y-11100000D02*
X70600000Y-11100000D01*
X68000000Y-13700000D02*
X66100000Y-13700000D01*
X70600000Y-11100000D02*
X68000000Y-13700000D01*
X66100000Y-13700000D02*
X61150000Y-8750000D01*
X61150000Y-8750000D02*
X61150000Y-6750000D01*
%TO.N,+1V8*%
X67800000Y-12175500D02*
X68875000Y-11100500D01*
X68875000Y-11100500D02*
X68875000Y-10087500D01*
%TO.N,/FUEL_INT*%
X69700000Y-13075500D02*
X71175500Y-11600000D01*
%TO.N,/SWDIO*%
X79300000Y-8424500D02*
X79124500Y-8600000D01*
X79124500Y-8600000D02*
X76087500Y-8600000D01*
%TO.N,/SWCLK*%
X80600000Y-7800000D02*
X78036396Y-7800000D01*
X78036396Y-7800000D02*
X77736396Y-8100000D01*
X77736396Y-8100000D02*
X76087500Y-8100000D01*
%TO.N,/PM_CHG_5V_INPUT*%
X94850000Y-14050000D02*
X94124500Y-14775500D01*
X94124500Y-14775500D02*
X93378279Y-14775500D01*
X93378279Y-14775500D02*
X92477667Y-13874888D01*
X92975000Y-12859787D02*
X92975000Y-12141116D01*
X92477667Y-13874888D02*
X92477667Y-13357120D01*
X92477667Y-13357120D02*
X92975000Y-12859787D01*
X92975000Y-12141116D02*
X93966116Y-11150000D01*
X93966116Y-11150000D02*
X95200000Y-11150000D01*
%TO.N,+1V8*%
X78400000Y-4200000D02*
X78400000Y-700000D01*
X78400000Y-700000D02*
X78449500Y-650500D01*
X78449500Y-650500D02*
X76850500Y-650500D01*
X75300000Y-2375000D02*
X75300000Y-650500D01*
X75300000Y-650500D02*
X76850500Y-650500D01*
D40*
X73300000Y-600000D02*
X73300000Y-2475000D01*
D39*
X89050000Y-4850000D02*
X85450000Y-4850000D01*
X70800000Y-600000D02*
X69900000Y-1500000D01*
D40*
%TO.N,/ACC_INT1*%
X59600000Y-2700000D02*
X61500000Y-800000D01*
X66700000Y-800000D02*
X67300000Y-1400000D01*
X61500000Y-800000D02*
X66700000Y-800000D01*
X67300000Y-1400000D02*
X67300000Y-1900000D01*
X59600000Y-5200000D02*
X59600000Y-2700000D01*
X61150000Y-6750000D02*
X59600000Y-5200000D01*
D38*
%TO.N,+1V8*%
X63600000Y-5000000D02*
X63600000Y-6500000D01*
X63600000Y-6500000D02*
X63700000Y-6600000D01*
X8200000Y-10600000D02*
X8200000Y-7147588D01*
X4425000Y-13300000D02*
X5500000Y-13300000D01*
X11347588Y-4000000D02*
X58400000Y-4000000D01*
X5500000Y-13300000D02*
X8200000Y-10600000D01*
X8200000Y-7147588D02*
X11347588Y-4000000D01*
X58400000Y-4000000D02*
X58700000Y-4300000D01*
D39*
%TO.N,/PM_CHG_5V_INPUT*%
X94100000Y-10300000D02*
X94950000Y-11150000D01*
%TO.N,/VBAT*%
X99400000Y-7200000D02*
X99400000Y-7000000D01*
X99400000Y-7000000D02*
X98650000Y-6250000D01*
X99400000Y-9800000D02*
X99400000Y-7200000D01*
D38*
X95753249Y-4350000D02*
X95150000Y-4953249D01*
X95150000Y-4953249D02*
X95150000Y-5750000D01*
X95150000Y-5750000D02*
X95650000Y-6250000D01*
%TO.N,+1V8*%
X93862500Y-4350000D02*
X93862500Y-3212500D01*
X92050000Y-1400000D02*
X93862500Y-3212500D01*
%TO.N,Net-(L1-Pad1)*%
X91900000Y-4800000D02*
X93350000Y-6250000D01*
%TO.N,/VBAT*%
X102250000Y-7700000D02*
X102750000Y-7700000D01*
D39*
%TO.N,+5V*%
X89600000Y-7600000D02*
X90150000Y-8150000D01*
X90150000Y-8150000D02*
X90150000Y-8900000D01*
X87300000Y-7100000D02*
X87800000Y-7600000D01*
X87800000Y-7600000D02*
X89600000Y-7600000D01*
D38*
X88562500Y-8950000D02*
X90100000Y-8950000D01*
%TO.N,/VBAT*%
X89800000Y-11600000D02*
X88500000Y-12900000D01*
X88500000Y-12900000D02*
X88500000Y-10012500D01*
D39*
X97500000Y-11150000D02*
X98050000Y-11150000D01*
X98050000Y-11150000D02*
X99400000Y-9800000D01*
D38*
X97750000Y-12550000D02*
X97750000Y-11400000D01*
X95550000Y-6250000D02*
X96137500Y-6250000D01*
X88500000Y-10012500D02*
X88562500Y-9950000D01*
X98200000Y-6250000D02*
X96137500Y-6250000D01*
X90250000Y-11600000D02*
X89800000Y-11600000D01*
%TO.N,/PM_CHG_5V_INPUT*%
X94850000Y-12550000D02*
X94850000Y-11500000D01*
%TO.N,+1V8*%
X71200000Y-8087500D02*
X71212500Y-8100000D01*
X68875000Y-10087500D02*
X71200000Y-10087500D01*
D40*
X63827000Y-2898000D02*
X66075000Y-2898000D01*
D38*
X66300000Y-5383884D02*
X68875000Y-7958884D01*
X63625000Y-3100000D02*
X63625000Y-4975000D01*
X75300000Y-2375000D02*
X73400000Y-2375000D01*
X78225000Y-13100000D02*
X77212500Y-12087500D01*
X68875000Y-8087500D02*
X68875000Y-10087500D01*
X77212500Y-12087500D02*
X76725000Y-11600000D01*
D40*
X68525000Y-2875000D02*
X69900000Y-1500000D01*
X63975000Y-4625000D02*
X66298000Y-4625000D01*
D38*
X76725000Y-11600000D02*
X76087500Y-11600000D01*
X66300000Y-4625000D02*
X66300000Y-5383884D01*
X71200000Y-10087500D02*
X71212500Y-10100000D01*
X68875000Y-8087500D02*
X71200000Y-8087500D01*
X89100000Y-4800000D02*
X85700000Y-4800000D01*
X92050000Y-1450000D02*
X89100000Y-4400000D01*
%TO.N,/VBAT*%
X102750000Y-7700000D02*
X102750000Y-8775000D01*
X102750000Y-8775000D02*
X103075000Y-9100000D01*
%TO.N,/TUBE_BTN*%
X1500000Y-3725000D02*
X2825000Y-2400000D01*
X70685558Y-13485558D02*
X70685558Y-13425500D01*
X1400000Y-13600000D02*
X2475000Y-13600000D01*
X1500000Y-12025000D02*
X2775000Y-13300000D01*
X2475000Y-13600000D02*
X2775000Y-13300000D01*
X70800000Y-13600000D02*
X70685558Y-13485558D01*
X71900000Y-12500000D02*
X70800000Y-13600000D01*
%TO.N,Net-(D1-Pad1)*%
X10525000Y-11100000D02*
X10525000Y-9145000D01*
%TO.N,Net-(D2-Pad1)*%
X22525000Y-11100000D02*
X22525000Y-9145000D01*
%TO.N,Net-(D3-Pad1)*%
X34500000Y-9120000D02*
X34500000Y-11075000D01*
%TO.N,Net-(D5-Pad1)*%
X58525000Y-11100000D02*
X58525000Y-9145000D01*
%TO.N,Net-(L2-Pad2)*%
X85637500Y-9950000D02*
X85700000Y-10012500D01*
X85700000Y-10012500D02*
X85700000Y-12900000D01*
%TO.N,/D_EN0*%
X71659025Y-13800000D02*
X71659025Y-13774198D01*
X71659025Y-13774198D02*
X72400000Y-13033223D01*
X72400000Y-13033223D02*
X72400000Y-12287500D01*
X12750000Y-14550000D02*
X12800000Y-14500000D01*
X11037500Y-14550000D02*
X12750000Y-14550000D01*
%TO.N,Net-(Q1-Pad3)*%
X9162500Y-11387500D02*
X8875000Y-11100000D01*
X9162500Y-13600000D02*
X9162500Y-11387500D01*
%TO.N,/D_EN1*%
X24750000Y-14550000D02*
X24800000Y-14600000D01*
X72658528Y-13800000D02*
X72900000Y-13558528D01*
X23037500Y-14550000D02*
X24750000Y-14550000D01*
X72900000Y-13558528D02*
X72900000Y-12287500D01*
%TO.N,Net-(Q2-Pad3)*%
X20875000Y-13312500D02*
X21162500Y-13600000D01*
X20875000Y-11100000D02*
X20875000Y-13312500D01*
%TO.N,/D_EN2*%
X73383028Y-14492374D02*
X73383028Y-13217167D01*
X73400000Y-13200195D02*
X73400000Y-12287500D01*
X36650000Y-14550000D02*
X36700000Y-14500000D01*
X35037500Y-14550000D02*
X36650000Y-14550000D01*
X73383028Y-13217167D02*
X73400000Y-13200195D01*
%TO.N,Net-(Q3-Pad3)*%
X33162500Y-11387500D02*
X32875000Y-11100000D01*
X33162500Y-13600000D02*
X33162500Y-11387500D01*
%TO.N,/D_EN3*%
X74300000Y-14000000D02*
X73900000Y-13600000D01*
X73900000Y-13600000D02*
X73900000Y-12287500D01*
X48850000Y-14550000D02*
X48900000Y-14500000D01*
X47037500Y-14550000D02*
X48850000Y-14550000D01*
%TO.N,/D_EN4*%
X79000000Y-13577817D02*
X79000000Y-12600000D01*
X77500000Y-11100000D02*
X76087500Y-11100000D01*
X59037500Y-14550000D02*
X59887500Y-15400000D01*
X59887500Y-15400000D02*
X77177817Y-15400000D01*
X79000000Y-12600000D02*
X77500000Y-11100000D01*
X77177817Y-15400000D02*
X79000000Y-13577817D01*
%TO.N,Net-(Q5-Pad3)*%
X57162500Y-11387500D02*
X57162500Y-13600000D01*
X56875000Y-11100000D02*
X57162500Y-11387500D01*
%TO.N,/PM5V_EN*%
X74900000Y-12773008D02*
X74900000Y-12287500D01*
X84200000Y-11500000D02*
X84200000Y-13400000D01*
X85637500Y-8450000D02*
X84375000Y-8450000D01*
X84100000Y-8175000D02*
X83300000Y-8975000D01*
X76626992Y-14500000D02*
X74900000Y-12773008D01*
X76800000Y-14500000D02*
X76626992Y-14500000D01*
X84375000Y-8450000D02*
X84100000Y-8175000D01*
X82600000Y-15000000D02*
X84200000Y-13400000D01*
X83300000Y-8975000D02*
X83300000Y-10600000D01*
X83300000Y-10600000D02*
X84200000Y-11500000D01*
X82600000Y-15000000D02*
X78900000Y-15000000D01*
%TO.N,Net-(R3-Pad2)*%
X99200000Y-13050000D02*
X97750000Y-13050000D01*
%TO.N,Net-(R5-Pad2)*%
X72400000Y-4912500D02*
X71600000Y-4112500D01*
X72400000Y-7412500D02*
X72400000Y-4912500D01*
%TO.N,/I2C1_SCL*%
X102250000Y-5700000D02*
X102250000Y-4725431D01*
X95550000Y-1250000D02*
X95300000Y-1000000D01*
X75300000Y-4025000D02*
X75300000Y-5300000D01*
X75300000Y-5300000D02*
X75200000Y-5400000D01*
X98774569Y-1250000D02*
X95550000Y-1250000D01*
X73400000Y-5925000D02*
X75300000Y-4025000D01*
X73400000Y-5925000D02*
X73400000Y-7412500D01*
X102250000Y-4725431D02*
X98774569Y-1250000D01*
%TO.N,/I2C1_SDA*%
X73300000Y-4900000D02*
X72900000Y-5300000D01*
X68883363Y-3900000D02*
X68525000Y-3900000D01*
X73300000Y-4125000D02*
X73300000Y-4900000D01*
X70212500Y-3387500D02*
X69395863Y-3387500D01*
X94800000Y-1700000D02*
X98588173Y-1700000D01*
X72900000Y-5300000D02*
X72900000Y-7412500D01*
X101750000Y-5700000D02*
X101750000Y-4861827D01*
X69395863Y-3387500D02*
X68883363Y-3900000D01*
X101750000Y-4861827D02*
X98588173Y-1700000D01*
X73300000Y-4125000D02*
X72562500Y-3387500D01*
X94800000Y-1700000D02*
X94600000Y-1500000D01*
X72562500Y-3387500D02*
X70212500Y-3387500D01*
%TO.N,/PM_CHG_PRESENT*%
X93600000Y-12400000D02*
X93600000Y-12500000D01*
X77800000Y-10600000D02*
X76087500Y-10600000D01*
X93600000Y-12500000D02*
X94150000Y-13050000D01*
X94150000Y-13050000D02*
X94850000Y-13050000D01*
X83400000Y-12900000D02*
X81600000Y-11100000D01*
X81600000Y-11100000D02*
X78300000Y-11100000D01*
X78300000Y-11100000D02*
X77800000Y-10600000D01*
%TO.N,/PM_CHG_CHARGING*%
X81725000Y-10225000D02*
X78341116Y-10225000D01*
X78341116Y-10225000D02*
X78216116Y-10100000D01*
X93168671Y-13550000D02*
X93102667Y-13616004D01*
X83400000Y-11900000D02*
X81725000Y-10225000D01*
X94850000Y-13550000D02*
X93168671Y-13550000D01*
X78216116Y-10100000D02*
X76087500Y-10100000D01*
%TO.N,/FUEL_INT*%
X83500000Y-15400000D02*
X101600000Y-15400000D01*
X83300000Y-15200000D02*
X83500000Y-15400000D01*
X101600000Y-15400000D02*
X105000000Y-12000000D01*
X105000000Y-12000000D02*
X105000000Y-7450000D01*
X105000000Y-7450000D02*
X103250000Y-5700000D01*
%TD*%
%TA.AperFunction,Conductor*%
%TO.N,GND*%
G36*
X57953834Y-4653502D02*
G01*
X57993489Y-4694229D01*
X58029010Y-4752881D01*
X58055380Y-4796424D01*
X58060269Y-4801487D01*
X58060270Y-4801488D01*
X58116153Y-4859356D01*
X58181382Y-4926902D01*
X58187276Y-4930759D01*
X58193057Y-4934542D01*
X58248935Y-4971108D01*
X58294983Y-5025144D01*
X58304507Y-5095498D01*
X58274483Y-5159834D01*
X58214442Y-5197724D01*
X58199002Y-5201089D01*
X58188471Y-5202701D01*
X58172464Y-5205150D01*
X57952314Y-5277106D01*
X57947726Y-5279494D01*
X57947722Y-5279496D01*
X57763185Y-5375560D01*
X57746872Y-5384052D01*
X57742739Y-5387155D01*
X57742736Y-5387157D01*
X57603923Y-5491381D01*
X57561655Y-5523117D01*
X57527027Y-5559353D01*
X57421459Y-5669824D01*
X57401639Y-5690564D01*
X57398725Y-5694836D01*
X57398724Y-5694837D01*
X57368009Y-5739864D01*
X57271119Y-5881899D01*
X57173602Y-6091981D01*
X57111707Y-6315169D01*
X57087095Y-6545469D01*
X57087392Y-6550622D01*
X57087392Y-6550625D01*
X57099552Y-6761521D01*
X57100427Y-6776697D01*
X57101564Y-6781743D01*
X57101565Y-6781749D01*
X57125577Y-6888297D01*
X57151346Y-7002642D01*
X57153288Y-7007424D01*
X57153289Y-7007428D01*
X57235107Y-7208920D01*
X57238484Y-7217237D01*
X57288769Y-7299294D01*
X57353159Y-7404369D01*
X57359501Y-7414719D01*
X57363599Y-7419450D01*
X57471304Y-7543788D01*
X57500786Y-7608373D01*
X57490671Y-7678646D01*
X57444170Y-7732294D01*
X57420296Y-7744267D01*
X57376817Y-7760567D01*
X57353295Y-7769385D01*
X57236739Y-7856739D01*
X57149385Y-7973295D01*
X57098255Y-8109684D01*
X57091500Y-8171866D01*
X57091500Y-9990500D01*
X57071498Y-10058621D01*
X57017842Y-10105114D01*
X56965500Y-10116500D01*
X56628648Y-10116501D01*
X56618366Y-10116501D01*
X56615508Y-10116764D01*
X56615499Y-10116764D01*
X56579996Y-10120026D01*
X56544938Y-10123247D01*
X56538560Y-10125246D01*
X56538559Y-10125246D01*
X56388550Y-10172256D01*
X56388548Y-10172257D01*
X56381301Y-10174528D01*
X56234619Y-10263361D01*
X56113361Y-10384619D01*
X56024528Y-10531301D01*
X55973247Y-10694938D01*
X55966500Y-10768365D01*
X55966501Y-11431634D01*
X55966764Y-11434492D01*
X55966764Y-11434501D01*
X55970026Y-11470004D01*
X55973247Y-11505062D01*
X55975246Y-11511440D01*
X55975246Y-11511441D01*
X56016697Y-11643709D01*
X56024528Y-11668699D01*
X56113361Y-11815381D01*
X56234619Y-11936639D01*
X56381301Y-12025472D01*
X56388548Y-12027743D01*
X56388550Y-12027744D01*
X56440679Y-12044080D01*
X56499701Y-12083537D01*
X56528021Y-12148641D01*
X56529000Y-12164314D01*
X56529000Y-12683033D01*
X56508998Y-12751154D01*
X56455342Y-12797647D01*
X56438152Y-12804030D01*
X56319014Y-12838642D01*
X56319009Y-12838644D01*
X56311399Y-12840855D01*
X56285513Y-12856164D01*
X56175020Y-12921509D01*
X56175017Y-12921511D01*
X56168193Y-12925547D01*
X56050547Y-13043193D01*
X56046511Y-13050017D01*
X56046509Y-13050020D01*
X56010182Y-13111446D01*
X55965855Y-13186399D01*
X55963644Y-13194010D01*
X55963643Y-13194012D01*
X55961140Y-13202627D01*
X55919438Y-13346169D01*
X55918934Y-13352574D01*
X55918933Y-13352579D01*
X55917396Y-13372115D01*
X55916500Y-13383498D01*
X55916500Y-13816502D01*
X55916693Y-13818950D01*
X55916693Y-13818958D01*
X55918394Y-13840565D01*
X55919438Y-13853831D01*
X55944111Y-13938757D01*
X55961904Y-14000000D01*
X55965855Y-14013601D01*
X55970087Y-14020757D01*
X56046509Y-14149980D01*
X56046511Y-14149983D01*
X56050547Y-14156807D01*
X56168193Y-14274453D01*
X56175017Y-14278489D01*
X56175020Y-14278491D01*
X56268881Y-14334000D01*
X56311399Y-14359145D01*
X56319010Y-14361356D01*
X56319012Y-14361357D01*
X56336715Y-14366500D01*
X56471169Y-14405562D01*
X56477574Y-14406066D01*
X56477579Y-14406067D01*
X56506042Y-14408307D01*
X56506050Y-14408307D01*
X56508498Y-14408500D01*
X57665500Y-14408500D01*
X57733621Y-14428502D01*
X57780114Y-14482158D01*
X57791500Y-14534500D01*
X57791500Y-14766502D01*
X57791693Y-14768950D01*
X57791693Y-14768958D01*
X57793838Y-14796206D01*
X57794438Y-14803831D01*
X57823472Y-14903769D01*
X57828218Y-14920102D01*
X57840855Y-14963601D01*
X57863188Y-15001363D01*
X57880646Y-15070178D01*
X57858129Y-15137509D01*
X57802784Y-15181978D01*
X57754733Y-15191500D01*
X49768045Y-15191500D01*
X49699924Y-15171498D01*
X49653431Y-15117842D01*
X49643327Y-15047568D01*
X49658926Y-15002500D01*
X49670192Y-14982988D01*
X49734527Y-14871556D01*
X49793542Y-14689928D01*
X49809317Y-14539842D01*
X49812814Y-14506565D01*
X49813504Y-14500000D01*
X49803867Y-14408307D01*
X49794232Y-14316634D01*
X49794231Y-14316631D01*
X49793542Y-14310072D01*
X49734527Y-14128444D01*
X49708101Y-14082672D01*
X49697314Y-14063990D01*
X49639040Y-13963056D01*
X49614411Y-13935702D01*
X49515675Y-13826045D01*
X49515671Y-13826041D01*
X49511253Y-13821134D01*
X49375655Y-13722616D01*
X49362094Y-13712763D01*
X49362093Y-13712762D01*
X49356752Y-13708882D01*
X49350724Y-13706198D01*
X49350722Y-13706197D01*
X49188319Y-13633891D01*
X49188318Y-13633891D01*
X49182288Y-13631206D01*
X49073852Y-13608157D01*
X49001944Y-13592872D01*
X49001939Y-13592872D01*
X48995487Y-13591500D01*
X48804513Y-13591500D01*
X48798061Y-13592872D01*
X48798056Y-13592872D01*
X48726148Y-13608157D01*
X48617712Y-13631206D01*
X48611682Y-13633891D01*
X48611681Y-13633891D01*
X48449278Y-13706197D01*
X48449276Y-13706198D01*
X48443248Y-13708882D01*
X48437907Y-13712762D01*
X48437906Y-13712763D01*
X48424345Y-13722616D01*
X48288747Y-13821134D01*
X48284329Y-13826041D01*
X48284325Y-13826045D01*
X48283422Y-13827048D01*
X48244155Y-13870659D01*
X48240417Y-13874810D01*
X48179971Y-13912050D01*
X48146781Y-13916500D01*
X48124950Y-13916500D01*
X48056829Y-13896498D01*
X48043729Y-13885941D01*
X48043675Y-13886011D01*
X48037415Y-13881155D01*
X48031807Y-13875547D01*
X48024983Y-13871511D01*
X48024980Y-13871509D01*
X47912859Y-13805201D01*
X47888601Y-13790855D01*
X47880990Y-13788644D01*
X47880988Y-13788643D01*
X47812435Y-13768727D01*
X47728831Y-13744438D01*
X47722426Y-13743934D01*
X47722421Y-13743933D01*
X47693958Y-13741693D01*
X47693950Y-13741693D01*
X47691502Y-13741500D01*
X46534500Y-13741500D01*
X46466379Y-13721498D01*
X46419886Y-13667842D01*
X46408500Y-13615500D01*
X46408500Y-13584000D01*
X46428502Y-13515879D01*
X46482158Y-13469386D01*
X46534500Y-13458000D01*
X46765385Y-13458000D01*
X46780624Y-13453525D01*
X46781829Y-13452135D01*
X46783500Y-13444452D01*
X46783500Y-13439884D01*
X47291500Y-13439884D01*
X47295975Y-13455123D01*
X47297365Y-13456328D01*
X47305048Y-13457999D01*
X47688984Y-13457999D01*
X47693920Y-13457805D01*
X47722336Y-13455570D01*
X47734931Y-13453270D01*
X47880790Y-13410893D01*
X47895221Y-13404648D01*
X48024678Y-13328089D01*
X48037104Y-13318449D01*
X48143449Y-13212104D01*
X48153089Y-13199678D01*
X48229648Y-13070221D01*
X48235893Y-13055790D01*
X48274939Y-12921395D01*
X48274899Y-12907294D01*
X48267630Y-12904000D01*
X47309615Y-12904000D01*
X47294376Y-12908475D01*
X47293171Y-12909865D01*
X47291500Y-12917548D01*
X47291500Y-13439884D01*
X46783500Y-13439884D01*
X46783500Y-12922115D01*
X46779025Y-12906876D01*
X46777635Y-12905671D01*
X46769952Y-12904000D01*
X46154842Y-12904000D01*
X46090703Y-12886453D01*
X46039487Y-12856164D01*
X46013601Y-12840855D01*
X46005990Y-12838644D01*
X46005988Y-12838643D01*
X45951444Y-12822797D01*
X45853831Y-12794438D01*
X45847426Y-12793934D01*
X45847421Y-12793933D01*
X45818958Y-12791693D01*
X45818950Y-12791693D01*
X45816502Y-12791500D01*
X44508498Y-12791500D01*
X44506050Y-12791693D01*
X44506042Y-12791693D01*
X44477579Y-12793933D01*
X44477574Y-12793934D01*
X44471169Y-12794438D01*
X44373556Y-12822797D01*
X44319012Y-12838643D01*
X44319010Y-12838644D01*
X44311399Y-12840855D01*
X44285513Y-12856164D01*
X44175020Y-12921509D01*
X44175017Y-12921511D01*
X44168193Y-12925547D01*
X44050547Y-13043193D01*
X44046511Y-13050017D01*
X44046509Y-13050020D01*
X44010182Y-13111446D01*
X43965855Y-13186399D01*
X43963644Y-13194010D01*
X43963643Y-13194012D01*
X43961140Y-13202627D01*
X43919438Y-13346169D01*
X43918934Y-13352574D01*
X43918933Y-13352579D01*
X43917396Y-13372115D01*
X43916500Y-13383498D01*
X43916500Y-13816502D01*
X43916693Y-13818950D01*
X43916693Y-13818958D01*
X43918394Y-13840565D01*
X43919438Y-13853831D01*
X43944111Y-13938757D01*
X43961904Y-14000000D01*
X43965855Y-14013601D01*
X43970087Y-14020757D01*
X44046509Y-14149980D01*
X44046511Y-14149983D01*
X44050547Y-14156807D01*
X44168193Y-14274453D01*
X44175017Y-14278489D01*
X44175020Y-14278491D01*
X44268881Y-14334000D01*
X44311399Y-14359145D01*
X44319010Y-14361356D01*
X44319012Y-14361357D01*
X44336715Y-14366500D01*
X44471169Y-14405562D01*
X44477574Y-14406066D01*
X44477579Y-14406067D01*
X44506042Y-14408307D01*
X44506050Y-14408307D01*
X44508498Y-14408500D01*
X45665500Y-14408500D01*
X45733621Y-14428502D01*
X45780114Y-14482158D01*
X45791500Y-14534500D01*
X45791500Y-14766502D01*
X45791693Y-14768950D01*
X45791693Y-14768958D01*
X45793838Y-14796206D01*
X45794438Y-14803831D01*
X45823472Y-14903769D01*
X45828218Y-14920102D01*
X45840855Y-14963601D01*
X45863188Y-15001363D01*
X45880646Y-15070178D01*
X45858129Y-15137509D01*
X45802784Y-15181978D01*
X45754733Y-15191500D01*
X37568045Y-15191500D01*
X37499924Y-15171498D01*
X37453431Y-15117842D01*
X37443327Y-15047568D01*
X37458926Y-15002500D01*
X37470192Y-14982988D01*
X37534527Y-14871556D01*
X37593542Y-14689928D01*
X37609317Y-14539842D01*
X37612814Y-14506565D01*
X37613504Y-14500000D01*
X37603867Y-14408307D01*
X37594232Y-14316634D01*
X37594231Y-14316631D01*
X37593542Y-14310072D01*
X37534527Y-14128444D01*
X37508101Y-14082672D01*
X37497314Y-14063990D01*
X37439040Y-13963056D01*
X37414411Y-13935702D01*
X37315675Y-13826045D01*
X37315671Y-13826041D01*
X37311253Y-13821134D01*
X37175655Y-13722616D01*
X37162094Y-13712763D01*
X37162093Y-13712762D01*
X37156752Y-13708882D01*
X37150724Y-13706198D01*
X37150722Y-13706197D01*
X36988319Y-13633891D01*
X36988318Y-13633891D01*
X36982288Y-13631206D01*
X36873852Y-13608157D01*
X36801944Y-13592872D01*
X36801939Y-13592872D01*
X36795487Y-13591500D01*
X36604513Y-13591500D01*
X36598061Y-13592872D01*
X36598056Y-13592872D01*
X36526148Y-13608157D01*
X36417712Y-13631206D01*
X36411682Y-13633891D01*
X36411681Y-13633891D01*
X36249278Y-13706197D01*
X36249276Y-13706198D01*
X36243248Y-13708882D01*
X36237907Y-13712762D01*
X36237906Y-13712763D01*
X36088869Y-13821045D01*
X36022001Y-13844904D01*
X35950669Y-13827562D01*
X35912859Y-13805201D01*
X35888601Y-13790855D01*
X35880990Y-13788644D01*
X35880988Y-13788643D01*
X35812435Y-13768727D01*
X35728831Y-13744438D01*
X35722426Y-13743934D01*
X35722421Y-13743933D01*
X35693958Y-13741693D01*
X35693950Y-13741693D01*
X35691502Y-13741500D01*
X34534500Y-13741500D01*
X34466379Y-13721498D01*
X34419886Y-13667842D01*
X34408500Y-13615500D01*
X34408500Y-13584000D01*
X34428502Y-13515879D01*
X34482158Y-13469386D01*
X34534500Y-13458000D01*
X34765385Y-13458000D01*
X34780624Y-13453525D01*
X34781829Y-13452135D01*
X34783500Y-13444452D01*
X34783500Y-13439884D01*
X35291500Y-13439884D01*
X35295975Y-13455123D01*
X35297365Y-13456328D01*
X35305048Y-13457999D01*
X35688984Y-13457999D01*
X35693920Y-13457805D01*
X35722336Y-13455570D01*
X35734931Y-13453270D01*
X35880790Y-13410893D01*
X35895221Y-13404648D01*
X36024678Y-13328089D01*
X36037104Y-13318449D01*
X36143449Y-13212104D01*
X36153089Y-13199678D01*
X36229648Y-13070221D01*
X36235893Y-13055790D01*
X36274939Y-12921395D01*
X36274899Y-12907294D01*
X36267630Y-12904000D01*
X35309615Y-12904000D01*
X35294376Y-12908475D01*
X35293171Y-12909865D01*
X35291500Y-12917548D01*
X35291500Y-13439884D01*
X34783500Y-13439884D01*
X34783500Y-12522000D01*
X34803502Y-12453879D01*
X34857158Y-12407386D01*
X34909500Y-12396000D01*
X36261878Y-12396000D01*
X36275409Y-12392027D01*
X36276544Y-12384129D01*
X36235893Y-12244210D01*
X36229648Y-12229779D01*
X36153089Y-12100322D01*
X36143449Y-12087896D01*
X36037104Y-11981551D01*
X36024678Y-11971911D01*
X35895221Y-11895352D01*
X35880790Y-11889107D01*
X35734935Y-11846731D01*
X35722333Y-11844430D01*
X35693916Y-11842193D01*
X35688986Y-11842000D01*
X35491362Y-11842000D01*
X35423241Y-11821998D01*
X35376748Y-11768342D01*
X35366644Y-11698068D01*
X35374946Y-11669567D01*
X35375472Y-11668699D01*
X35383304Y-11643709D01*
X35411147Y-11554861D01*
X35426753Y-11505062D01*
X35433500Y-11431635D01*
X35433499Y-10768366D01*
X35433499Y-10768365D01*
X43966500Y-10768365D01*
X43966501Y-11431634D01*
X43966764Y-11434492D01*
X43966764Y-11434501D01*
X43970026Y-11470004D01*
X43973247Y-11505062D01*
X43975246Y-11511440D01*
X43975246Y-11511441D01*
X44016697Y-11643709D01*
X44024528Y-11668699D01*
X44113361Y-11815381D01*
X44234619Y-11936639D01*
X44381301Y-12025472D01*
X44388548Y-12027743D01*
X44388550Y-12027744D01*
X44440679Y-12044080D01*
X44544938Y-12076753D01*
X44618365Y-12083500D01*
X44621263Y-12083500D01*
X44875665Y-12083499D01*
X45131634Y-12083499D01*
X45134492Y-12083236D01*
X45134501Y-12083236D01*
X45170004Y-12079974D01*
X45205062Y-12076753D01*
X45221001Y-12071758D01*
X45361450Y-12027744D01*
X45361452Y-12027743D01*
X45368699Y-12025472D01*
X45515381Y-11936639D01*
X45610905Y-11841115D01*
X45673217Y-11807089D01*
X45744032Y-11812154D01*
X45789095Y-11841115D01*
X45884619Y-11936639D01*
X45890055Y-11939931D01*
X45931010Y-11997275D01*
X45934488Y-12068186D01*
X45920452Y-12102791D01*
X45845352Y-12229779D01*
X45839107Y-12244210D01*
X45800061Y-12378605D01*
X45800101Y-12392706D01*
X45807370Y-12396000D01*
X48261878Y-12396000D01*
X48275409Y-12392027D01*
X48276544Y-12384129D01*
X48235893Y-12244210D01*
X48229648Y-12229779D01*
X48153089Y-12100322D01*
X48143449Y-12087896D01*
X48037104Y-11981551D01*
X48024678Y-11971911D01*
X47895221Y-11895352D01*
X47880790Y-11889107D01*
X47734935Y-11846731D01*
X47722333Y-11844430D01*
X47693916Y-11842193D01*
X47688986Y-11842000D01*
X47491362Y-11842000D01*
X47423241Y-11821998D01*
X47376748Y-11768342D01*
X47366644Y-11698068D01*
X47374946Y-11669567D01*
X47375472Y-11668699D01*
X47383304Y-11643709D01*
X47411147Y-11554861D01*
X47426753Y-11505062D01*
X47433500Y-11431635D01*
X47433499Y-10768366D01*
X47433234Y-10765474D01*
X47427364Y-10701592D01*
X47426753Y-10694938D01*
X47422163Y-10680291D01*
X47420880Y-10609308D01*
X47458178Y-10548898D01*
X47509899Y-10521790D01*
X47510316Y-10521745D01*
X47646705Y-10470615D01*
X47763261Y-10383261D01*
X47850615Y-10266705D01*
X47901745Y-10130316D01*
X47908500Y-10068134D01*
X47908500Y-8171866D01*
X47901745Y-8109684D01*
X47850615Y-7973295D01*
X47763261Y-7856739D01*
X47660512Y-7779733D01*
X50487822Y-7779733D01*
X50487975Y-7784121D01*
X50487975Y-7784127D01*
X50496671Y-8033131D01*
X50497625Y-8060458D01*
X50498387Y-8064781D01*
X50498388Y-8064788D01*
X50522164Y-8199624D01*
X50546402Y-8337087D01*
X50633203Y-8604235D01*
X50635131Y-8608188D01*
X50635133Y-8608193D01*
X50687183Y-8714909D01*
X50756340Y-8856702D01*
X50758795Y-8860341D01*
X50758798Y-8860347D01*
X50817572Y-8947482D01*
X50913415Y-9089576D01*
X50916360Y-9092847D01*
X50916361Y-9092848D01*
X50981730Y-9165447D01*
X51101371Y-9298322D01*
X51104733Y-9301143D01*
X51104734Y-9301144D01*
X51123035Y-9316500D01*
X51316550Y-9478879D01*
X51554764Y-9627731D01*
X51672705Y-9680242D01*
X51803959Y-9738680D01*
X51811375Y-9741982D01*
X51867380Y-9758041D01*
X52067364Y-9815385D01*
X52081390Y-9819407D01*
X52085740Y-9820018D01*
X52085743Y-9820019D01*
X52161203Y-9830624D01*
X52359552Y-9858500D01*
X52570146Y-9858500D01*
X52572332Y-9858347D01*
X52572336Y-9858347D01*
X52775827Y-9844118D01*
X52775832Y-9844117D01*
X52780212Y-9843811D01*
X53054970Y-9785409D01*
X53059099Y-9783906D01*
X53059103Y-9783905D01*
X53314781Y-9690846D01*
X53314785Y-9690844D01*
X53318926Y-9689337D01*
X53566942Y-9557464D01*
X53570503Y-9554877D01*
X53790629Y-9394947D01*
X53790632Y-9394944D01*
X53794192Y-9392358D01*
X53798251Y-9388439D01*
X53904516Y-9285819D01*
X53996252Y-9197231D01*
X54142206Y-9010417D01*
X54166481Y-8979347D01*
X54166482Y-8979346D01*
X54169188Y-8975882D01*
X54171384Y-8972078D01*
X54171389Y-8972071D01*
X54307435Y-8736431D01*
X54309636Y-8732619D01*
X54414862Y-8472176D01*
X54439064Y-8375108D01*
X54481753Y-8203893D01*
X54481754Y-8203888D01*
X54482817Y-8199624D01*
X54484181Y-8186653D01*
X54511719Y-7924636D01*
X54511719Y-7924633D01*
X54512178Y-7920267D01*
X54512011Y-7915474D01*
X54502529Y-7643939D01*
X54502528Y-7643933D01*
X54502375Y-7639542D01*
X54501593Y-7635103D01*
X54466815Y-7437871D01*
X54453598Y-7362913D01*
X54366797Y-7095765D01*
X54358378Y-7078502D01*
X54291446Y-6941273D01*
X54243660Y-6843298D01*
X54241205Y-6839659D01*
X54241202Y-6839653D01*
X54155949Y-6713261D01*
X54086585Y-6610424D01*
X54077233Y-6600037D01*
X53966219Y-6476744D01*
X53898629Y-6401678D01*
X53894406Y-6398134D01*
X53783476Y-6305053D01*
X53683450Y-6221121D01*
X53445236Y-6072269D01*
X53265376Y-5992190D01*
X53192639Y-5959805D01*
X53192637Y-5959804D01*
X53188625Y-5958018D01*
X52991480Y-5901488D01*
X52922837Y-5881805D01*
X52922836Y-5881805D01*
X52918610Y-5880593D01*
X52914260Y-5879982D01*
X52914257Y-5879981D01*
X52811310Y-5865513D01*
X52640448Y-5841500D01*
X52429854Y-5841500D01*
X52427668Y-5841653D01*
X52427664Y-5841653D01*
X52224173Y-5855882D01*
X52224168Y-5855883D01*
X52219788Y-5856189D01*
X51945030Y-5914591D01*
X51940901Y-5916094D01*
X51940897Y-5916095D01*
X51685219Y-6009154D01*
X51685215Y-6009156D01*
X51681074Y-6010663D01*
X51433058Y-6142536D01*
X51429499Y-6145122D01*
X51429497Y-6145123D01*
X51223941Y-6294468D01*
X51205808Y-6307642D01*
X51202644Y-6310698D01*
X51202641Y-6310700D01*
X51124190Y-6386460D01*
X51003748Y-6502769D01*
X50894829Y-6642180D01*
X50843177Y-6708292D01*
X50830812Y-6724118D01*
X50828616Y-6727922D01*
X50828611Y-6727929D01*
X50744541Y-6873544D01*
X50690364Y-6967381D01*
X50585138Y-7227824D01*
X50584073Y-7232097D01*
X50584072Y-7232099D01*
X50518273Y-7496005D01*
X50517183Y-7500376D01*
X50516724Y-7504744D01*
X50516723Y-7504749D01*
X50488281Y-7775364D01*
X50487822Y-7779733D01*
X47660512Y-7779733D01*
X47646705Y-7769385D01*
X47638296Y-7766233D01*
X47638295Y-7766232D01*
X47579804Y-7744305D01*
X47523039Y-7701664D01*
X47498339Y-7635103D01*
X47513546Y-7565754D01*
X47535093Y-7537073D01*
X47572636Y-7499660D01*
X47572640Y-7499655D01*
X47576303Y-7496005D01*
X47587703Y-7480141D01*
X47614669Y-7442613D01*
X47711458Y-7307917D01*
X47714844Y-7301067D01*
X47811784Y-7104922D01*
X47811785Y-7104920D01*
X47814078Y-7100280D01*
X47881408Y-6878671D01*
X47911640Y-6649041D01*
X47912099Y-6630258D01*
X47913245Y-6583365D01*
X47913245Y-6583361D01*
X47913327Y-6580000D01*
X47905204Y-6481197D01*
X47894773Y-6354318D01*
X47894772Y-6354312D01*
X47894349Y-6349167D01*
X47860096Y-6212800D01*
X47839184Y-6129544D01*
X47839183Y-6129540D01*
X47837925Y-6124533D01*
X47827242Y-6099964D01*
X47747630Y-5916868D01*
X47747628Y-5916865D01*
X47745570Y-5912131D01*
X47619764Y-5717665D01*
X47583513Y-5677825D01*
X47535291Y-5624830D01*
X47463887Y-5546358D01*
X47459836Y-5543159D01*
X47459832Y-5543155D01*
X47286177Y-5406011D01*
X47286172Y-5406008D01*
X47282123Y-5402810D01*
X47277607Y-5400317D01*
X47277604Y-5400315D01*
X47083879Y-5293373D01*
X47083875Y-5293371D01*
X47079355Y-5290876D01*
X47074486Y-5289152D01*
X47074482Y-5289150D01*
X46865903Y-5215288D01*
X46865899Y-5215287D01*
X46861028Y-5213562D01*
X46855935Y-5212655D01*
X46855932Y-5212654D01*
X46638095Y-5173851D01*
X46638089Y-5173850D01*
X46633006Y-5172945D01*
X46560096Y-5172054D01*
X46406581Y-5170179D01*
X46406579Y-5170179D01*
X46401411Y-5170116D01*
X46172464Y-5205150D01*
X45952314Y-5277106D01*
X45947726Y-5279494D01*
X45947722Y-5279496D01*
X45763185Y-5375560D01*
X45746872Y-5384052D01*
X45742739Y-5387155D01*
X45742736Y-5387157D01*
X45603923Y-5491381D01*
X45561655Y-5523117D01*
X45527027Y-5559353D01*
X45421459Y-5669824D01*
X45401639Y-5690564D01*
X45398725Y-5694836D01*
X45398724Y-5694837D01*
X45368009Y-5739864D01*
X45271119Y-5881899D01*
X45173602Y-6091981D01*
X45111707Y-6315169D01*
X45087095Y-6545469D01*
X45087392Y-6550622D01*
X45087392Y-6550625D01*
X45099552Y-6761521D01*
X45100427Y-6776697D01*
X45101564Y-6781743D01*
X45101565Y-6781749D01*
X45125577Y-6888297D01*
X45151346Y-7002642D01*
X45153288Y-7007424D01*
X45153289Y-7007428D01*
X45235107Y-7208920D01*
X45238484Y-7217237D01*
X45288769Y-7299294D01*
X45353159Y-7404369D01*
X45359501Y-7414719D01*
X45363599Y-7419450D01*
X45471304Y-7543788D01*
X45500786Y-7608373D01*
X45490671Y-7678646D01*
X45444170Y-7732294D01*
X45420296Y-7744267D01*
X45376817Y-7760567D01*
X45353295Y-7769385D01*
X45236739Y-7856739D01*
X45149385Y-7973295D01*
X45098255Y-8109684D01*
X45091500Y-8171866D01*
X45091500Y-9990500D01*
X45071498Y-10058621D01*
X45017842Y-10105114D01*
X44965500Y-10116500D01*
X44628648Y-10116501D01*
X44618366Y-10116501D01*
X44615508Y-10116764D01*
X44615499Y-10116764D01*
X44579996Y-10120026D01*
X44544938Y-10123247D01*
X44538560Y-10125246D01*
X44538559Y-10125246D01*
X44388550Y-10172256D01*
X44388548Y-10172257D01*
X44381301Y-10174528D01*
X44234619Y-10263361D01*
X44113361Y-10384619D01*
X44024528Y-10531301D01*
X43973247Y-10694938D01*
X43966500Y-10768365D01*
X35433499Y-10768365D01*
X35433234Y-10765474D01*
X35427364Y-10701592D01*
X35426753Y-10694938D01*
X35422163Y-10680291D01*
X35420880Y-10609308D01*
X35458178Y-10548898D01*
X35509899Y-10521790D01*
X35510316Y-10521745D01*
X35646705Y-10470615D01*
X35763261Y-10383261D01*
X35850615Y-10266705D01*
X35901745Y-10130316D01*
X35908500Y-10068134D01*
X35908500Y-8171866D01*
X35901745Y-8109684D01*
X35850615Y-7973295D01*
X35763261Y-7856739D01*
X35726140Y-7828918D01*
X38486917Y-7828918D01*
X38502682Y-8102320D01*
X38503507Y-8106525D01*
X38503508Y-8106533D01*
X38518059Y-8180698D01*
X38555405Y-8371053D01*
X38556792Y-8375103D01*
X38556793Y-8375108D01*
X38638392Y-8613438D01*
X38644112Y-8630144D01*
X38679208Y-8699925D01*
X38762736Y-8866002D01*
X38767160Y-8874799D01*
X38769586Y-8878328D01*
X38769589Y-8878334D01*
X38910596Y-9083499D01*
X38922274Y-9100490D01*
X38925161Y-9103663D01*
X38925162Y-9103664D01*
X39102286Y-9298322D01*
X39106582Y-9303043D01*
X39316675Y-9478707D01*
X39320316Y-9480991D01*
X39545024Y-9621951D01*
X39545028Y-9621953D01*
X39548664Y-9624234D01*
X39646328Y-9668331D01*
X39794345Y-9735164D01*
X39794349Y-9735166D01*
X39798257Y-9736930D01*
X39830366Y-9746441D01*
X40056723Y-9813491D01*
X40056727Y-9813492D01*
X40060836Y-9814709D01*
X40065070Y-9815357D01*
X40065075Y-9815358D01*
X40327298Y-9855483D01*
X40327300Y-9855483D01*
X40331540Y-9856132D01*
X40470912Y-9858322D01*
X40601071Y-9860367D01*
X40601077Y-9860367D01*
X40605362Y-9860434D01*
X40877235Y-9827534D01*
X41142127Y-9758041D01*
X41146087Y-9756401D01*
X41146092Y-9756399D01*
X41282431Y-9699925D01*
X41395136Y-9653241D01*
X41594399Y-9536801D01*
X41627879Y-9517237D01*
X41627880Y-9517236D01*
X41631582Y-9515073D01*
X41847089Y-9346094D01*
X41850462Y-9342614D01*
X41988738Y-9199924D01*
X42037669Y-9149431D01*
X42040202Y-9145983D01*
X42040206Y-9145978D01*
X42197257Y-8932178D01*
X42199795Y-8928723D01*
X42206611Y-8916170D01*
X42328418Y-8691830D01*
X42328419Y-8691828D01*
X42330468Y-8688054D01*
X42381717Y-8552426D01*
X42425751Y-8435895D01*
X42425752Y-8435891D01*
X42427269Y-8431877D01*
X42472283Y-8235333D01*
X42487449Y-8169117D01*
X42487450Y-8169113D01*
X42488407Y-8164933D01*
X42489409Y-8153713D01*
X42512531Y-7894627D01*
X42512531Y-7894625D01*
X42512751Y-7892161D01*
X42513193Y-7850000D01*
X42511735Y-7828616D01*
X42494859Y-7581055D01*
X42494858Y-7581049D01*
X42494567Y-7576778D01*
X42486345Y-7537073D01*
X42459805Y-7408920D01*
X42439032Y-7308612D01*
X42347617Y-7050465D01*
X42255566Y-6872119D01*
X42223978Y-6810919D01*
X42223978Y-6810918D01*
X42222013Y-6807112D01*
X42216105Y-6798705D01*
X42134154Y-6682101D01*
X42064545Y-6583057D01*
X41974141Y-6485771D01*
X41881046Y-6385588D01*
X41881043Y-6385585D01*
X41878125Y-6382445D01*
X41874810Y-6379731D01*
X41874806Y-6379728D01*
X41737743Y-6267543D01*
X41666205Y-6208990D01*
X41472012Y-6089989D01*
X41436366Y-6068145D01*
X41436365Y-6068145D01*
X41432704Y-6065901D01*
X41428768Y-6064173D01*
X41185873Y-5957549D01*
X41185869Y-5957548D01*
X41181945Y-5955825D01*
X40918566Y-5880800D01*
X40914324Y-5880196D01*
X40914318Y-5880195D01*
X40686200Y-5847729D01*
X40647443Y-5842213D01*
X40503589Y-5841460D01*
X40377877Y-5840802D01*
X40377871Y-5840802D01*
X40373591Y-5840780D01*
X40369347Y-5841339D01*
X40369343Y-5841339D01*
X40281066Y-5852961D01*
X40102078Y-5876525D01*
X40097938Y-5877658D01*
X40097936Y-5877658D01*
X40065297Y-5886587D01*
X39837928Y-5948788D01*
X39833980Y-5950472D01*
X39589982Y-6054546D01*
X39589978Y-6054548D01*
X39586030Y-6056232D01*
X39479820Y-6119797D01*
X39354725Y-6194664D01*
X39354721Y-6194667D01*
X39351043Y-6196868D01*
X39137318Y-6368094D01*
X39043934Y-6466500D01*
X38973118Y-6541125D01*
X38948808Y-6566742D01*
X38789002Y-6789136D01*
X38660857Y-7031161D01*
X38659385Y-7035184D01*
X38659383Y-7035188D01*
X38574758Y-7266436D01*
X38566743Y-7288337D01*
X38508404Y-7555907D01*
X38508068Y-7560177D01*
X38488186Y-7812800D01*
X38486917Y-7828918D01*
X35726140Y-7828918D01*
X35646705Y-7769385D01*
X35638296Y-7766233D01*
X35638295Y-7766232D01*
X35579804Y-7744305D01*
X35523039Y-7701664D01*
X35498339Y-7635103D01*
X35513546Y-7565754D01*
X35535093Y-7537073D01*
X35572636Y-7499660D01*
X35572640Y-7499655D01*
X35576303Y-7496005D01*
X35587703Y-7480141D01*
X35614669Y-7442613D01*
X35711458Y-7307917D01*
X35714844Y-7301067D01*
X35811784Y-7104922D01*
X35811785Y-7104920D01*
X35814078Y-7100280D01*
X35881408Y-6878671D01*
X35911640Y-6649041D01*
X35912099Y-6630258D01*
X35913245Y-6583365D01*
X35913245Y-6583361D01*
X35913327Y-6580000D01*
X35905204Y-6481197D01*
X35894773Y-6354318D01*
X35894772Y-6354312D01*
X35894349Y-6349167D01*
X35860096Y-6212800D01*
X35839184Y-6129544D01*
X35839183Y-6129540D01*
X35837925Y-6124533D01*
X35827242Y-6099964D01*
X35747630Y-5916868D01*
X35747628Y-5916865D01*
X35745570Y-5912131D01*
X35619764Y-5717665D01*
X35583513Y-5677825D01*
X35535291Y-5624830D01*
X35463887Y-5546358D01*
X35459836Y-5543159D01*
X35459832Y-5543155D01*
X35286177Y-5406011D01*
X35286172Y-5406008D01*
X35282123Y-5402810D01*
X35277607Y-5400317D01*
X35277604Y-5400315D01*
X35083879Y-5293373D01*
X35083875Y-5293371D01*
X35079355Y-5290876D01*
X35074486Y-5289152D01*
X35074482Y-5289150D01*
X34865903Y-5215288D01*
X34865899Y-5215287D01*
X34861028Y-5213562D01*
X34855935Y-5212655D01*
X34855932Y-5212654D01*
X34638095Y-5173851D01*
X34638089Y-5173850D01*
X34633006Y-5172945D01*
X34560096Y-5172054D01*
X34406581Y-5170179D01*
X34406579Y-5170179D01*
X34401411Y-5170116D01*
X34172464Y-5205150D01*
X33952314Y-5277106D01*
X33947726Y-5279494D01*
X33947722Y-5279496D01*
X33763185Y-5375560D01*
X33746872Y-5384052D01*
X33742739Y-5387155D01*
X33742736Y-5387157D01*
X33603923Y-5491381D01*
X33561655Y-5523117D01*
X33527027Y-5559353D01*
X33421459Y-5669824D01*
X33401639Y-5690564D01*
X33398725Y-5694836D01*
X33398724Y-5694837D01*
X33368009Y-5739864D01*
X33271119Y-5881899D01*
X33173602Y-6091981D01*
X33111707Y-6315169D01*
X33087095Y-6545469D01*
X33087392Y-6550622D01*
X33087392Y-6550625D01*
X33099552Y-6761521D01*
X33100427Y-6776697D01*
X33101564Y-6781743D01*
X33101565Y-6781749D01*
X33125577Y-6888297D01*
X33151346Y-7002642D01*
X33153288Y-7007424D01*
X33153289Y-7007428D01*
X33235107Y-7208920D01*
X33238484Y-7217237D01*
X33288769Y-7299294D01*
X33353159Y-7404369D01*
X33359501Y-7414719D01*
X33363599Y-7419450D01*
X33471304Y-7543788D01*
X33500786Y-7608373D01*
X33490671Y-7678646D01*
X33444170Y-7732294D01*
X33420296Y-7744267D01*
X33376817Y-7760567D01*
X33353295Y-7769385D01*
X33236739Y-7856739D01*
X33149385Y-7973295D01*
X33098255Y-8109684D01*
X33091500Y-8171866D01*
X33091500Y-9990500D01*
X33071498Y-10058621D01*
X33017842Y-10105114D01*
X32965500Y-10116500D01*
X32628648Y-10116501D01*
X32618366Y-10116501D01*
X32615508Y-10116764D01*
X32615499Y-10116764D01*
X32579996Y-10120026D01*
X32544938Y-10123247D01*
X32538560Y-10125246D01*
X32538559Y-10125246D01*
X32388550Y-10172256D01*
X32388548Y-10172257D01*
X32381301Y-10174528D01*
X32234619Y-10263361D01*
X32113361Y-10384619D01*
X32024528Y-10531301D01*
X31973247Y-10694938D01*
X31966500Y-10768365D01*
X31966501Y-11431634D01*
X31966764Y-11434492D01*
X31966764Y-11434501D01*
X31970026Y-11470004D01*
X31973247Y-11505062D01*
X31975246Y-11511440D01*
X31975246Y-11511441D01*
X32016697Y-11643709D01*
X32024528Y-11668699D01*
X32113361Y-11815381D01*
X32234619Y-11936639D01*
X32381301Y-12025472D01*
X32388548Y-12027743D01*
X32388550Y-12027744D01*
X32440679Y-12044080D01*
X32499701Y-12083537D01*
X32528021Y-12148641D01*
X32529000Y-12164314D01*
X32529000Y-12683033D01*
X32508998Y-12751154D01*
X32455342Y-12797647D01*
X32438152Y-12804030D01*
X32319014Y-12838642D01*
X32319009Y-12838644D01*
X32311399Y-12840855D01*
X32285513Y-12856164D01*
X32175020Y-12921509D01*
X32175017Y-12921511D01*
X32168193Y-12925547D01*
X32050547Y-13043193D01*
X32046511Y-13050017D01*
X32046509Y-13050020D01*
X32010182Y-13111446D01*
X31965855Y-13186399D01*
X31963644Y-13194010D01*
X31963643Y-13194012D01*
X31961140Y-13202627D01*
X31919438Y-13346169D01*
X31918934Y-13352574D01*
X31918933Y-13352579D01*
X31917396Y-13372115D01*
X31916500Y-13383498D01*
X31916500Y-13816502D01*
X31916693Y-13818950D01*
X31916693Y-13818958D01*
X31918394Y-13840565D01*
X31919438Y-13853831D01*
X31944111Y-13938757D01*
X31961904Y-14000000D01*
X31965855Y-14013601D01*
X31970087Y-14020757D01*
X32046509Y-14149980D01*
X32046511Y-14149983D01*
X32050547Y-14156807D01*
X32168193Y-14274453D01*
X32175017Y-14278489D01*
X32175020Y-14278491D01*
X32268881Y-14334000D01*
X32311399Y-14359145D01*
X32319010Y-14361356D01*
X32319012Y-14361357D01*
X32336715Y-14366500D01*
X32471169Y-14405562D01*
X32477574Y-14406066D01*
X32477579Y-14406067D01*
X32506042Y-14408307D01*
X32506050Y-14408307D01*
X32508498Y-14408500D01*
X33665500Y-14408500D01*
X33733621Y-14428502D01*
X33780114Y-14482158D01*
X33791500Y-14534500D01*
X33791500Y-14766502D01*
X33791693Y-14768950D01*
X33791693Y-14768958D01*
X33793838Y-14796206D01*
X33794438Y-14803831D01*
X33823472Y-14903769D01*
X33828218Y-14920102D01*
X33840855Y-14963601D01*
X33863188Y-15001363D01*
X33880646Y-15070178D01*
X33858129Y-15137509D01*
X33802784Y-15181978D01*
X33754733Y-15191500D01*
X25725780Y-15191500D01*
X25657659Y-15171498D01*
X25611166Y-15117842D01*
X25601062Y-15047568D01*
X25616662Y-15002499D01*
X25631222Y-14977281D01*
X25631223Y-14977278D01*
X25634527Y-14971556D01*
X25693542Y-14789928D01*
X25694590Y-14779963D01*
X25712814Y-14606565D01*
X25713504Y-14600000D01*
X25701181Y-14482749D01*
X25694232Y-14416635D01*
X25694232Y-14416633D01*
X25693542Y-14410072D01*
X25634527Y-14228444D01*
X25629250Y-14219303D01*
X25583263Y-14139652D01*
X25539040Y-14063056D01*
X25440070Y-13953138D01*
X25415675Y-13926045D01*
X25415674Y-13926044D01*
X25411253Y-13921134D01*
X25275804Y-13822724D01*
X25262094Y-13812763D01*
X25262093Y-13812762D01*
X25256752Y-13808882D01*
X25250724Y-13806198D01*
X25250722Y-13806197D01*
X25088319Y-13733891D01*
X25088318Y-13733891D01*
X25082288Y-13731206D01*
X24983670Y-13710244D01*
X24901944Y-13692872D01*
X24901939Y-13692872D01*
X24895487Y-13691500D01*
X24704513Y-13691500D01*
X24698061Y-13692872D01*
X24698056Y-13692872D01*
X24616330Y-13710244D01*
X24517712Y-13731206D01*
X24511682Y-13733891D01*
X24511681Y-13733891D01*
X24349278Y-13806197D01*
X24349276Y-13806198D01*
X24343248Y-13808882D01*
X24337907Y-13812762D01*
X24337906Y-13812763D01*
X24228246Y-13892436D01*
X24161378Y-13916295D01*
X24154185Y-13916500D01*
X24124950Y-13916500D01*
X24056829Y-13896498D01*
X24043729Y-13885941D01*
X24043675Y-13886011D01*
X24037415Y-13881155D01*
X24031807Y-13875547D01*
X24024983Y-13871511D01*
X24024980Y-13871509D01*
X23912859Y-13805201D01*
X23888601Y-13790855D01*
X23880990Y-13788644D01*
X23880988Y-13788643D01*
X23812435Y-13768727D01*
X23728831Y-13744438D01*
X23722426Y-13743934D01*
X23722421Y-13743933D01*
X23693958Y-13741693D01*
X23693950Y-13741693D01*
X23691502Y-13741500D01*
X22534500Y-13741500D01*
X22466379Y-13721498D01*
X22419886Y-13667842D01*
X22408500Y-13615500D01*
X22408500Y-13584000D01*
X22428502Y-13515879D01*
X22482158Y-13469386D01*
X22534500Y-13458000D01*
X22765385Y-13458000D01*
X22780624Y-13453525D01*
X22781829Y-13452135D01*
X22783500Y-13444452D01*
X22783500Y-13439884D01*
X23291500Y-13439884D01*
X23295975Y-13455123D01*
X23297365Y-13456328D01*
X23305048Y-13457999D01*
X23688984Y-13457999D01*
X23693920Y-13457805D01*
X23722336Y-13455570D01*
X23734931Y-13453270D01*
X23880790Y-13410893D01*
X23895221Y-13404648D01*
X24024678Y-13328089D01*
X24037104Y-13318449D01*
X24143449Y-13212104D01*
X24153089Y-13199678D01*
X24229648Y-13070221D01*
X24235893Y-13055790D01*
X24274939Y-12921395D01*
X24274899Y-12907294D01*
X24267630Y-12904000D01*
X23309615Y-12904000D01*
X23294376Y-12908475D01*
X23293171Y-12909865D01*
X23291500Y-12917548D01*
X23291500Y-13439884D01*
X22783500Y-13439884D01*
X22783500Y-12922115D01*
X22779025Y-12906876D01*
X22777635Y-12905671D01*
X22769952Y-12904000D01*
X22154842Y-12904000D01*
X22090703Y-12886453D01*
X22039487Y-12856164D01*
X22013601Y-12840855D01*
X22005990Y-12838644D01*
X22005988Y-12838643D01*
X21951444Y-12822797D01*
X21853831Y-12794438D01*
X21847426Y-12793934D01*
X21847421Y-12793933D01*
X21818958Y-12791693D01*
X21818950Y-12791693D01*
X21816502Y-12791500D01*
X21634500Y-12791500D01*
X21566379Y-12771498D01*
X21519886Y-12717842D01*
X21508500Y-12665500D01*
X21508500Y-11995710D01*
X21528502Y-11927589D01*
X21545405Y-11906615D01*
X21610905Y-11841115D01*
X21673217Y-11807089D01*
X21744032Y-11812154D01*
X21789095Y-11841115D01*
X21884619Y-11936639D01*
X21890055Y-11939931D01*
X21931010Y-11997275D01*
X21934488Y-12068186D01*
X21920452Y-12102791D01*
X21845352Y-12229779D01*
X21839107Y-12244210D01*
X21800061Y-12378605D01*
X21800101Y-12392706D01*
X21807370Y-12396000D01*
X24261878Y-12396000D01*
X24275409Y-12392027D01*
X24276544Y-12384129D01*
X24235893Y-12244210D01*
X24229648Y-12229779D01*
X24153089Y-12100322D01*
X24143449Y-12087896D01*
X24037104Y-11981551D01*
X24024678Y-11971911D01*
X23895221Y-11895352D01*
X23880790Y-11889107D01*
X23734935Y-11846731D01*
X23722333Y-11844430D01*
X23693916Y-11842193D01*
X23688986Y-11842000D01*
X23491362Y-11842000D01*
X23423241Y-11821998D01*
X23376748Y-11768342D01*
X23366644Y-11698068D01*
X23374946Y-11669567D01*
X23375472Y-11668699D01*
X23383304Y-11643709D01*
X23411147Y-11554861D01*
X23426753Y-11505062D01*
X23433500Y-11431635D01*
X23433499Y-10768366D01*
X23433234Y-10765474D01*
X23427364Y-10701592D01*
X23426753Y-10694938D01*
X23422163Y-10680291D01*
X23420880Y-10609308D01*
X23458178Y-10548898D01*
X23509899Y-10521790D01*
X23510316Y-10521745D01*
X23646705Y-10470615D01*
X23763261Y-10383261D01*
X23850615Y-10266705D01*
X23901745Y-10130316D01*
X23908500Y-10068134D01*
X23908500Y-8171866D01*
X23901745Y-8109684D01*
X23850615Y-7973295D01*
X23763261Y-7856739D01*
X23646705Y-7769385D01*
X23638296Y-7766233D01*
X23638295Y-7766232D01*
X23579804Y-7744305D01*
X23523039Y-7701664D01*
X23498339Y-7635103D01*
X23513546Y-7565754D01*
X23535093Y-7537073D01*
X23572636Y-7499660D01*
X23572640Y-7499655D01*
X23576303Y-7496005D01*
X23587703Y-7480141D01*
X23614669Y-7442613D01*
X23711458Y-7307917D01*
X23714844Y-7301067D01*
X23811784Y-7104922D01*
X23811785Y-7104920D01*
X23814078Y-7100280D01*
X23881408Y-6878671D01*
X23911640Y-6649041D01*
X23912099Y-6630258D01*
X23913245Y-6583365D01*
X23913245Y-6583361D01*
X23913327Y-6580000D01*
X23905204Y-6481197D01*
X23894773Y-6354318D01*
X23894772Y-6354312D01*
X23894349Y-6349167D01*
X23860096Y-6212800D01*
X23839184Y-6129544D01*
X23839183Y-6129540D01*
X23837925Y-6124533D01*
X23827242Y-6099964D01*
X23747630Y-5916868D01*
X23747628Y-5916865D01*
X23745570Y-5912131D01*
X23619764Y-5717665D01*
X23583513Y-5677825D01*
X23535291Y-5624830D01*
X23463887Y-5546358D01*
X23459836Y-5543159D01*
X23459832Y-5543155D01*
X23286177Y-5406011D01*
X23286172Y-5406008D01*
X23282123Y-5402810D01*
X23277607Y-5400317D01*
X23277604Y-5400315D01*
X23083879Y-5293373D01*
X23083875Y-5293371D01*
X23079355Y-5290876D01*
X23074486Y-5289152D01*
X23074482Y-5289150D01*
X22865903Y-5215288D01*
X22865899Y-5215287D01*
X22861028Y-5213562D01*
X22855935Y-5212655D01*
X22855932Y-5212654D01*
X22638095Y-5173851D01*
X22638089Y-5173850D01*
X22633006Y-5172945D01*
X22560096Y-5172054D01*
X22406581Y-5170179D01*
X22406579Y-5170179D01*
X22401411Y-5170116D01*
X22172464Y-5205150D01*
X21952314Y-5277106D01*
X21947726Y-5279494D01*
X21947722Y-5279496D01*
X21763185Y-5375560D01*
X21746872Y-5384052D01*
X21742739Y-5387155D01*
X21742736Y-5387157D01*
X21603923Y-5491381D01*
X21561655Y-5523117D01*
X21527027Y-5559353D01*
X21421459Y-5669824D01*
X21401639Y-5690564D01*
X21398725Y-5694836D01*
X21398724Y-5694837D01*
X21368009Y-5739864D01*
X21271119Y-5881899D01*
X21173602Y-6091981D01*
X21111707Y-6315169D01*
X21087095Y-6545469D01*
X21087392Y-6550622D01*
X21087392Y-6550625D01*
X21099552Y-6761521D01*
X21100427Y-6776697D01*
X21101564Y-6781743D01*
X21101565Y-6781749D01*
X21125577Y-6888297D01*
X21151346Y-7002642D01*
X21153288Y-7007424D01*
X21153289Y-7007428D01*
X21235107Y-7208920D01*
X21238484Y-7217237D01*
X21288769Y-7299294D01*
X21353159Y-7404369D01*
X21359501Y-7414719D01*
X21363599Y-7419450D01*
X21471304Y-7543788D01*
X21500786Y-7608373D01*
X21490671Y-7678646D01*
X21444170Y-7732294D01*
X21420296Y-7744267D01*
X21376817Y-7760567D01*
X21353295Y-7769385D01*
X21236739Y-7856739D01*
X21149385Y-7973295D01*
X21098255Y-8109684D01*
X21091500Y-8171866D01*
X21091500Y-9990500D01*
X21071498Y-10058621D01*
X21017842Y-10105114D01*
X20965500Y-10116500D01*
X20628648Y-10116501D01*
X20618366Y-10116501D01*
X20615508Y-10116764D01*
X20615499Y-10116764D01*
X20579996Y-10120026D01*
X20544938Y-10123247D01*
X20538560Y-10125246D01*
X20538559Y-10125246D01*
X20388550Y-10172256D01*
X20388548Y-10172257D01*
X20381301Y-10174528D01*
X20234619Y-10263361D01*
X20113361Y-10384619D01*
X20024528Y-10531301D01*
X19973247Y-10694938D01*
X19966500Y-10768365D01*
X19966501Y-11431634D01*
X19966764Y-11434492D01*
X19966764Y-11434501D01*
X19970026Y-11470004D01*
X19973247Y-11505062D01*
X19975246Y-11511440D01*
X19975246Y-11511441D01*
X20016697Y-11643709D01*
X20024528Y-11668699D01*
X20113361Y-11815381D01*
X20204595Y-11906615D01*
X20238621Y-11968927D01*
X20241500Y-11995710D01*
X20241500Y-12810324D01*
X20221498Y-12878445D01*
X20179641Y-12918776D01*
X20175023Y-12921507D01*
X20175019Y-12921510D01*
X20168193Y-12925547D01*
X20050547Y-13043193D01*
X20046511Y-13050017D01*
X20046509Y-13050020D01*
X20010182Y-13111446D01*
X19965855Y-13186399D01*
X19963644Y-13194010D01*
X19963643Y-13194012D01*
X19961140Y-13202627D01*
X19919438Y-13346169D01*
X19918934Y-13352574D01*
X19918933Y-13352579D01*
X19917396Y-13372115D01*
X19916500Y-13383498D01*
X19916500Y-13816502D01*
X19916693Y-13818950D01*
X19916693Y-13818958D01*
X19918394Y-13840565D01*
X19919438Y-13853831D01*
X19944111Y-13938757D01*
X19961904Y-14000000D01*
X19965855Y-14013601D01*
X19970087Y-14020757D01*
X20046509Y-14149980D01*
X20046511Y-14149983D01*
X20050547Y-14156807D01*
X20168193Y-14274453D01*
X20175017Y-14278489D01*
X20175020Y-14278491D01*
X20268881Y-14334000D01*
X20311399Y-14359145D01*
X20319010Y-14361356D01*
X20319012Y-14361357D01*
X20336715Y-14366500D01*
X20471169Y-14405562D01*
X20477574Y-14406066D01*
X20477579Y-14406067D01*
X20506042Y-14408307D01*
X20506050Y-14408307D01*
X20508498Y-14408500D01*
X21665500Y-14408500D01*
X21733621Y-14428502D01*
X21780114Y-14482158D01*
X21791500Y-14534500D01*
X21791500Y-14766502D01*
X21791693Y-14768950D01*
X21791693Y-14768958D01*
X21793838Y-14796206D01*
X21794438Y-14803831D01*
X21823472Y-14903769D01*
X21828218Y-14920102D01*
X21840855Y-14963601D01*
X21863188Y-15001363D01*
X21880646Y-15070178D01*
X21858129Y-15137509D01*
X21802784Y-15181978D01*
X21754733Y-15191500D01*
X13668045Y-15191500D01*
X13599924Y-15171498D01*
X13553431Y-15117842D01*
X13543327Y-15047568D01*
X13558926Y-15002500D01*
X13570192Y-14982988D01*
X13634527Y-14871556D01*
X13693542Y-14689928D01*
X13709317Y-14539842D01*
X13712814Y-14506565D01*
X13713504Y-14500000D01*
X13703867Y-14408307D01*
X13694232Y-14316634D01*
X13694231Y-14316631D01*
X13693542Y-14310072D01*
X13634527Y-14128444D01*
X13608101Y-14082672D01*
X13597314Y-14063990D01*
X13539040Y-13963056D01*
X13514411Y-13935702D01*
X13415675Y-13826045D01*
X13415671Y-13826041D01*
X13411253Y-13821134D01*
X13275655Y-13722616D01*
X13262094Y-13712763D01*
X13262093Y-13712762D01*
X13256752Y-13708882D01*
X13250724Y-13706198D01*
X13250722Y-13706197D01*
X13088319Y-13633891D01*
X13088318Y-13633891D01*
X13082288Y-13631206D01*
X12973852Y-13608157D01*
X12901944Y-13592872D01*
X12901939Y-13592872D01*
X12895487Y-13591500D01*
X12704513Y-13591500D01*
X12698061Y-13592872D01*
X12698056Y-13592872D01*
X12626148Y-13608157D01*
X12517712Y-13631206D01*
X12511682Y-13633891D01*
X12511681Y-13633891D01*
X12349278Y-13706197D01*
X12349276Y-13706198D01*
X12343248Y-13708882D01*
X12337907Y-13712762D01*
X12337906Y-13712763D01*
X12324345Y-13722616D01*
X12188747Y-13821134D01*
X12171250Y-13840566D01*
X12110806Y-13877804D01*
X12039822Y-13876452D01*
X12013483Y-13864710D01*
X11888601Y-13790855D01*
X11880990Y-13788644D01*
X11880988Y-13788643D01*
X11812435Y-13768727D01*
X11728831Y-13744438D01*
X11722426Y-13743934D01*
X11722421Y-13743933D01*
X11693958Y-13741693D01*
X11693950Y-13741693D01*
X11691502Y-13741500D01*
X10534500Y-13741500D01*
X10466379Y-13721498D01*
X10419886Y-13667842D01*
X10408500Y-13615500D01*
X10408500Y-13584000D01*
X10428502Y-13515879D01*
X10482158Y-13469386D01*
X10534500Y-13458000D01*
X10765385Y-13458000D01*
X10780624Y-13453525D01*
X10781829Y-13452135D01*
X10783500Y-13444452D01*
X10783500Y-13439884D01*
X11291500Y-13439884D01*
X11295975Y-13455123D01*
X11297365Y-13456328D01*
X11305048Y-13457999D01*
X11688984Y-13457999D01*
X11693920Y-13457805D01*
X11722336Y-13455570D01*
X11734931Y-13453270D01*
X11880790Y-13410893D01*
X11895221Y-13404648D01*
X12024678Y-13328089D01*
X12037104Y-13318449D01*
X12143449Y-13212104D01*
X12153089Y-13199678D01*
X12229648Y-13070221D01*
X12235893Y-13055790D01*
X12274939Y-12921395D01*
X12274899Y-12907294D01*
X12267630Y-12904000D01*
X11309615Y-12904000D01*
X11294376Y-12908475D01*
X11293171Y-12909865D01*
X11291500Y-12917548D01*
X11291500Y-13439884D01*
X10783500Y-13439884D01*
X10783500Y-12522000D01*
X10803502Y-12453879D01*
X10857158Y-12407386D01*
X10909500Y-12396000D01*
X12261878Y-12396000D01*
X12275409Y-12392027D01*
X12276544Y-12384129D01*
X12235893Y-12244210D01*
X12229648Y-12229779D01*
X12153089Y-12100322D01*
X12143449Y-12087896D01*
X12037104Y-11981551D01*
X12024678Y-11971911D01*
X11895221Y-11895352D01*
X11880790Y-11889107D01*
X11734935Y-11846731D01*
X11722333Y-11844430D01*
X11693916Y-11842193D01*
X11688986Y-11842000D01*
X11491362Y-11842000D01*
X11423241Y-11821998D01*
X11376748Y-11768342D01*
X11366644Y-11698068D01*
X11374946Y-11669567D01*
X11375472Y-11668699D01*
X11383304Y-11643709D01*
X11411147Y-11554861D01*
X11426753Y-11505062D01*
X11433500Y-11431635D01*
X11433499Y-10768366D01*
X11433234Y-10765474D01*
X11427364Y-10701592D01*
X11426753Y-10694938D01*
X11422163Y-10680291D01*
X11420880Y-10609308D01*
X11458178Y-10548898D01*
X11509899Y-10521790D01*
X11510316Y-10521745D01*
X11646705Y-10470615D01*
X11763261Y-10383261D01*
X11850615Y-10266705D01*
X11901745Y-10130316D01*
X11908500Y-10068134D01*
X11908500Y-8171866D01*
X11901745Y-8109684D01*
X11850615Y-7973295D01*
X11763261Y-7856739D01*
X11660512Y-7779733D01*
X14487822Y-7779733D01*
X14487975Y-7784121D01*
X14487975Y-7784127D01*
X14496671Y-8033131D01*
X14497625Y-8060458D01*
X14498387Y-8064781D01*
X14498388Y-8064788D01*
X14522164Y-8199624D01*
X14546402Y-8337087D01*
X14633203Y-8604235D01*
X14635131Y-8608188D01*
X14635133Y-8608193D01*
X14687183Y-8714909D01*
X14756340Y-8856702D01*
X14758795Y-8860341D01*
X14758798Y-8860347D01*
X14817572Y-8947482D01*
X14913415Y-9089576D01*
X14916360Y-9092847D01*
X14916361Y-9092848D01*
X14981730Y-9165447D01*
X15101371Y-9298322D01*
X15104733Y-9301143D01*
X15104734Y-9301144D01*
X15123035Y-9316500D01*
X15316550Y-9478879D01*
X15554764Y-9627731D01*
X15672705Y-9680242D01*
X15803959Y-9738680D01*
X15811375Y-9741982D01*
X15867380Y-9758041D01*
X16067364Y-9815385D01*
X16081390Y-9819407D01*
X16085740Y-9820018D01*
X16085743Y-9820019D01*
X16161203Y-9830624D01*
X16359552Y-9858500D01*
X16570146Y-9858500D01*
X16572332Y-9858347D01*
X16572336Y-9858347D01*
X16775827Y-9844118D01*
X16775832Y-9844117D01*
X16780212Y-9843811D01*
X17054970Y-9785409D01*
X17059099Y-9783906D01*
X17059103Y-9783905D01*
X17314781Y-9690846D01*
X17314785Y-9690844D01*
X17318926Y-9689337D01*
X17566942Y-9557464D01*
X17570503Y-9554877D01*
X17790629Y-9394947D01*
X17790632Y-9394944D01*
X17794192Y-9392358D01*
X17798251Y-9388439D01*
X17904516Y-9285819D01*
X17996252Y-9197231D01*
X18142206Y-9010417D01*
X18166481Y-8979347D01*
X18166482Y-8979346D01*
X18169188Y-8975882D01*
X18171384Y-8972078D01*
X18171389Y-8972071D01*
X18307435Y-8736431D01*
X18309636Y-8732619D01*
X18414862Y-8472176D01*
X18439064Y-8375108D01*
X18481753Y-8203893D01*
X18481754Y-8203888D01*
X18482817Y-8199624D01*
X18484181Y-8186653D01*
X18511719Y-7924636D01*
X18511719Y-7924633D01*
X18512178Y-7920267D01*
X18512011Y-7915474D01*
X18502529Y-7643939D01*
X18502528Y-7643933D01*
X18502375Y-7639542D01*
X18501593Y-7635103D01*
X18466815Y-7437871D01*
X18453598Y-7362913D01*
X18366797Y-7095765D01*
X18358378Y-7078502D01*
X18291446Y-6941273D01*
X18243660Y-6843298D01*
X18241205Y-6839659D01*
X18241202Y-6839653D01*
X18155949Y-6713261D01*
X18086585Y-6610424D01*
X18077233Y-6600037D01*
X17966219Y-6476744D01*
X17898629Y-6401678D01*
X17894406Y-6398134D01*
X17783476Y-6305053D01*
X17683450Y-6221121D01*
X17445236Y-6072269D01*
X17265376Y-5992190D01*
X17192639Y-5959805D01*
X17192637Y-5959804D01*
X17188625Y-5958018D01*
X16991480Y-5901488D01*
X16922837Y-5881805D01*
X16922836Y-5881805D01*
X16918610Y-5880593D01*
X16914260Y-5879982D01*
X16914257Y-5879981D01*
X16811310Y-5865513D01*
X16640448Y-5841500D01*
X16429854Y-5841500D01*
X16427668Y-5841653D01*
X16427664Y-5841653D01*
X16224173Y-5855882D01*
X16224168Y-5855883D01*
X16219788Y-5856189D01*
X15945030Y-5914591D01*
X15940901Y-5916094D01*
X15940897Y-5916095D01*
X15685219Y-6009154D01*
X15685215Y-6009156D01*
X15681074Y-6010663D01*
X15433058Y-6142536D01*
X15429499Y-6145122D01*
X15429497Y-6145123D01*
X15223941Y-6294468D01*
X15205808Y-6307642D01*
X15202644Y-6310698D01*
X15202641Y-6310700D01*
X15124190Y-6386460D01*
X15003748Y-6502769D01*
X14894829Y-6642180D01*
X14843177Y-6708292D01*
X14830812Y-6724118D01*
X14828616Y-6727922D01*
X14828611Y-6727929D01*
X14744541Y-6873544D01*
X14690364Y-6967381D01*
X14585138Y-7227824D01*
X14584073Y-7232097D01*
X14584072Y-7232099D01*
X14518273Y-7496005D01*
X14517183Y-7500376D01*
X14516724Y-7504744D01*
X14516723Y-7504749D01*
X14488281Y-7775364D01*
X14487822Y-7779733D01*
X11660512Y-7779733D01*
X11646705Y-7769385D01*
X11638296Y-7766233D01*
X11638295Y-7766232D01*
X11579804Y-7744305D01*
X11523039Y-7701664D01*
X11498339Y-7635103D01*
X11513546Y-7565754D01*
X11535093Y-7537073D01*
X11572636Y-7499660D01*
X11572640Y-7499655D01*
X11576303Y-7496005D01*
X11587703Y-7480141D01*
X11614669Y-7442613D01*
X11711458Y-7307917D01*
X11714844Y-7301067D01*
X11811784Y-7104922D01*
X11811785Y-7104920D01*
X11814078Y-7100280D01*
X11881408Y-6878671D01*
X11911640Y-6649041D01*
X11912099Y-6630258D01*
X11913245Y-6583365D01*
X11913245Y-6583361D01*
X11913327Y-6580000D01*
X11905204Y-6481197D01*
X11894773Y-6354318D01*
X11894772Y-6354312D01*
X11894349Y-6349167D01*
X11860096Y-6212800D01*
X11839184Y-6129544D01*
X11839183Y-6129540D01*
X11837925Y-6124533D01*
X11827242Y-6099964D01*
X11747630Y-5916868D01*
X11747628Y-5916865D01*
X11745570Y-5912131D01*
X11619764Y-5717665D01*
X11583513Y-5677825D01*
X11535291Y-5624830D01*
X11463887Y-5546358D01*
X11459836Y-5543159D01*
X11459832Y-5543155D01*
X11286177Y-5406011D01*
X11286172Y-5406008D01*
X11282123Y-5402810D01*
X11277608Y-5400317D01*
X11277595Y-5400309D01*
X11144345Y-5326751D01*
X11094375Y-5276319D01*
X11079603Y-5206876D01*
X11104720Y-5140470D01*
X11116144Y-5127348D01*
X11573087Y-4670405D01*
X11635399Y-4636379D01*
X11662182Y-4633500D01*
X57885713Y-4633500D01*
X57953834Y-4653502D01*
G37*
%TD.AperFunction*%
%TA.AperFunction,Conductor*%
G36*
X105309533Y-12690539D02*
G01*
X105366368Y-12733086D01*
X105391179Y-12799606D01*
X105391500Y-12808595D01*
X105391500Y-13150633D01*
X105390000Y-13170018D01*
X105387690Y-13184851D01*
X105387690Y-13184855D01*
X105386309Y-13193724D01*
X105387533Y-13203080D01*
X105388439Y-13210010D01*
X105389233Y-13234590D01*
X105375002Y-13451701D01*
X105372851Y-13468041D01*
X105364255Y-13511259D01*
X105333109Y-13667842D01*
X105325252Y-13707340D01*
X105320987Y-13723257D01*
X105289080Y-13817251D01*
X105242561Y-13954292D01*
X105236254Y-13969519D01*
X105128343Y-14188342D01*
X105120102Y-14202616D01*
X104984553Y-14405478D01*
X104974520Y-14418553D01*
X104813648Y-14601993D01*
X104801993Y-14613648D01*
X104618553Y-14774520D01*
X104605478Y-14784553D01*
X104402616Y-14920102D01*
X104388342Y-14928343D01*
X104169519Y-15036254D01*
X104154292Y-15042561D01*
X104139542Y-15047568D01*
X103923257Y-15120987D01*
X103907343Y-15125251D01*
X103845719Y-15137509D01*
X103668041Y-15172851D01*
X103651701Y-15175002D01*
X103545276Y-15181978D01*
X103441763Y-15188763D01*
X103418650Y-15187733D01*
X103415146Y-15187690D01*
X103406276Y-15186309D01*
X103397374Y-15187473D01*
X103397372Y-15187473D01*
X103383915Y-15189233D01*
X103374714Y-15190436D01*
X103358379Y-15191500D01*
X103008594Y-15191500D01*
X102940473Y-15171498D01*
X102893980Y-15117842D01*
X102883876Y-15047568D01*
X102913370Y-14982988D01*
X102919499Y-14976405D01*
X105176405Y-12719500D01*
X105238717Y-12685474D01*
X105309533Y-12690539D01*
G37*
%TD.AperFunction*%
%TA.AperFunction,Conductor*%
G36*
X8045037Y-11755033D02*
G01*
X8101873Y-11797580D01*
X8108777Y-11807812D01*
X8113361Y-11815381D01*
X8234619Y-11936639D01*
X8381301Y-12025472D01*
X8388548Y-12027743D01*
X8388550Y-12027744D01*
X8440679Y-12044080D01*
X8499701Y-12083537D01*
X8528021Y-12148641D01*
X8529000Y-12164314D01*
X8529000Y-12683033D01*
X8508998Y-12751154D01*
X8455342Y-12797647D01*
X8438152Y-12804030D01*
X8319014Y-12838642D01*
X8319009Y-12838644D01*
X8311399Y-12840855D01*
X8285513Y-12856164D01*
X8175020Y-12921509D01*
X8175017Y-12921511D01*
X8168193Y-12925547D01*
X8050547Y-13043193D01*
X8046511Y-13050017D01*
X8046509Y-13050020D01*
X8010182Y-13111446D01*
X7965855Y-13186399D01*
X7963644Y-13194010D01*
X7963643Y-13194012D01*
X7961140Y-13202627D01*
X7919438Y-13346169D01*
X7918934Y-13352574D01*
X7918933Y-13352579D01*
X7917396Y-13372115D01*
X7916500Y-13383498D01*
X7916500Y-13816502D01*
X7916693Y-13818950D01*
X7916693Y-13818958D01*
X7918394Y-13840565D01*
X7919438Y-13853831D01*
X7944111Y-13938757D01*
X7961904Y-14000000D01*
X7965855Y-14013601D01*
X7970087Y-14020757D01*
X8046509Y-14149980D01*
X8046511Y-14149983D01*
X8050547Y-14156807D01*
X8168193Y-14274453D01*
X8175017Y-14278489D01*
X8175020Y-14278491D01*
X8268881Y-14334000D01*
X8311399Y-14359145D01*
X8319010Y-14361356D01*
X8319012Y-14361357D01*
X8336715Y-14366500D01*
X8471169Y-14405562D01*
X8477574Y-14406066D01*
X8477579Y-14406067D01*
X8506042Y-14408307D01*
X8506050Y-14408307D01*
X8508498Y-14408500D01*
X9665500Y-14408500D01*
X9733621Y-14428502D01*
X9780114Y-14482158D01*
X9791500Y-14534500D01*
X9791500Y-14766502D01*
X9791693Y-14768950D01*
X9791693Y-14768958D01*
X9793838Y-14796206D01*
X9794438Y-14803831D01*
X9823472Y-14903769D01*
X9828218Y-14920102D01*
X9840855Y-14963601D01*
X9863188Y-15001363D01*
X9880646Y-15070178D01*
X9858129Y-15137509D01*
X9802784Y-15181978D01*
X9754733Y-15191500D01*
X2549367Y-15191500D01*
X2529982Y-15190000D01*
X2515149Y-15187690D01*
X2515145Y-15187690D01*
X2506276Y-15186309D01*
X2489988Y-15188439D01*
X2465411Y-15189233D01*
X2420801Y-15186309D01*
X2248299Y-15175002D01*
X2231959Y-15172851D01*
X2054281Y-15137509D01*
X1992657Y-15125251D01*
X1976743Y-15120987D01*
X1760458Y-15047568D01*
X1745708Y-15042561D01*
X1730481Y-15036254D01*
X1511658Y-14928343D01*
X1497384Y-14920102D01*
X1294522Y-14784553D01*
X1281447Y-14774521D01*
X1229805Y-14729233D01*
X1191777Y-14669279D01*
X1192199Y-14598284D01*
X1230937Y-14538787D01*
X1295692Y-14509678D01*
X1312882Y-14508500D01*
X1495487Y-14508500D01*
X1501939Y-14507128D01*
X1501944Y-14507128D01*
X1616635Y-14482749D01*
X1682288Y-14468794D01*
X1772786Y-14428502D01*
X1850722Y-14393803D01*
X1850724Y-14393802D01*
X1856752Y-14391118D01*
X1897715Y-14361357D01*
X2005914Y-14282745D01*
X2011253Y-14278866D01*
X2015668Y-14273963D01*
X2020580Y-14269540D01*
X2021705Y-14270789D01*
X2075014Y-14237949D01*
X2108200Y-14233500D01*
X2287638Y-14233500D01*
X2325318Y-14239266D01*
X2444938Y-14276753D01*
X2518365Y-14283500D01*
X2521263Y-14283500D01*
X2775665Y-14283499D01*
X3031634Y-14283499D01*
X3034492Y-14283236D01*
X3034501Y-14283236D01*
X3074650Y-14279547D01*
X3105062Y-14276753D01*
X3118965Y-14272396D01*
X3261450Y-14227744D01*
X3261452Y-14227743D01*
X3268699Y-14225472D01*
X3415381Y-14136639D01*
X3510905Y-14041115D01*
X3573217Y-14007089D01*
X3644032Y-14012154D01*
X3689095Y-14041115D01*
X3784619Y-14136639D01*
X3931301Y-14225472D01*
X3938548Y-14227743D01*
X3938550Y-14227744D01*
X3975317Y-14239266D01*
X4094938Y-14276753D01*
X4168365Y-14283500D01*
X4171263Y-14283500D01*
X4425665Y-14283499D01*
X4681634Y-14283499D01*
X4684492Y-14283236D01*
X4684501Y-14283236D01*
X4724650Y-14279547D01*
X4755062Y-14276753D01*
X4768965Y-14272396D01*
X4911450Y-14227744D01*
X4911452Y-14227743D01*
X4918699Y-14225472D01*
X5065381Y-14136639D01*
X5186639Y-14015381D01*
X5199449Y-13994229D01*
X5251846Y-13946322D01*
X5307225Y-13933500D01*
X5421233Y-13933500D01*
X5432416Y-13934027D01*
X5439909Y-13935702D01*
X5447835Y-13935453D01*
X5447836Y-13935453D01*
X5507986Y-13933562D01*
X5511945Y-13933500D01*
X5539856Y-13933500D01*
X5543791Y-13933003D01*
X5543856Y-13932995D01*
X5555693Y-13932062D01*
X5587951Y-13931048D01*
X5591970Y-13930922D01*
X5599889Y-13930673D01*
X5619343Y-13925021D01*
X5638700Y-13921013D01*
X5650930Y-13919468D01*
X5650931Y-13919468D01*
X5658797Y-13918474D01*
X5666168Y-13915555D01*
X5666170Y-13915555D01*
X5699912Y-13902196D01*
X5711142Y-13898351D01*
X5745983Y-13888229D01*
X5745984Y-13888229D01*
X5753593Y-13886018D01*
X5760412Y-13881985D01*
X5760417Y-13881983D01*
X5771028Y-13875707D01*
X5788776Y-13867012D01*
X5807617Y-13859552D01*
X5815492Y-13853831D01*
X5843387Y-13833564D01*
X5853307Y-13827048D01*
X5884535Y-13808580D01*
X5884538Y-13808578D01*
X5891362Y-13804542D01*
X5905683Y-13790221D01*
X5920717Y-13777380D01*
X5930694Y-13770131D01*
X5937107Y-13765472D01*
X5965298Y-13731395D01*
X5973288Y-13722616D01*
X7911910Y-11783994D01*
X7974222Y-11749968D01*
X8045037Y-11755033D01*
G37*
%TD.AperFunction*%
%TA.AperFunction,Conductor*%
G36*
X104091512Y-7437871D02*
G01*
X104098095Y-7444000D01*
X104329595Y-7675500D01*
X104363621Y-7737812D01*
X104366500Y-7764595D01*
X104366500Y-11685406D01*
X104346498Y-11753527D01*
X104329595Y-11774501D01*
X101374500Y-14729595D01*
X101312188Y-14763621D01*
X101285405Y-14766500D01*
X100397695Y-14766500D01*
X100329574Y-14746498D01*
X100283081Y-14692842D01*
X100279213Y-14682472D01*
X100277135Y-14680671D01*
X100269452Y-14679000D01*
X99172000Y-14679000D01*
X99103879Y-14658998D01*
X99057386Y-14605342D01*
X99046000Y-14553000D01*
X99046000Y-14297000D01*
X99066002Y-14228879D01*
X99119658Y-14182386D01*
X99172000Y-14171000D01*
X100264884Y-14171000D01*
X100280123Y-14166525D01*
X100281328Y-14165135D01*
X100282291Y-14160706D01*
X100276868Y-14101685D01*
X100274257Y-14088649D01*
X100227285Y-13938757D01*
X100221079Y-13925012D01*
X100140176Y-13791426D01*
X100130869Y-13779557D01*
X100040761Y-13689449D01*
X100006735Y-13627137D01*
X100011800Y-13556322D01*
X100040761Y-13511259D01*
X100136639Y-13415381D01*
X100225472Y-13268699D01*
X100236264Y-13234264D01*
X100251263Y-13186399D01*
X100276753Y-13105062D01*
X100283500Y-13031635D01*
X100283499Y-12518366D01*
X100282217Y-12504405D01*
X100278939Y-12468737D01*
X100276753Y-12444938D01*
X100260969Y-12394570D01*
X100227744Y-12288550D01*
X100227743Y-12288548D01*
X100225472Y-12281301D01*
X100136639Y-12134619D01*
X100015381Y-12013361D01*
X99868699Y-11924528D01*
X99861452Y-11922257D01*
X99861450Y-11922256D01*
X99795164Y-11901483D01*
X99705062Y-11873247D01*
X99631635Y-11866500D01*
X99628737Y-11866500D01*
X99299140Y-11866501D01*
X98968366Y-11866501D01*
X98965508Y-11866764D01*
X98965499Y-11866764D01*
X98929996Y-11870026D01*
X98894938Y-11873247D01*
X98888560Y-11875246D01*
X98888559Y-11875246D01*
X98817442Y-11897533D01*
X98746457Y-11898817D01*
X98686047Y-11861521D01*
X98655390Y-11797484D01*
X98665354Y-11725595D01*
X98667115Y-11722738D01*
X98715872Y-11575739D01*
X98746370Y-11526311D01*
X99334784Y-10937897D01*
X99397096Y-10903871D01*
X99467911Y-10908936D01*
X99524747Y-10951483D01*
X99543436Y-10987219D01*
X99561418Y-11041273D01*
X99565065Y-11047295D01*
X99565066Y-11047297D01*
X99646040Y-11181001D01*
X99655380Y-11196424D01*
X99660269Y-11201487D01*
X99660270Y-11201488D01*
X99673345Y-11215027D01*
X99781382Y-11326902D01*
X99933159Y-11426222D01*
X99939763Y-11428678D01*
X99939765Y-11428679D01*
X100096558Y-11486990D01*
X100096560Y-11486990D01*
X100103168Y-11489448D01*
X100170319Y-11498408D01*
X100275980Y-11512507D01*
X100275984Y-11512507D01*
X100282961Y-11513438D01*
X100289972Y-11512800D01*
X100289976Y-11512800D01*
X100448206Y-11498399D01*
X100463600Y-11496998D01*
X100470302Y-11494820D01*
X100470304Y-11494820D01*
X100629409Y-11443124D01*
X100629412Y-11443123D01*
X100636108Y-11440947D01*
X100762435Y-11365641D01*
X100785860Y-11351677D01*
X100785862Y-11351676D01*
X100791912Y-11348069D01*
X100923266Y-11222982D01*
X101023643Y-11071902D01*
X101073137Y-10941610D01*
X101083338Y-10914756D01*
X101126227Y-10858178D01*
X101192896Y-10833769D01*
X101201126Y-10833500D01*
X101896233Y-10833500D01*
X101907416Y-10834027D01*
X101914909Y-10835702D01*
X101922835Y-10835453D01*
X101922836Y-10835453D01*
X101982986Y-10833562D01*
X101986945Y-10833500D01*
X102014856Y-10833500D01*
X102018791Y-10833003D01*
X102018856Y-10832995D01*
X102030693Y-10832062D01*
X102062951Y-10831048D01*
X102066970Y-10830922D01*
X102074889Y-10830673D01*
X102094343Y-10825021D01*
X102113700Y-10821013D01*
X102125930Y-10819468D01*
X102125931Y-10819468D01*
X102133797Y-10818474D01*
X102141168Y-10815555D01*
X102141170Y-10815555D01*
X102174912Y-10802196D01*
X102186142Y-10798351D01*
X102220983Y-10788229D01*
X102220984Y-10788229D01*
X102228593Y-10786018D01*
X102235412Y-10781985D01*
X102235417Y-10781983D01*
X102246028Y-10775707D01*
X102263776Y-10767012D01*
X102282617Y-10759552D01*
X102318387Y-10733564D01*
X102328307Y-10727048D01*
X102359535Y-10708580D01*
X102359538Y-10708578D01*
X102366362Y-10704542D01*
X102380683Y-10690221D01*
X102395717Y-10677380D01*
X102405694Y-10670131D01*
X102412107Y-10665472D01*
X102417157Y-10659368D01*
X102417162Y-10659363D01*
X102440293Y-10631402D01*
X102448283Y-10622621D01*
X102950501Y-10120404D01*
X103012813Y-10086379D01*
X103039596Y-10083500D01*
X103348732Y-10083500D01*
X103351978Y-10083163D01*
X103351982Y-10083163D01*
X103386083Y-10079625D01*
X103451019Y-10072887D01*
X103519847Y-10049924D01*
X103606324Y-10021073D01*
X103606326Y-10021072D01*
X103613268Y-10018756D01*
X103653421Y-9993909D01*
X103752485Y-9932606D01*
X103758713Y-9928752D01*
X103879552Y-9807702D01*
X103883393Y-9801471D01*
X103965462Y-9668331D01*
X103965463Y-9668329D01*
X103969302Y-9662101D01*
X104023149Y-9499757D01*
X104033500Y-9398732D01*
X104033500Y-8801268D01*
X104022887Y-8698981D01*
X103998818Y-8626838D01*
X103971073Y-8543676D01*
X103971072Y-8543674D01*
X103968756Y-8536732D01*
X103963540Y-8528302D01*
X103882606Y-8397515D01*
X103878752Y-8391287D01*
X103856325Y-8368899D01*
X103822246Y-8306616D01*
X103828934Y-8231509D01*
X103865155Y-8144063D01*
X103869394Y-8128242D01*
X103882462Y-8028981D01*
X103883000Y-8020772D01*
X103883000Y-7533095D01*
X103903002Y-7464974D01*
X103956658Y-7418481D01*
X104026932Y-7408377D01*
X104091512Y-7437871D01*
G37*
%TD.AperFunction*%
%TA.AperFunction,Conductor*%
G36*
X60120073Y-6618805D02*
G01*
X60299972Y-6798705D01*
X60479596Y-6978329D01*
X60513621Y-7040641D01*
X60516500Y-7067424D01*
X60516500Y-8671233D01*
X60515973Y-8682416D01*
X60514298Y-8689909D01*
X60514547Y-8697835D01*
X60514547Y-8697836D01*
X60516438Y-8757986D01*
X60516500Y-8761945D01*
X60516500Y-8789856D01*
X60516997Y-8793790D01*
X60516997Y-8793791D01*
X60517005Y-8793856D01*
X60517938Y-8805693D01*
X60519327Y-8849889D01*
X60524978Y-8869339D01*
X60528987Y-8888700D01*
X60531526Y-8908797D01*
X60534445Y-8916168D01*
X60534445Y-8916170D01*
X60547804Y-8949912D01*
X60551649Y-8961142D01*
X60561275Y-8994276D01*
X60563982Y-9003593D01*
X60568015Y-9010412D01*
X60568017Y-9010417D01*
X60574293Y-9021028D01*
X60582988Y-9038776D01*
X60590448Y-9057617D01*
X60595110Y-9064033D01*
X60595110Y-9064034D01*
X60616436Y-9093387D01*
X60622952Y-9103307D01*
X60641103Y-9133998D01*
X60645458Y-9141362D01*
X60659779Y-9155683D01*
X60672619Y-9170716D01*
X60684528Y-9187107D01*
X60700113Y-9200000D01*
X60718605Y-9215298D01*
X60727384Y-9223288D01*
X65596343Y-14092247D01*
X65603887Y-14100537D01*
X65608000Y-14107018D01*
X65613777Y-14112443D01*
X65657667Y-14153658D01*
X65660509Y-14156413D01*
X65680230Y-14176134D01*
X65683354Y-14178557D01*
X65683358Y-14178561D01*
X65683423Y-14178611D01*
X65692443Y-14186316D01*
X65724679Y-14216586D01*
X65736492Y-14223080D01*
X65742431Y-14226345D01*
X65758953Y-14237198D01*
X65774959Y-14249614D01*
X65782237Y-14252764D01*
X65782238Y-14252764D01*
X65815537Y-14267174D01*
X65826187Y-14272391D01*
X65864940Y-14293695D01*
X65872615Y-14295666D01*
X65872616Y-14295666D01*
X65884562Y-14298733D01*
X65903266Y-14305137D01*
X65909922Y-14308017D01*
X65921855Y-14313181D01*
X65929678Y-14314420D01*
X65929688Y-14314423D01*
X65965524Y-14320099D01*
X65977144Y-14322505D01*
X66008959Y-14330673D01*
X66019970Y-14333500D01*
X66040224Y-14333500D01*
X66059934Y-14335051D01*
X66079943Y-14338220D01*
X66087835Y-14337474D01*
X66106580Y-14335702D01*
X66123962Y-14334059D01*
X66135819Y-14333500D01*
X67921233Y-14333500D01*
X67932416Y-14334027D01*
X67939909Y-14335702D01*
X67947835Y-14335453D01*
X67947836Y-14335453D01*
X68007986Y-14333562D01*
X68011945Y-14333500D01*
X68039856Y-14333500D01*
X68043791Y-14333003D01*
X68043856Y-14332995D01*
X68055693Y-14332062D01*
X68088152Y-14331042D01*
X68091970Y-14330922D01*
X68099889Y-14330673D01*
X68119343Y-14325021D01*
X68138700Y-14321013D01*
X68150930Y-14319468D01*
X68150931Y-14319468D01*
X68158797Y-14318474D01*
X68166168Y-14315555D01*
X68166170Y-14315555D01*
X68199912Y-14302196D01*
X68211142Y-14298351D01*
X68245983Y-14288229D01*
X68245984Y-14288229D01*
X68253593Y-14286018D01*
X68260412Y-14281985D01*
X68260417Y-14281983D01*
X68271028Y-14275707D01*
X68288776Y-14267012D01*
X68307617Y-14259552D01*
X68337352Y-14237949D01*
X68343387Y-14233564D01*
X68353307Y-14227048D01*
X68384535Y-14208580D01*
X68384538Y-14208578D01*
X68391362Y-14204542D01*
X68405683Y-14190221D01*
X68420717Y-14177380D01*
X68430694Y-14170131D01*
X68437107Y-14165472D01*
X68465298Y-14131395D01*
X68473288Y-14122616D01*
X68949290Y-13646614D01*
X69011602Y-13612588D01*
X69082417Y-13617653D01*
X69129022Y-13648182D01*
X69181382Y-13702402D01*
X69223303Y-13729834D01*
X69324600Y-13796121D01*
X69333159Y-13801722D01*
X69339763Y-13804178D01*
X69339765Y-13804179D01*
X69496558Y-13862490D01*
X69496560Y-13862490D01*
X69503168Y-13864948D01*
X69577079Y-13874810D01*
X69675980Y-13888007D01*
X69675984Y-13888007D01*
X69682961Y-13888938D01*
X69689972Y-13888300D01*
X69689976Y-13888300D01*
X69805299Y-13877804D01*
X69812792Y-13877122D01*
X69882445Y-13890867D01*
X69933331Y-13939603D01*
X69946518Y-13962444D01*
X69950936Y-13967351D01*
X69950937Y-13967352D01*
X70054772Y-14082672D01*
X70074305Y-14104366D01*
X70079648Y-14108248D01*
X70218778Y-14209332D01*
X70228806Y-14216618D01*
X70234834Y-14219302D01*
X70234836Y-14219303D01*
X70397239Y-14291609D01*
X70403270Y-14294294D01*
X70486546Y-14311995D01*
X70583614Y-14332628D01*
X70583619Y-14332628D01*
X70590071Y-14334000D01*
X70781045Y-14334000D01*
X70787497Y-14332628D01*
X70787502Y-14332628D01*
X70824285Y-14324809D01*
X70895076Y-14330211D01*
X70944117Y-14363745D01*
X70984414Y-14408500D01*
X71036286Y-14466109D01*
X71047772Y-14478866D01*
X71053114Y-14482747D01*
X71053116Y-14482749D01*
X71129939Y-14538564D01*
X71173293Y-14594786D01*
X71179368Y-14665523D01*
X71146236Y-14728314D01*
X71084416Y-14763226D01*
X71055878Y-14766500D01*
X60409500Y-14766500D01*
X60341379Y-14746498D01*
X60294886Y-14692842D01*
X60283500Y-14640500D01*
X60283500Y-14333498D01*
X60283307Y-14331042D01*
X60281067Y-14302579D01*
X60281066Y-14302574D01*
X60280562Y-14296169D01*
X60245689Y-14176134D01*
X60236357Y-14144012D01*
X60236356Y-14144010D01*
X60234145Y-14136399D01*
X60197966Y-14075224D01*
X60153491Y-14000020D01*
X60153489Y-14000017D01*
X60149453Y-13993193D01*
X60031807Y-13875547D01*
X60024983Y-13871511D01*
X60024980Y-13871509D01*
X59912859Y-13805201D01*
X59888601Y-13790855D01*
X59880990Y-13788644D01*
X59880988Y-13788643D01*
X59812435Y-13768727D01*
X59728831Y-13744438D01*
X59722426Y-13743934D01*
X59722421Y-13743933D01*
X59693958Y-13741693D01*
X59693950Y-13741693D01*
X59691502Y-13741500D01*
X58534500Y-13741500D01*
X58466379Y-13721498D01*
X58419886Y-13667842D01*
X58408500Y-13615500D01*
X58408500Y-13584000D01*
X58428502Y-13515879D01*
X58482158Y-13469386D01*
X58534500Y-13458000D01*
X58765385Y-13458000D01*
X58780624Y-13453525D01*
X58781829Y-13452135D01*
X58783500Y-13444452D01*
X58783500Y-13439884D01*
X59291500Y-13439884D01*
X59295975Y-13455123D01*
X59297365Y-13456328D01*
X59305048Y-13457999D01*
X59688984Y-13457999D01*
X59693920Y-13457805D01*
X59722336Y-13455570D01*
X59734931Y-13453270D01*
X59880790Y-13410893D01*
X59895221Y-13404648D01*
X60024678Y-13328089D01*
X60037104Y-13318449D01*
X60143449Y-13212104D01*
X60153089Y-13199678D01*
X60229648Y-13070221D01*
X60235893Y-13055790D01*
X60274939Y-12921395D01*
X60274899Y-12907294D01*
X60267630Y-12904000D01*
X59309615Y-12904000D01*
X59294376Y-12908475D01*
X59293171Y-12909865D01*
X59291500Y-12917548D01*
X59291500Y-13439884D01*
X58783500Y-13439884D01*
X58783500Y-12522000D01*
X58803502Y-12453879D01*
X58857158Y-12407386D01*
X58909500Y-12396000D01*
X60261878Y-12396000D01*
X60275409Y-12392027D01*
X60276544Y-12384129D01*
X60235893Y-12244210D01*
X60229648Y-12229779D01*
X60153089Y-12100322D01*
X60143449Y-12087896D01*
X60037104Y-11981551D01*
X60024678Y-11971911D01*
X59895221Y-11895352D01*
X59880790Y-11889107D01*
X59734935Y-11846731D01*
X59722333Y-11844430D01*
X59693916Y-11842193D01*
X59688986Y-11842000D01*
X59491362Y-11842000D01*
X59423241Y-11821998D01*
X59376748Y-11768342D01*
X59366644Y-11698068D01*
X59374946Y-11669567D01*
X59375472Y-11668699D01*
X59383304Y-11643709D01*
X59411147Y-11554861D01*
X59426753Y-11505062D01*
X59433500Y-11431635D01*
X59433499Y-10768366D01*
X59433234Y-10765474D01*
X59427364Y-10701592D01*
X59426753Y-10694938D01*
X59422163Y-10680291D01*
X59420880Y-10609308D01*
X59458178Y-10548898D01*
X59509899Y-10521790D01*
X59510316Y-10521745D01*
X59646705Y-10470615D01*
X59763261Y-10383261D01*
X59850615Y-10266705D01*
X59901745Y-10130316D01*
X59908500Y-10068134D01*
X59908500Y-8171866D01*
X59901745Y-8109684D01*
X59850615Y-7973295D01*
X59763261Y-7856739D01*
X59646705Y-7769385D01*
X59638296Y-7766233D01*
X59638295Y-7766232D01*
X59579804Y-7744305D01*
X59523039Y-7701664D01*
X59498339Y-7635103D01*
X59513546Y-7565754D01*
X59535093Y-7537073D01*
X59572636Y-7499660D01*
X59572640Y-7499655D01*
X59576303Y-7496005D01*
X59587703Y-7480141D01*
X59614669Y-7442613D01*
X59711458Y-7307917D01*
X59714844Y-7301067D01*
X59811784Y-7104922D01*
X59811785Y-7104920D01*
X59814078Y-7100280D01*
X59881408Y-6878671D01*
X59906056Y-6691454D01*
X59934779Y-6626527D01*
X59994044Y-6587436D01*
X60065035Y-6586591D01*
X60120073Y-6618805D01*
G37*
%TD.AperFunction*%
%TA.AperFunction,Conductor*%
G36*
X91291687Y-12535572D02*
G01*
X91299062Y-12544068D01*
X91307098Y-12554207D01*
X91421829Y-12668739D01*
X91433240Y-12677751D01*
X91571243Y-12762816D01*
X91584424Y-12768963D01*
X91738710Y-12820138D01*
X91752086Y-12823005D01*
X91839864Y-12831999D01*
X91905591Y-12858840D01*
X91946373Y-12916956D01*
X91949261Y-12987893D01*
X91935474Y-13021484D01*
X91932916Y-13025810D01*
X91928053Y-13032079D01*
X91924903Y-13039359D01*
X91924902Y-13039360D01*
X91910493Y-13072657D01*
X91905276Y-13083307D01*
X91883972Y-13122060D01*
X91882001Y-13129735D01*
X91882001Y-13129736D01*
X91878934Y-13141682D01*
X91872530Y-13160386D01*
X91864486Y-13178975D01*
X91863247Y-13186798D01*
X91863244Y-13186808D01*
X91857568Y-13222644D01*
X91855162Y-13234264D01*
X91846321Y-13268699D01*
X91844167Y-13277090D01*
X91844167Y-13297344D01*
X91842616Y-13317054D01*
X91839447Y-13337063D01*
X91840193Y-13344955D01*
X91843608Y-13381081D01*
X91844167Y-13392939D01*
X91844167Y-13796121D01*
X91843640Y-13807304D01*
X91841965Y-13814797D01*
X91842214Y-13822723D01*
X91842214Y-13822724D01*
X91844105Y-13882874D01*
X91844167Y-13886833D01*
X91844167Y-13914744D01*
X91844664Y-13918678D01*
X91844664Y-13918679D01*
X91844672Y-13918744D01*
X91845605Y-13930581D01*
X91846994Y-13974777D01*
X91852645Y-13994227D01*
X91856654Y-14013588D01*
X91859193Y-14033685D01*
X91862112Y-14041056D01*
X91862112Y-14041058D01*
X91875471Y-14074800D01*
X91879316Y-14086030D01*
X91889438Y-14120871D01*
X91891649Y-14128481D01*
X91895682Y-14135300D01*
X91895684Y-14135305D01*
X91901960Y-14145916D01*
X91910655Y-14163664D01*
X91918115Y-14182505D01*
X91922777Y-14188921D01*
X91922777Y-14188922D01*
X91944103Y-14218275D01*
X91950619Y-14228195D01*
X91966566Y-14255159D01*
X91973125Y-14266250D01*
X91987446Y-14280571D01*
X92000286Y-14295604D01*
X92012195Y-14311995D01*
X92038866Y-14334059D01*
X92046272Y-14340186D01*
X92055051Y-14348176D01*
X92258280Y-14551405D01*
X92292306Y-14613717D01*
X92287241Y-14684532D01*
X92244694Y-14741368D01*
X92178174Y-14766179D01*
X92169185Y-14766500D01*
X89734500Y-14766500D01*
X89666379Y-14746498D01*
X89619886Y-14692842D01*
X89608500Y-14640500D01*
X89608500Y-12918850D01*
X89628502Y-12850729D01*
X89682158Y-12804236D01*
X89752432Y-12794132D01*
X89774167Y-12799257D01*
X89838611Y-12820632D01*
X89838613Y-12820632D01*
X89845139Y-12822797D01*
X89851975Y-12823497D01*
X89851978Y-12823498D01*
X89894798Y-12827885D01*
X89949600Y-12833500D01*
X90550400Y-12833500D01*
X90553646Y-12833163D01*
X90553650Y-12833163D01*
X90649308Y-12823238D01*
X90649312Y-12823237D01*
X90656166Y-12822526D01*
X90662702Y-12820345D01*
X90662704Y-12820345D01*
X90816998Y-12768868D01*
X90823946Y-12766550D01*
X90974348Y-12673478D01*
X91099305Y-12548303D01*
X91102102Y-12543765D01*
X91159353Y-12503176D01*
X91230276Y-12499946D01*
X91291687Y-12535572D01*
G37*
%TD.AperFunction*%
%TA.AperFunction,Conductor*%
G36*
X87296121Y-8966002D02*
G01*
X87342614Y-9019658D01*
X87354000Y-9072000D01*
X87354000Y-10389884D01*
X87358475Y-10405123D01*
X87359865Y-10406328D01*
X87367548Y-10407999D01*
X87530443Y-10407999D01*
X87598564Y-10428001D01*
X87645057Y-10481657D01*
X87655161Y-10551931D01*
X87625667Y-10616511D01*
X87606010Y-10634823D01*
X87536739Y-10686739D01*
X87449385Y-10803295D01*
X87398255Y-10939684D01*
X87391500Y-11001866D01*
X87391500Y-14640500D01*
X87371498Y-14708621D01*
X87317842Y-14755114D01*
X87265500Y-14766500D01*
X86934500Y-14766500D01*
X86866379Y-14746498D01*
X86819886Y-14692842D01*
X86808500Y-14640500D01*
X86808500Y-11001866D01*
X86801745Y-10939684D01*
X86750615Y-10803295D01*
X86663261Y-10686739D01*
X86654660Y-10680293D01*
X86593994Y-10634826D01*
X86551479Y-10577967D01*
X86546453Y-10507148D01*
X86580513Y-10444855D01*
X86642845Y-10410865D01*
X86669559Y-10408000D01*
X86827885Y-10408000D01*
X86843124Y-10403525D01*
X86844329Y-10402135D01*
X86846000Y-10394452D01*
X86846000Y-9072000D01*
X86866002Y-9003879D01*
X86919658Y-8957386D01*
X86972000Y-8946000D01*
X87228000Y-8946000D01*
X87296121Y-8966002D01*
G37*
%TD.AperFunction*%
%TA.AperFunction,Conductor*%
G36*
X81353527Y-11753502D02*
G01*
X81374501Y-11770405D01*
X82564750Y-12960654D01*
X82598776Y-13022966D01*
X82601054Y-13037453D01*
X82604163Y-13069160D01*
X82661418Y-13241273D01*
X82665065Y-13247295D01*
X82665066Y-13247297D01*
X82749670Y-13386995D01*
X82755380Y-13396424D01*
X82760269Y-13401487D01*
X82760270Y-13401488D01*
X82778878Y-13420757D01*
X82881382Y-13526902D01*
X82887278Y-13530760D01*
X82930453Y-13559013D01*
X82976501Y-13613050D01*
X82986025Y-13683405D01*
X82956001Y-13747740D01*
X82950555Y-13753540D01*
X82374500Y-14329595D01*
X82312188Y-14363621D01*
X82285405Y-14366500D01*
X79447338Y-14366500D01*
X79379824Y-14346885D01*
X79357845Y-14332937D01*
X79311047Y-14279547D01*
X79300542Y-14209332D01*
X79329667Y-14144584D01*
X79336265Y-14137457D01*
X79358644Y-14115078D01*
X79420956Y-14081052D01*
X79460580Y-14078829D01*
X79498094Y-14082672D01*
X79503126Y-14082929D01*
X79518124Y-14078525D01*
X79519329Y-14077135D01*
X79521000Y-14069452D01*
X79521000Y-14064885D01*
X80029000Y-14064885D01*
X80033475Y-14080124D01*
X80034865Y-14081329D01*
X80042548Y-14083000D01*
X80045438Y-14083000D01*
X80051953Y-14082663D01*
X80144057Y-14073106D01*
X80157456Y-14070212D01*
X80306107Y-14020619D01*
X80319286Y-14014445D01*
X80452173Y-13932212D01*
X80463574Y-13923176D01*
X80573986Y-13812571D01*
X80582998Y-13801160D01*
X80665004Y-13668120D01*
X80671151Y-13654939D01*
X80720491Y-13506186D01*
X80723358Y-13492810D01*
X80732672Y-13401903D01*
X80733000Y-13395487D01*
X80733000Y-13372115D01*
X80728525Y-13356876D01*
X80727135Y-13355671D01*
X80719452Y-13354000D01*
X80047115Y-13354000D01*
X80031876Y-13358475D01*
X80030671Y-13359865D01*
X80029000Y-13367548D01*
X80029000Y-14064885D01*
X79521000Y-14064885D01*
X79521000Y-13982886D01*
X79541002Y-13914765D01*
X79543549Y-13911163D01*
X79544758Y-13909118D01*
X79549614Y-13902858D01*
X79552759Y-13895589D01*
X79552762Y-13895585D01*
X79567174Y-13862280D01*
X79572391Y-13851630D01*
X79593695Y-13812877D01*
X79598733Y-13793254D01*
X79605137Y-13774551D01*
X79610033Y-13763237D01*
X79610033Y-13763236D01*
X79613181Y-13755962D01*
X79614420Y-13748139D01*
X79614423Y-13748129D01*
X79620099Y-13712293D01*
X79622505Y-13700673D01*
X79631528Y-13665528D01*
X79631528Y-13665527D01*
X79633500Y-13657847D01*
X79633500Y-13637593D01*
X79635051Y-13617882D01*
X79636980Y-13605703D01*
X79638220Y-13597874D01*
X79634059Y-13553855D01*
X79633500Y-13541998D01*
X79633500Y-12827885D01*
X80029000Y-12827885D01*
X80033475Y-12843124D01*
X80034865Y-12844329D01*
X80042548Y-12846000D01*
X80714885Y-12846000D01*
X80730124Y-12841525D01*
X80731329Y-12840135D01*
X80733000Y-12832452D01*
X80733000Y-12804562D01*
X80732663Y-12798047D01*
X80723106Y-12705943D01*
X80720212Y-12692544D01*
X80670619Y-12543893D01*
X80664445Y-12530714D01*
X80582212Y-12397827D01*
X80573176Y-12386426D01*
X80462571Y-12276014D01*
X80451160Y-12267002D01*
X80318120Y-12184996D01*
X80304939Y-12178849D01*
X80156186Y-12129509D01*
X80142810Y-12126642D01*
X80051903Y-12117328D01*
X80046874Y-12117071D01*
X80031876Y-12121475D01*
X80030671Y-12122865D01*
X80029000Y-12130548D01*
X80029000Y-12827885D01*
X79633500Y-12827885D01*
X79633500Y-12678763D01*
X79634027Y-12667579D01*
X79635701Y-12660091D01*
X79633562Y-12592032D01*
X79633500Y-12588075D01*
X79633500Y-12560144D01*
X79632994Y-12556138D01*
X79632061Y-12544292D01*
X79632060Y-12544238D01*
X79630673Y-12500110D01*
X79625022Y-12480658D01*
X79621014Y-12461306D01*
X79619467Y-12449063D01*
X79618474Y-12441203D01*
X79610907Y-12422090D01*
X79602200Y-12400097D01*
X79598355Y-12388870D01*
X79597645Y-12386426D01*
X79586018Y-12346407D01*
X79581984Y-12339585D01*
X79581981Y-12339579D01*
X79575706Y-12328968D01*
X79567010Y-12311218D01*
X79562472Y-12299756D01*
X79562469Y-12299751D01*
X79559552Y-12292383D01*
X79545063Y-12272441D01*
X79521205Y-12205575D01*
X79521000Y-12198382D01*
X79521000Y-12135115D01*
X79516525Y-12119876D01*
X79515135Y-12118671D01*
X79507452Y-12117000D01*
X79504562Y-12117000D01*
X79498040Y-12117337D01*
X79480887Y-12119117D01*
X79411066Y-12106251D01*
X79378790Y-12082885D01*
X79244500Y-11948595D01*
X79210474Y-11886283D01*
X79215539Y-11815468D01*
X79258086Y-11758632D01*
X79324606Y-11733821D01*
X79333595Y-11733500D01*
X81285406Y-11733500D01*
X81353527Y-11753502D01*
G37*
%TD.AperFunction*%
%TA.AperFunction,Conductor*%
G36*
X65608328Y-5280502D02*
G01*
X65654821Y-5334158D01*
X65666145Y-5382545D01*
X65666438Y-5391874D01*
X65666500Y-5395829D01*
X65666500Y-5423740D01*
X65666997Y-5427674D01*
X65666997Y-5427675D01*
X65667005Y-5427740D01*
X65667938Y-5439577D01*
X65669327Y-5483773D01*
X65674978Y-5503223D01*
X65678987Y-5522584D01*
X65681526Y-5542681D01*
X65684445Y-5550052D01*
X65684445Y-5550054D01*
X65697804Y-5583796D01*
X65701649Y-5595026D01*
X65711769Y-5629861D01*
X65713982Y-5637477D01*
X65718015Y-5644296D01*
X65718017Y-5644301D01*
X65724293Y-5654912D01*
X65732988Y-5672660D01*
X65740448Y-5691501D01*
X65745110Y-5697917D01*
X65745110Y-5697918D01*
X65766436Y-5727271D01*
X65772952Y-5737191D01*
X65788955Y-5764250D01*
X65795458Y-5775246D01*
X65809779Y-5789567D01*
X65822619Y-5804600D01*
X65834528Y-5820991D01*
X65859319Y-5841500D01*
X65868605Y-5849182D01*
X65877384Y-5857172D01*
X66944611Y-6924400D01*
X66978637Y-6986712D01*
X66973572Y-7057528D01*
X66931025Y-7114363D01*
X66895391Y-7133019D01*
X66793895Y-7166880D01*
X66780714Y-7173055D01*
X66647827Y-7255288D01*
X66636426Y-7264324D01*
X66526014Y-7374929D01*
X66517002Y-7386340D01*
X66434996Y-7519380D01*
X66428849Y-7532561D01*
X66379509Y-7681314D01*
X66376642Y-7694690D01*
X66367328Y-7785597D01*
X66367000Y-7792014D01*
X66367000Y-7815385D01*
X66371475Y-7830624D01*
X66372865Y-7831829D01*
X66380548Y-7833500D01*
X67453000Y-7833500D01*
X67521121Y-7853502D01*
X67567614Y-7907158D01*
X67579000Y-7959500D01*
X67579000Y-9070500D01*
X67578895Y-9070500D01*
X67580369Y-9111754D01*
X67579000Y-9118047D01*
X67579000Y-11052385D01*
X67583475Y-11067624D01*
X67584865Y-11068829D01*
X67592548Y-11070500D01*
X67595438Y-11070500D01*
X67601953Y-11070163D01*
X67700916Y-11059894D01*
X67701159Y-11062237D01*
X67761018Y-11066609D01*
X67817789Y-11109242D01*
X67842498Y-11175800D01*
X67827302Y-11245151D01*
X67805901Y-11273693D01*
X67738907Y-11340687D01*
X67676595Y-11374713D01*
X67662983Y-11376902D01*
X67632288Y-11380128D01*
X67632286Y-11380128D01*
X67625288Y-11380864D01*
X67453579Y-11439318D01*
X67391109Y-11477750D01*
X67305095Y-11530666D01*
X67305092Y-11530668D01*
X67299088Y-11534362D01*
X67294053Y-11539293D01*
X67294050Y-11539295D01*
X67181905Y-11649116D01*
X67169493Y-11661271D01*
X67071235Y-11813738D01*
X67068826Y-11820358D01*
X67068824Y-11820361D01*
X67029796Y-11927589D01*
X67009197Y-11984185D01*
X66986463Y-12164140D01*
X67004163Y-12344660D01*
X67061418Y-12516773D01*
X67065065Y-12522795D01*
X67065066Y-12522797D01*
X67151490Y-12665500D01*
X67155380Y-12671924D01*
X67160269Y-12676987D01*
X67160270Y-12676988D01*
X67212628Y-12731206D01*
X67281382Y-12802402D01*
X67312135Y-12822526D01*
X67331301Y-12835068D01*
X67377350Y-12889105D01*
X67386873Y-12959460D01*
X67356849Y-13023795D01*
X67296808Y-13061685D01*
X67262308Y-13066500D01*
X66414594Y-13066500D01*
X66346473Y-13046498D01*
X66325499Y-13029595D01*
X63678843Y-10382938D01*
X66367000Y-10382938D01*
X66367337Y-10389453D01*
X66376894Y-10481557D01*
X66379788Y-10494956D01*
X66429381Y-10643607D01*
X66435555Y-10656786D01*
X66517788Y-10789673D01*
X66526824Y-10801074D01*
X66637429Y-10911486D01*
X66648840Y-10920498D01*
X66781880Y-11002504D01*
X66795061Y-11008651D01*
X66943814Y-11057991D01*
X66957190Y-11060858D01*
X67048097Y-11070172D01*
X67053126Y-11070429D01*
X67068124Y-11066025D01*
X67069329Y-11064635D01*
X67071000Y-11056952D01*
X67071000Y-10359615D01*
X67066525Y-10344376D01*
X67065135Y-10343171D01*
X67057452Y-10341500D01*
X66385115Y-10341500D01*
X66369876Y-10345975D01*
X66368671Y-10347365D01*
X66367000Y-10355048D01*
X66367000Y-10382938D01*
X63678843Y-10382938D01*
X63111290Y-9815385D01*
X66367000Y-9815385D01*
X66371475Y-9830624D01*
X66372865Y-9831829D01*
X66380548Y-9833500D01*
X67052885Y-9833500D01*
X67068124Y-9829025D01*
X67069329Y-9827635D01*
X67071000Y-9819952D01*
X67071000Y-9104500D01*
X67071105Y-9104500D01*
X67069631Y-9063246D01*
X67071000Y-9056953D01*
X67071000Y-8359615D01*
X67066525Y-8344376D01*
X67065135Y-8343171D01*
X67057452Y-8341500D01*
X66385115Y-8341500D01*
X66369876Y-8345975D01*
X66368671Y-8347365D01*
X66367000Y-8355048D01*
X66367000Y-8382938D01*
X66367337Y-8389453D01*
X66376894Y-8481557D01*
X66379788Y-8494956D01*
X66429381Y-8643607D01*
X66435555Y-8656786D01*
X66517788Y-8789673D01*
X66526824Y-8801074D01*
X66637429Y-8911486D01*
X66648840Y-8920498D01*
X66745700Y-8980203D01*
X66793193Y-9032975D01*
X66804617Y-9103047D01*
X66776343Y-9168171D01*
X66745887Y-9194608D01*
X66647821Y-9255293D01*
X66636426Y-9264324D01*
X66526014Y-9374929D01*
X66517002Y-9386340D01*
X66434996Y-9519380D01*
X66428849Y-9532561D01*
X66379509Y-9681314D01*
X66376642Y-9694690D01*
X66367328Y-9785597D01*
X66367000Y-9792014D01*
X66367000Y-9815385D01*
X63111290Y-9815385D01*
X61820405Y-8524500D01*
X61786379Y-8462188D01*
X61783500Y-8435405D01*
X61783500Y-6843018D01*
X61785387Y-6825924D01*
X61785233Y-6825909D01*
X61785979Y-6818016D01*
X61787708Y-6810281D01*
X61782665Y-6649795D01*
X61773418Y-6617964D01*
X61769654Y-6599791D01*
X61769467Y-6599064D01*
X61768474Y-6591203D01*
X61765557Y-6583837D01*
X61765556Y-6583831D01*
X61760024Y-6569858D01*
X61756179Y-6558630D01*
X61751093Y-6541125D01*
X61737869Y-6495607D01*
X61720996Y-6467077D01*
X61712832Y-6450412D01*
X61712470Y-6449754D01*
X61709552Y-6442383D01*
X61704896Y-6435974D01*
X61704892Y-6435967D01*
X61702775Y-6433053D01*
X61701823Y-6430385D01*
X61701074Y-6429022D01*
X61701294Y-6428901D01*
X61678921Y-6366183D01*
X61695006Y-6297033D01*
X61745924Y-6247556D01*
X61804716Y-6232999D01*
X61997095Y-6232999D01*
X62003614Y-6232662D01*
X62099206Y-6222743D01*
X62112600Y-6219851D01*
X62266784Y-6168412D01*
X62279962Y-6162239D01*
X62417807Y-6076937D01*
X62429208Y-6067901D01*
X62543738Y-5953172D01*
X62550794Y-5944238D01*
X62608712Y-5903177D01*
X62679635Y-5899947D01*
X62741046Y-5935574D01*
X62747846Y-5943407D01*
X62751522Y-5949348D01*
X62876697Y-6074305D01*
X62882927Y-6078145D01*
X62906618Y-6092749D01*
X62954110Y-6145522D01*
X62966500Y-6200008D01*
X62966500Y-6229030D01*
X62958901Y-6272125D01*
X62913445Y-6397015D01*
X62909197Y-6408685D01*
X62886463Y-6588640D01*
X62904163Y-6769160D01*
X62961418Y-6941273D01*
X62965065Y-6947295D01*
X62965066Y-6947297D01*
X63037869Y-7067509D01*
X63055380Y-7096424D01*
X63060269Y-7101487D01*
X63060270Y-7101488D01*
X63118852Y-7162151D01*
X63181382Y-7226902D01*
X63256173Y-7275844D01*
X63312662Y-7312809D01*
X63333159Y-7326222D01*
X63339763Y-7328678D01*
X63339765Y-7328679D01*
X63496558Y-7386990D01*
X63496560Y-7386990D01*
X63503168Y-7389448D01*
X63586995Y-7400633D01*
X63675980Y-7412507D01*
X63675984Y-7412507D01*
X63682961Y-7413438D01*
X63689972Y-7412800D01*
X63689976Y-7412800D01*
X63832459Y-7399832D01*
X63863600Y-7396998D01*
X63870302Y-7394820D01*
X63870304Y-7394820D01*
X64029409Y-7343124D01*
X64029412Y-7343123D01*
X64036108Y-7340947D01*
X64149676Y-7273247D01*
X64185860Y-7251677D01*
X64185862Y-7251676D01*
X64191912Y-7248069D01*
X64323266Y-7122982D01*
X64423643Y-6971902D01*
X64469812Y-6850363D01*
X64485555Y-6808920D01*
X64485556Y-6808918D01*
X64488055Y-6802338D01*
X64489054Y-6795229D01*
X64512748Y-6626639D01*
X64512748Y-6626636D01*
X64513299Y-6622717D01*
X64513616Y-6600000D01*
X64493397Y-6419745D01*
X64491080Y-6413091D01*
X64436064Y-6255106D01*
X64436062Y-6255103D01*
X64433745Y-6248448D01*
X64424092Y-6232999D01*
X64377451Y-6158358D01*
X64358315Y-6089989D01*
X64379181Y-6022128D01*
X64395132Y-6002572D01*
X64444130Y-5953488D01*
X64444134Y-5953483D01*
X64449305Y-5948303D01*
X64468682Y-5916868D01*
X64538275Y-5803968D01*
X64538276Y-5803966D01*
X64542115Y-5797738D01*
X64590385Y-5652209D01*
X64595632Y-5636389D01*
X64595632Y-5636387D01*
X64597797Y-5629861D01*
X64599958Y-5608775D01*
X64606186Y-5547980D01*
X64608500Y-5525400D01*
X64608500Y-5386500D01*
X64628502Y-5318379D01*
X64682158Y-5271886D01*
X64734500Y-5260500D01*
X65540207Y-5260500D01*
X65608328Y-5280502D01*
G37*
%TD.AperFunction*%
%TA.AperFunction,Conductor*%
G36*
X60656699Y-528502D02*
G01*
X60703192Y-582158D01*
X60713296Y-652432D01*
X60683802Y-717012D01*
X60677675Y-723593D01*
X59940862Y-1460405D01*
X59206517Y-2194750D01*
X59198191Y-2202326D01*
X59191697Y-2206447D01*
X59186274Y-2212222D01*
X59144915Y-2256265D01*
X59142160Y-2259107D01*
X59122361Y-2278906D01*
X59119937Y-2282031D01*
X59119929Y-2282040D01*
X59119863Y-2282126D01*
X59112155Y-2291151D01*
X59081783Y-2323494D01*
X59077965Y-2330438D01*
X59077964Y-2330440D01*
X59071978Y-2341329D01*
X59061127Y-2357847D01*
X59048650Y-2373933D01*
X59031024Y-2414666D01*
X59025807Y-2425314D01*
X59004431Y-2464197D01*
X59002460Y-2471872D01*
X59002458Y-2471878D01*
X58999369Y-2483911D01*
X58992966Y-2502613D01*
X58984883Y-2521292D01*
X58982962Y-2533421D01*
X58977940Y-2565127D01*
X58975535Y-2576740D01*
X58964500Y-2619718D01*
X58964500Y-2640065D01*
X58962949Y-2659776D01*
X58961976Y-2665918D01*
X58959765Y-2679879D01*
X58960511Y-2687771D01*
X58963941Y-2724056D01*
X58964500Y-2735914D01*
X58964500Y-3374799D01*
X58944498Y-3442920D01*
X58890842Y-3489413D01*
X58820568Y-3499517D01*
X58776337Y-3481564D01*
X58775320Y-3483413D01*
X58757566Y-3473652D01*
X58741047Y-3462801D01*
X58738547Y-3460862D01*
X58725041Y-3450386D01*
X58717772Y-3447241D01*
X58717768Y-3447238D01*
X58684463Y-3432826D01*
X58673813Y-3427609D01*
X58635060Y-3406305D01*
X58615437Y-3401267D01*
X58596734Y-3394863D01*
X58585420Y-3389967D01*
X58585419Y-3389967D01*
X58578145Y-3386819D01*
X58570322Y-3385580D01*
X58570312Y-3385577D01*
X58534476Y-3379901D01*
X58522856Y-3377495D01*
X58487711Y-3368472D01*
X58487710Y-3368472D01*
X58480030Y-3366500D01*
X58459776Y-3366500D01*
X58440065Y-3364949D01*
X58427886Y-3363020D01*
X58420057Y-3361780D01*
X58390786Y-3364547D01*
X58376039Y-3365941D01*
X58364181Y-3366500D01*
X11426356Y-3366500D01*
X11415173Y-3365973D01*
X11407680Y-3364298D01*
X11399754Y-3364547D01*
X11399753Y-3364547D01*
X11339590Y-3366438D01*
X11335632Y-3366500D01*
X11307732Y-3366500D01*
X11303742Y-3367004D01*
X11291908Y-3367936D01*
X11247699Y-3369326D01*
X11240083Y-3371539D01*
X11240081Y-3371539D01*
X11228240Y-3374979D01*
X11208881Y-3378988D01*
X11207571Y-3379154D01*
X11188791Y-3381526D01*
X11181425Y-3384442D01*
X11181419Y-3384444D01*
X11147686Y-3397800D01*
X11136456Y-3401645D01*
X11101605Y-3411770D01*
X11093995Y-3413981D01*
X11087172Y-3418016D01*
X11076554Y-3424295D01*
X11058801Y-3432992D01*
X11051735Y-3435790D01*
X11039971Y-3440448D01*
X11030064Y-3447646D01*
X11004200Y-3466437D01*
X10994283Y-3472951D01*
X10956226Y-3495458D01*
X10941905Y-3509779D01*
X10926872Y-3522619D01*
X10910481Y-3534528D01*
X10894784Y-3553502D01*
X10882290Y-3568605D01*
X10874300Y-3577384D01*
X7807747Y-6643936D01*
X7799461Y-6651476D01*
X7792982Y-6655588D01*
X7787557Y-6661365D01*
X7746357Y-6705239D01*
X7743602Y-6708081D01*
X7723865Y-6727818D01*
X7721385Y-6731015D01*
X7713682Y-6740035D01*
X7683414Y-6772267D01*
X7679595Y-6779213D01*
X7679593Y-6779216D01*
X7673652Y-6790022D01*
X7662801Y-6806541D01*
X7650386Y-6822547D01*
X7647241Y-6829816D01*
X7647238Y-6829820D01*
X7632826Y-6863125D01*
X7627609Y-6873775D01*
X7606305Y-6912528D01*
X7604334Y-6920203D01*
X7604334Y-6920204D01*
X7601267Y-6932150D01*
X7594863Y-6950854D01*
X7592760Y-6955715D01*
X7586819Y-6969443D01*
X7585580Y-6977266D01*
X7585577Y-6977276D01*
X7579901Y-7013112D01*
X7577495Y-7024732D01*
X7570041Y-7053767D01*
X7566500Y-7067558D01*
X7566500Y-7087812D01*
X7564949Y-7107522D01*
X7561780Y-7127531D01*
X7562526Y-7135423D01*
X7565941Y-7171549D01*
X7566500Y-7183407D01*
X7566500Y-10285406D01*
X7546498Y-10353527D01*
X7529595Y-10374501D01*
X6723095Y-11181001D01*
X6660783Y-11215027D01*
X6589968Y-11209962D01*
X6533132Y-11167415D01*
X6508321Y-11100895D01*
X6508000Y-11091906D01*
X6508000Y-11022115D01*
X6503525Y-11006876D01*
X6502135Y-11005671D01*
X6494452Y-11004000D01*
X4510116Y-11004000D01*
X4494877Y-11008475D01*
X4493672Y-11009865D01*
X4492001Y-11017548D01*
X4492001Y-12190500D01*
X4471999Y-12258621D01*
X4418343Y-12305114D01*
X4366002Y-12316500D01*
X4173013Y-12316501D01*
X4168366Y-12316501D01*
X4165508Y-12316764D01*
X4165499Y-12316764D01*
X4133241Y-12319728D01*
X4094938Y-12323247D01*
X4088560Y-12325246D01*
X4088559Y-12325246D01*
X3938550Y-12372256D01*
X3938548Y-12372257D01*
X3931301Y-12374528D01*
X3784619Y-12463361D01*
X3689095Y-12558885D01*
X3626783Y-12592911D01*
X3555968Y-12587846D01*
X3510905Y-12558885D01*
X3415381Y-12463361D01*
X3268699Y-12374528D01*
X3261452Y-12372257D01*
X3261450Y-12372256D01*
X3178965Y-12346407D01*
X3105062Y-12323247D01*
X3031635Y-12316500D01*
X3013526Y-12316500D01*
X2739595Y-12316501D01*
X2671476Y-12296499D01*
X2650501Y-12279596D01*
X2545405Y-12174500D01*
X2511379Y-12112188D01*
X2508500Y-12085405D01*
X2508500Y-10477885D01*
X4492000Y-10477885D01*
X4496475Y-10493124D01*
X4497865Y-10494329D01*
X4505548Y-10496000D01*
X5227885Y-10496000D01*
X5243124Y-10491525D01*
X5244329Y-10490135D01*
X5246000Y-10482452D01*
X5246000Y-10477885D01*
X5754000Y-10477885D01*
X5758475Y-10493124D01*
X5759865Y-10494329D01*
X5767548Y-10496000D01*
X6489884Y-10496000D01*
X6505123Y-10491525D01*
X6506328Y-10490135D01*
X6507999Y-10482452D01*
X6507999Y-9305331D01*
X6507629Y-9298510D01*
X6502105Y-9247648D01*
X6498479Y-9232396D01*
X6453324Y-9111946D01*
X6444786Y-9096351D01*
X6368285Y-8994276D01*
X6355724Y-8981715D01*
X6253649Y-8905214D01*
X6238054Y-8896676D01*
X6117606Y-8851522D01*
X6102351Y-8847895D01*
X6051486Y-8842369D01*
X6044672Y-8842000D01*
X5772115Y-8842000D01*
X5756876Y-8846475D01*
X5755671Y-8847865D01*
X5754000Y-8855548D01*
X5754000Y-10477885D01*
X5246000Y-10477885D01*
X5246000Y-8860116D01*
X5241525Y-8844877D01*
X5240135Y-8843672D01*
X5232452Y-8842001D01*
X4955331Y-8842001D01*
X4948510Y-8842371D01*
X4897648Y-8847895D01*
X4882396Y-8851521D01*
X4761946Y-8896676D01*
X4746351Y-8905214D01*
X4644276Y-8981715D01*
X4631715Y-8994276D01*
X4555214Y-9096351D01*
X4546676Y-9111946D01*
X4501522Y-9232394D01*
X4497895Y-9247649D01*
X4492369Y-9298514D01*
X4492000Y-9305328D01*
X4492000Y-10477885D01*
X2508500Y-10477885D01*
X2508500Y-9301866D01*
X2501745Y-9239684D01*
X2450615Y-9103295D01*
X2363261Y-8986739D01*
X2246705Y-8899385D01*
X2238296Y-8896232D01*
X2238293Y-8896231D01*
X2215269Y-8887599D01*
X2158505Y-8844957D01*
X2133806Y-8778395D01*
X2133500Y-8769618D01*
X2133500Y-6930382D01*
X2153502Y-6862261D01*
X2207158Y-6815768D01*
X2215269Y-6812401D01*
X2238293Y-6803769D01*
X2238296Y-6803768D01*
X2246705Y-6800615D01*
X2363261Y-6713261D01*
X2450615Y-6596705D01*
X2501745Y-6460316D01*
X2508500Y-6398134D01*
X2508500Y-5824885D01*
X2528502Y-5756764D01*
X2582158Y-5710271D01*
X2652432Y-5700167D01*
X2717012Y-5729661D01*
X2742276Y-5759614D01*
X2816334Y-5881899D01*
X2824486Y-5895360D01*
X2829375Y-5900423D01*
X2829376Y-5900424D01*
X2894896Y-5968271D01*
X2950488Y-6025838D01*
X2994854Y-6054870D01*
X3094073Y-6119797D01*
X3102265Y-6125158D01*
X3108721Y-6127559D01*
X3160459Y-6176083D01*
X3177765Y-6244938D01*
X3155099Y-6312219D01*
X3117888Y-6347296D01*
X3099088Y-6358862D01*
X3094053Y-6363793D01*
X3094050Y-6363795D01*
X2974525Y-6480843D01*
X2969493Y-6485771D01*
X2871235Y-6638238D01*
X2868826Y-6644858D01*
X2868824Y-6644861D01*
X2814045Y-6795366D01*
X2809197Y-6808685D01*
X2786463Y-6988640D01*
X2804163Y-7169160D01*
X2861418Y-7341273D01*
X2865065Y-7347295D01*
X2865066Y-7347297D01*
X2945519Y-7480141D01*
X2955380Y-7496424D01*
X2960269Y-7501487D01*
X2960270Y-7501488D01*
X2998543Y-7541120D01*
X3081382Y-7626902D01*
X3233159Y-7726222D01*
X3239763Y-7728678D01*
X3239765Y-7728679D01*
X3396558Y-7786990D01*
X3396560Y-7786990D01*
X3403168Y-7789448D01*
X3482250Y-7800000D01*
X3575980Y-7812507D01*
X3575984Y-7812507D01*
X3582961Y-7813438D01*
X3589972Y-7812800D01*
X3589976Y-7812800D01*
X3732459Y-7799832D01*
X3763600Y-7796998D01*
X3770302Y-7794820D01*
X3770304Y-7794820D01*
X3929409Y-7743124D01*
X3929412Y-7743123D01*
X3936108Y-7740947D01*
X4047064Y-7674804D01*
X4085860Y-7651677D01*
X4085862Y-7651676D01*
X4091912Y-7648069D01*
X4223266Y-7522982D01*
X4323643Y-7371902D01*
X4376750Y-7232099D01*
X4385555Y-7208920D01*
X4385556Y-7208918D01*
X4388055Y-7202338D01*
X4391337Y-7178987D01*
X4412748Y-7026639D01*
X4412748Y-7026636D01*
X4413299Y-7022717D01*
X4413506Y-7007881D01*
X4413561Y-7003962D01*
X4413561Y-7003957D01*
X4413616Y-7000000D01*
X4393397Y-6819745D01*
X4390324Y-6810919D01*
X4379278Y-6779201D01*
X4375764Y-6708292D01*
X4411145Y-6646739D01*
X4474188Y-6614087D01*
X4544875Y-6620701D01*
X4599095Y-6662199D01*
X4631715Y-6705724D01*
X4644276Y-6718285D01*
X4746351Y-6794786D01*
X4761946Y-6803324D01*
X4882394Y-6848478D01*
X4897649Y-6852105D01*
X4948514Y-6857631D01*
X4955328Y-6858000D01*
X5227885Y-6858000D01*
X5243124Y-6853525D01*
X5244329Y-6852135D01*
X5246000Y-6844452D01*
X5246000Y-6839884D01*
X5754000Y-6839884D01*
X5758475Y-6855123D01*
X5759865Y-6856328D01*
X5767548Y-6857999D01*
X6044669Y-6857999D01*
X6051490Y-6857629D01*
X6102352Y-6852105D01*
X6117604Y-6848479D01*
X6238054Y-6803324D01*
X6253649Y-6794786D01*
X6355724Y-6718285D01*
X6368285Y-6705724D01*
X6444786Y-6603649D01*
X6453324Y-6588054D01*
X6498478Y-6467606D01*
X6502105Y-6452351D01*
X6507631Y-6401486D01*
X6508000Y-6394672D01*
X6508000Y-5222115D01*
X6503525Y-5206876D01*
X6502135Y-5205671D01*
X6494452Y-5204000D01*
X5772115Y-5204000D01*
X5756876Y-5208475D01*
X5755671Y-5209865D01*
X5754000Y-5217548D01*
X5754000Y-6839884D01*
X5246000Y-6839884D01*
X5246000Y-5222115D01*
X5241525Y-5206876D01*
X5240135Y-5205671D01*
X5232452Y-5204000D01*
X4510116Y-5204000D01*
X4494877Y-5208475D01*
X4473296Y-5233380D01*
X4464632Y-5249246D01*
X4402319Y-5283269D01*
X4331503Y-5278201D01*
X4274669Y-5235652D01*
X4256549Y-5201584D01*
X4247259Y-5174905D01*
X4235267Y-5140470D01*
X4205170Y-5054042D01*
X4205168Y-5054039D01*
X4202851Y-5047384D01*
X4199115Y-5041405D01*
X4137838Y-4943340D01*
X4118702Y-4874971D01*
X4139568Y-4807110D01*
X4157800Y-4785326D01*
X4218159Y-4727847D01*
X4218167Y-4727838D01*
X4223266Y-4722982D01*
X4229583Y-4713475D01*
X4269164Y-4653900D01*
X4323522Y-4608229D01*
X4393941Y-4599197D01*
X4458065Y-4629670D01*
X4495008Y-4688129D01*
X4496475Y-4693124D01*
X4497865Y-4694329D01*
X4505548Y-4696000D01*
X5227885Y-4696000D01*
X5243124Y-4691525D01*
X5244329Y-4690135D01*
X5246000Y-4682452D01*
X5246000Y-4677885D01*
X5754000Y-4677885D01*
X5758475Y-4693124D01*
X5759865Y-4694329D01*
X5767548Y-4696000D01*
X6489884Y-4696000D01*
X6505123Y-4691525D01*
X6506328Y-4690135D01*
X6507999Y-4682452D01*
X6507999Y-3505331D01*
X6507629Y-3498510D01*
X6502105Y-3447648D01*
X6498479Y-3432396D01*
X6453324Y-3311946D01*
X6444786Y-3296351D01*
X6368285Y-3194276D01*
X6355724Y-3181715D01*
X6253649Y-3105214D01*
X6238054Y-3096676D01*
X6117606Y-3051522D01*
X6102351Y-3047895D01*
X6051486Y-3042369D01*
X6044672Y-3042000D01*
X5772115Y-3042000D01*
X5756876Y-3046475D01*
X5755671Y-3047865D01*
X5754000Y-3055548D01*
X5754000Y-4677885D01*
X5246000Y-4677885D01*
X5246000Y-3042001D01*
X5249645Y-3042001D01*
X5249645Y-3001533D01*
X5263281Y-2970916D01*
X5265005Y-2968120D01*
X5271151Y-2954939D01*
X5320491Y-2806186D01*
X5323358Y-2792810D01*
X5332672Y-2701903D01*
X5333000Y-2695487D01*
X5333000Y-2672115D01*
X5328525Y-2656876D01*
X5327135Y-2655671D01*
X5319452Y-2654000D01*
X4647115Y-2654000D01*
X4631876Y-2658475D01*
X4630671Y-2659865D01*
X4629000Y-2667548D01*
X4629000Y-3297600D01*
X4608998Y-3365721D01*
X4555342Y-3412214D01*
X4538498Y-3418496D01*
X4507919Y-3427475D01*
X4500714Y-3435790D01*
X4497895Y-3447646D01*
X4492369Y-3498514D01*
X4492000Y-3505328D01*
X4492000Y-3662295D01*
X4471998Y-3730416D01*
X4418342Y-3776909D01*
X4348068Y-3787013D01*
X4283488Y-3757519D01*
X4259150Y-3729070D01*
X4237626Y-3694624D01*
X4109911Y-3566014D01*
X4076104Y-3503585D01*
X4081416Y-3432787D01*
X4104093Y-3394719D01*
X4119328Y-3377136D01*
X4121000Y-3369452D01*
X4121000Y-2127885D01*
X4629000Y-2127885D01*
X4633475Y-2143124D01*
X4634865Y-2144329D01*
X4642548Y-2146000D01*
X5314885Y-2146000D01*
X5330124Y-2141525D01*
X5331329Y-2140135D01*
X5333000Y-2132452D01*
X5333000Y-2104562D01*
X5332663Y-2098047D01*
X5323106Y-2005943D01*
X5320212Y-1992544D01*
X5270619Y-1843893D01*
X5264445Y-1830714D01*
X5182212Y-1697827D01*
X5173176Y-1686426D01*
X5062571Y-1576014D01*
X5051160Y-1567002D01*
X4918120Y-1484996D01*
X4904939Y-1478849D01*
X4756186Y-1429509D01*
X4742810Y-1426642D01*
X4651903Y-1417328D01*
X4646874Y-1417071D01*
X4631876Y-1421475D01*
X4630671Y-1422865D01*
X4629000Y-1430548D01*
X4629000Y-2127885D01*
X4121000Y-2127885D01*
X4121000Y-1435115D01*
X4116525Y-1419876D01*
X4115135Y-1418671D01*
X4107452Y-1417000D01*
X4104562Y-1417000D01*
X4098047Y-1417337D01*
X4005943Y-1426894D01*
X3992544Y-1429788D01*
X3843893Y-1479381D01*
X3830714Y-1485555D01*
X3697827Y-1567788D01*
X3680689Y-1581371D01*
X3679159Y-1579441D01*
X3627120Y-1607903D01*
X3556301Y-1602887D01*
X3519383Y-1579201D01*
X3518628Y-1580157D01*
X3512882Y-1575619D01*
X3507702Y-1570448D01*
X3456871Y-1539115D01*
X3368331Y-1484538D01*
X3368329Y-1484537D01*
X3362101Y-1480698D01*
X3199757Y-1426851D01*
X3192920Y-1426151D01*
X3192918Y-1426150D01*
X3151599Y-1421917D01*
X3098732Y-1416500D01*
X2551268Y-1416500D01*
X2548022Y-1416837D01*
X2548018Y-1416837D01*
X2518730Y-1419876D01*
X2448981Y-1427113D01*
X2424996Y-1435115D01*
X2293676Y-1478927D01*
X2293674Y-1478928D01*
X2286732Y-1481244D01*
X2280508Y-1485096D01*
X2280507Y-1485096D01*
X2158016Y-1560896D01*
X2141287Y-1571248D01*
X2136114Y-1576430D01*
X2131182Y-1581371D01*
X2020448Y-1692298D01*
X2016608Y-1698528D01*
X2016607Y-1698529D01*
X1935663Y-1829845D01*
X1930698Y-1837899D01*
X1876851Y-2000243D01*
X1866500Y-2101268D01*
X1866500Y-2410405D01*
X1846498Y-2478526D01*
X1829595Y-2499501D01*
X1324499Y-3004596D01*
X1262187Y-3038621D01*
X1235404Y-3041500D01*
X951866Y-3041500D01*
X889684Y-3048255D01*
X753295Y-3099385D01*
X746110Y-3104770D01*
X746108Y-3104771D01*
X710065Y-3131784D01*
X643558Y-3156632D01*
X574176Y-3141579D01*
X523946Y-3091405D01*
X508500Y-3030958D01*
X508500Y-2553250D01*
X510246Y-2532345D01*
X512770Y-2517344D01*
X512770Y-2517341D01*
X513576Y-2512552D01*
X513729Y-2500000D01*
X512003Y-2487947D01*
X511001Y-2461845D01*
X524998Y-2248299D01*
X527149Y-2231959D01*
X557318Y-2080287D01*
X574749Y-1992657D01*
X579014Y-1976740D01*
X581180Y-1970361D01*
X650158Y-1767156D01*
X657439Y-1745708D01*
X663746Y-1730481D01*
X771657Y-1511658D01*
X779898Y-1497384D01*
X915447Y-1294522D01*
X925480Y-1281447D01*
X1086352Y-1098007D01*
X1098007Y-1086352D01*
X1281447Y-925480D01*
X1294522Y-915447D01*
X1497384Y-779898D01*
X1511658Y-771657D01*
X1730481Y-663746D01*
X1745708Y-657439D01*
X1908254Y-602262D01*
X1976743Y-579013D01*
X1992657Y-574749D01*
X2133759Y-546682D01*
X2231959Y-527149D01*
X2248299Y-524998D01*
X2389563Y-515738D01*
X2458237Y-511237D01*
X2481350Y-512267D01*
X2484854Y-512310D01*
X2493724Y-513691D01*
X2502626Y-512527D01*
X2502628Y-512527D01*
X2519449Y-510327D01*
X2525286Y-509564D01*
X2541621Y-508500D01*
X60588578Y-508500D01*
X60656699Y-528502D01*
G37*
%TD.AperFunction*%
%TA.AperFunction,Conductor*%
G36*
X79242012Y-2415147D02*
G01*
X79248595Y-2421276D01*
X80566230Y-3738911D01*
X80578616Y-3753323D01*
X80587149Y-3764918D01*
X80587154Y-3764923D01*
X80591492Y-3770818D01*
X80597070Y-3775557D01*
X80597073Y-3775560D01*
X80631768Y-3805035D01*
X80639284Y-3811965D01*
X80644979Y-3817660D01*
X80647861Y-3819940D01*
X80667251Y-3835281D01*
X80670655Y-3838072D01*
X80720703Y-3880591D01*
X80726285Y-3885333D01*
X80732801Y-3888661D01*
X80737850Y-3892028D01*
X80742979Y-3895195D01*
X80748716Y-3899734D01*
X80814875Y-3930655D01*
X80818769Y-3932558D01*
X80883808Y-3965769D01*
X80890916Y-3967508D01*
X80896559Y-3969607D01*
X80902322Y-3971524D01*
X80908950Y-3974622D01*
X80916112Y-3976112D01*
X80916113Y-3976112D01*
X80980412Y-3989486D01*
X80984696Y-3990456D01*
X81055610Y-4007808D01*
X81061212Y-4008156D01*
X81061215Y-4008156D01*
X81066764Y-4008500D01*
X81066762Y-4008536D01*
X81070755Y-4008775D01*
X81074947Y-4009149D01*
X81082115Y-4010640D01*
X81151056Y-4008775D01*
X81159521Y-4008546D01*
X81162928Y-4008500D01*
X82037478Y-4008500D01*
X82105599Y-4028502D01*
X82152092Y-4082158D01*
X82162196Y-4152432D01*
X82159409Y-4166260D01*
X82150032Y-4202262D01*
X82142900Y-4229641D01*
X82139825Y-4288324D01*
X82133039Y-4417814D01*
X82132228Y-4433288D01*
X82162722Y-4634922D01*
X82164928Y-4640917D01*
X82164928Y-4640918D01*
X82224517Y-4802876D01*
X82233137Y-4826306D01*
X82340598Y-4999622D01*
X82344979Y-5004255D01*
X82344980Y-5004256D01*
X82395712Y-5057904D01*
X82480714Y-5147791D01*
X82485944Y-5151453D01*
X82485945Y-5151454D01*
X82632397Y-5254000D01*
X82647761Y-5264758D01*
X82659237Y-5269724D01*
X82692765Y-5284233D01*
X82747339Y-5329644D01*
X82768699Y-5397351D01*
X82750063Y-5465858D01*
X82703810Y-5510072D01*
X82644126Y-5543155D01*
X82564163Y-5587479D01*
X82409327Y-5720190D01*
X82284339Y-5881324D01*
X82194304Y-6064299D01*
X82192695Y-6070477D01*
X82192694Y-6070479D01*
X82146337Y-6248448D01*
X82142900Y-6261641D01*
X82140214Y-6312893D01*
X82132565Y-6458862D01*
X82132228Y-6465288D01*
X82162722Y-6666922D01*
X82164928Y-6672917D01*
X82164928Y-6672918D01*
X82230867Y-6852135D01*
X82233137Y-6858306D01*
X82298403Y-6963569D01*
X82337190Y-7026125D01*
X82340598Y-7031622D01*
X82344979Y-7036255D01*
X82344980Y-7036256D01*
X82466385Y-7164638D01*
X82480714Y-7179791D01*
X82485944Y-7183453D01*
X82485945Y-7183454D01*
X82637577Y-7289627D01*
X82647761Y-7296758D01*
X82724276Y-7329869D01*
X82828744Y-7375076D01*
X82834916Y-7377747D01*
X82841164Y-7379052D01*
X82841163Y-7379052D01*
X83029788Y-7418459D01*
X83029792Y-7418459D01*
X83034533Y-7419450D01*
X83039370Y-7419703D01*
X83039374Y-7419704D01*
X83039440Y-7419707D01*
X83041212Y-7419800D01*
X83109284Y-7419800D01*
X83177405Y-7439802D01*
X83223898Y-7493458D01*
X83234002Y-7563732D01*
X83217060Y-7611071D01*
X83179862Y-7672493D01*
X83174528Y-7681301D01*
X83172257Y-7688548D01*
X83172256Y-7688550D01*
X83158769Y-7731588D01*
X83123247Y-7844938D01*
X83116500Y-7918365D01*
X83116501Y-8066834D01*
X83116501Y-8210404D01*
X83096499Y-8278524D01*
X83079597Y-8299499D01*
X82992981Y-8386114D01*
X82907742Y-8471353D01*
X82899463Y-8478887D01*
X82892982Y-8483000D01*
X82881755Y-8494956D01*
X82846357Y-8532651D01*
X82843602Y-8535493D01*
X82823865Y-8555230D01*
X82821385Y-8558427D01*
X82813682Y-8567447D01*
X82783414Y-8599679D01*
X82779595Y-8606625D01*
X82779593Y-8606628D01*
X82773652Y-8617434D01*
X82762801Y-8633953D01*
X82750386Y-8649959D01*
X82747241Y-8657228D01*
X82747238Y-8657232D01*
X82732826Y-8690537D01*
X82727609Y-8701187D01*
X82706305Y-8739940D01*
X82704334Y-8747615D01*
X82704334Y-8747616D01*
X82701267Y-8759562D01*
X82694863Y-8778266D01*
X82686819Y-8796855D01*
X82685580Y-8804678D01*
X82685577Y-8804688D01*
X82679901Y-8840524D01*
X82677495Y-8852144D01*
X82672662Y-8870968D01*
X82666500Y-8894970D01*
X82666500Y-8915224D01*
X82664949Y-8934934D01*
X82661780Y-8954943D01*
X82662526Y-8962835D01*
X82665941Y-8998961D01*
X82666500Y-9010819D01*
X82666500Y-9966405D01*
X82646498Y-10034526D01*
X82592842Y-10081019D01*
X82522568Y-10091123D01*
X82457988Y-10061629D01*
X82451405Y-10055500D01*
X82228652Y-9832747D01*
X82221112Y-9824461D01*
X82217000Y-9817982D01*
X82199418Y-9801471D01*
X82167349Y-9771357D01*
X82164507Y-9768602D01*
X82144770Y-9748865D01*
X82141573Y-9746385D01*
X82132551Y-9738680D01*
X82100321Y-9708414D01*
X82093375Y-9704595D01*
X82093372Y-9704593D01*
X82082566Y-9698652D01*
X82066047Y-9687801D01*
X82065359Y-9687267D01*
X82050041Y-9675386D01*
X82042772Y-9672241D01*
X82042768Y-9672238D01*
X82009463Y-9657826D01*
X81998813Y-9652609D01*
X81960060Y-9631305D01*
X81940437Y-9626267D01*
X81921734Y-9619863D01*
X81910420Y-9614967D01*
X81910419Y-9614967D01*
X81903145Y-9611819D01*
X81895322Y-9610580D01*
X81895312Y-9610577D01*
X81859476Y-9604901D01*
X81847856Y-9602495D01*
X81812711Y-9593472D01*
X81812710Y-9593472D01*
X81805030Y-9591500D01*
X81784776Y-9591500D01*
X81765065Y-9589949D01*
X81752886Y-9588020D01*
X81745057Y-9586780D01*
X81701177Y-9590928D01*
X81701039Y-9590941D01*
X81689181Y-9591500D01*
X78638498Y-9591500D01*
X78577789Y-9575910D01*
X78573677Y-9573649D01*
X78557163Y-9562801D01*
X78549449Y-9556818D01*
X78541157Y-9550386D01*
X78533888Y-9547241D01*
X78533884Y-9547238D01*
X78500579Y-9532826D01*
X78489929Y-9527609D01*
X78451176Y-9506305D01*
X78431553Y-9501267D01*
X78412850Y-9494863D01*
X78401536Y-9489967D01*
X78401535Y-9489967D01*
X78394261Y-9486819D01*
X78386436Y-9485579D01*
X78386427Y-9485577D01*
X78376142Y-9483948D01*
X78311989Y-9453535D01*
X78274463Y-9393267D01*
X78275478Y-9322277D01*
X78314711Y-9263106D01*
X78379707Y-9234539D01*
X78395854Y-9233500D01*
X79045733Y-9233500D01*
X79056916Y-9234027D01*
X79064409Y-9235702D01*
X79072335Y-9235453D01*
X79072336Y-9235453D01*
X79132486Y-9233562D01*
X79136445Y-9233500D01*
X79164356Y-9233500D01*
X79168291Y-9233003D01*
X79168356Y-9232995D01*
X79180195Y-9232062D01*
X79192382Y-9231679D01*
X79217376Y-9230894D01*
X79237996Y-9231939D01*
X79264337Y-9235453D01*
X79282961Y-9237938D01*
X79289972Y-9237300D01*
X79289976Y-9237300D01*
X79432459Y-9224332D01*
X79463600Y-9221498D01*
X79470302Y-9219320D01*
X79470304Y-9219320D01*
X79629409Y-9167624D01*
X79629412Y-9167623D01*
X79636108Y-9165447D01*
X79751008Y-9096953D01*
X79785860Y-9076177D01*
X79785862Y-9076176D01*
X79791912Y-9072569D01*
X79923266Y-8947482D01*
X80023643Y-8796402D01*
X80088055Y-8626838D01*
X80088917Y-8620705D01*
X80125061Y-8559989D01*
X80188594Y-8528302D01*
X80254705Y-8534235D01*
X80403168Y-8589448D01*
X80479844Y-8599679D01*
X80575980Y-8612507D01*
X80575984Y-8612507D01*
X80582961Y-8613438D01*
X80589972Y-8612800D01*
X80589976Y-8612800D01*
X80734142Y-8599679D01*
X80763600Y-8596998D01*
X80770302Y-8594820D01*
X80770304Y-8594820D01*
X80929409Y-8543124D01*
X80929412Y-8543123D01*
X80936108Y-8540947D01*
X81058644Y-8467901D01*
X81085860Y-8451677D01*
X81085862Y-8451676D01*
X81091912Y-8448069D01*
X81223266Y-8322982D01*
X81323643Y-8171902D01*
X81376370Y-8033099D01*
X81385555Y-8008920D01*
X81385556Y-8008918D01*
X81388055Y-8002338D01*
X81389508Y-7992000D01*
X81412748Y-7826639D01*
X81412748Y-7826636D01*
X81413299Y-7822717D01*
X81413616Y-7800000D01*
X81393397Y-7619745D01*
X81391080Y-7613091D01*
X81336064Y-7455106D01*
X81336062Y-7455103D01*
X81333745Y-7448448D01*
X81324716Y-7433998D01*
X81241359Y-7300598D01*
X81237626Y-7294624D01*
X81218385Y-7275248D01*
X81114778Y-7170915D01*
X81114774Y-7170912D01*
X81109815Y-7165918D01*
X81098697Y-7158862D01*
X81012791Y-7104345D01*
X80956666Y-7068727D01*
X80925215Y-7057528D01*
X80792425Y-7010243D01*
X80792420Y-7010242D01*
X80785790Y-7007881D01*
X80778802Y-7007048D01*
X80778799Y-7007047D01*
X80624431Y-6988640D01*
X80605680Y-6986404D01*
X80598677Y-6987140D01*
X80598676Y-6987140D01*
X80432288Y-7004628D01*
X80432286Y-7004629D01*
X80425288Y-7005364D01*
X80253579Y-7063818D01*
X80117039Y-7147819D01*
X80051019Y-7166500D01*
X78115163Y-7166500D01*
X78103980Y-7165973D01*
X78096487Y-7164298D01*
X78088561Y-7164547D01*
X78088560Y-7164547D01*
X78028410Y-7166438D01*
X78024451Y-7166500D01*
X77996540Y-7166500D01*
X77992606Y-7166997D01*
X77992605Y-7166997D01*
X77992540Y-7167005D01*
X77980703Y-7167938D01*
X77948445Y-7168952D01*
X77944426Y-7169078D01*
X77936507Y-7169327D01*
X77917053Y-7174979D01*
X77897696Y-7178987D01*
X77885466Y-7180532D01*
X77885465Y-7180532D01*
X77877599Y-7181526D01*
X77870228Y-7184445D01*
X77870226Y-7184445D01*
X77836484Y-7197804D01*
X77825254Y-7201649D01*
X77790413Y-7211771D01*
X77790412Y-7211771D01*
X77782803Y-7213982D01*
X77775984Y-7218015D01*
X77775979Y-7218017D01*
X77765368Y-7224293D01*
X77747620Y-7232988D01*
X77728779Y-7240448D01*
X77722363Y-7245110D01*
X77722362Y-7245110D01*
X77693009Y-7266436D01*
X77683088Y-7272952D01*
X77645034Y-7295458D01*
X77639427Y-7301064D01*
X77630711Y-7309780D01*
X77615677Y-7322621D01*
X77608274Y-7328000D01*
X77599289Y-7334528D01*
X77594237Y-7340635D01*
X77571104Y-7368598D01*
X77563114Y-7377378D01*
X77510897Y-7429595D01*
X77448585Y-7463621D01*
X77421802Y-7466500D01*
X76159500Y-7466500D01*
X76091379Y-7446498D01*
X76044886Y-7392842D01*
X76033500Y-7340500D01*
X76033499Y-7004199D01*
X76033499Y-7000076D01*
X76031700Y-6986404D01*
X76019881Y-6896626D01*
X76019880Y-6896624D01*
X76018803Y-6888439D01*
X75961267Y-6749536D01*
X75900734Y-6670648D01*
X75874769Y-6636809D01*
X75874768Y-6636808D01*
X75869742Y-6630258D01*
X75750463Y-6538733D01*
X75611561Y-6481197D01*
X75603377Y-6480120D01*
X75603375Y-6480119D01*
X75504012Y-6467038D01*
X75504011Y-6467038D01*
X75499925Y-6466500D01*
X75400013Y-6466500D01*
X75300076Y-6466501D01*
X75295991Y-6467039D01*
X75295987Y-6467039D01*
X75229656Y-6475771D01*
X75188439Y-6481197D01*
X75181974Y-6483875D01*
X75118026Y-6483875D01*
X75111561Y-6481197D01*
X75004369Y-6467085D01*
X75004012Y-6467038D01*
X75004011Y-6467038D01*
X74999925Y-6466500D01*
X74900013Y-6466500D01*
X74800076Y-6466501D01*
X74795991Y-6467039D01*
X74795987Y-6467039D01*
X74729656Y-6475771D01*
X74688439Y-6481197D01*
X74681974Y-6483875D01*
X74618026Y-6483875D01*
X74611561Y-6481197D01*
X74504369Y-6467085D01*
X74504012Y-6467038D01*
X74504011Y-6467038D01*
X74499925Y-6466500D01*
X74400013Y-6466500D01*
X74300076Y-6466501D01*
X74295991Y-6467039D01*
X74295987Y-6467039D01*
X74229656Y-6475771D01*
X74188439Y-6481197D01*
X74188337Y-6481239D01*
X74121137Y-6479641D01*
X74062340Y-6439848D01*
X74034391Y-6374584D01*
X74033500Y-6359623D01*
X74033500Y-6239595D01*
X74053502Y-6171474D01*
X74070405Y-6150500D01*
X74354660Y-5866245D01*
X74416972Y-5832219D01*
X74487787Y-5837284D01*
X74544623Y-5879831D01*
X74551528Y-5890063D01*
X74555380Y-5896424D01*
X74560269Y-5901487D01*
X74560270Y-5901488D01*
X74622490Y-5965918D01*
X74681382Y-6026902D01*
X74724122Y-6054870D01*
X74823341Y-6119797D01*
X74833159Y-6126222D01*
X74839763Y-6128678D01*
X74839765Y-6128679D01*
X74996558Y-6186990D01*
X74996560Y-6186990D01*
X75003168Y-6189448D01*
X75082310Y-6200008D01*
X75175980Y-6212507D01*
X75175984Y-6212507D01*
X75182961Y-6213438D01*
X75189972Y-6212800D01*
X75189976Y-6212800D01*
X75335559Y-6199550D01*
X75363600Y-6196998D01*
X75370302Y-6194820D01*
X75370304Y-6194820D01*
X75529409Y-6143124D01*
X75529412Y-6143123D01*
X75536108Y-6140947D01*
X75664686Y-6064299D01*
X75685860Y-6051677D01*
X75685862Y-6051676D01*
X75691912Y-6048069D01*
X75823266Y-5922982D01*
X75923643Y-5771902D01*
X75969111Y-5652209D01*
X75985555Y-5608920D01*
X75985556Y-5608918D01*
X75988055Y-5602338D01*
X75991950Y-5574622D01*
X76012748Y-5426639D01*
X76012748Y-5426636D01*
X76013299Y-5422717D01*
X76013616Y-5400000D01*
X75993397Y-5219745D01*
X75990882Y-5212521D01*
X75950652Y-5096998D01*
X75940509Y-5067871D01*
X75933500Y-5026435D01*
X75933500Y-4907225D01*
X75953502Y-4839104D01*
X75994229Y-4799449D01*
X76008880Y-4790576D01*
X76015381Y-4786639D01*
X76136639Y-4665381D01*
X76174765Y-4602427D01*
X76208481Y-4565761D01*
X76218387Y-4558564D01*
X76228307Y-4552048D01*
X76259535Y-4533580D01*
X76259538Y-4533578D01*
X76266362Y-4529542D01*
X76280683Y-4515221D01*
X76295717Y-4502380D01*
X76298979Y-4500010D01*
X76312107Y-4490472D01*
X76340298Y-4456395D01*
X76348288Y-4447616D01*
X76860177Y-3935727D01*
X76922489Y-3901701D01*
X76937837Y-3899343D01*
X76963600Y-3896998D01*
X76970302Y-3894820D01*
X76970304Y-3894820D01*
X77129409Y-3843124D01*
X77129412Y-3843123D01*
X77136108Y-3840947D01*
X77276060Y-3757519D01*
X77285860Y-3751677D01*
X77285862Y-3751676D01*
X77291912Y-3748069D01*
X77423266Y-3622982D01*
X77523643Y-3471902D01*
X77526145Y-3465316D01*
X77528434Y-3460862D01*
X77577362Y-3409417D01*
X77646336Y-3392592D01*
X77713458Y-3415728D01*
X77757415Y-3471480D01*
X77766500Y-3518457D01*
X77766500Y-3653331D01*
X77746411Y-3721586D01*
X77675054Y-3832310D01*
X77675050Y-3832319D01*
X77671235Y-3838238D01*
X77668826Y-3844858D01*
X77668825Y-3844859D01*
X77637265Y-3931570D01*
X77609197Y-4008685D01*
X77586463Y-4188640D01*
X77604163Y-4369160D01*
X77606386Y-4375842D01*
X77606386Y-4375843D01*
X77609287Y-4384563D01*
X77611809Y-4455515D01*
X77575571Y-4516566D01*
X77550820Y-4534531D01*
X77484163Y-4571479D01*
X77479317Y-4575633D01*
X77479315Y-4575634D01*
X77470138Y-4583500D01*
X77329327Y-4704190D01*
X77204339Y-4865324D01*
X77114304Y-5048299D01*
X77112695Y-5054477D01*
X77112694Y-5054479D01*
X77066094Y-5233380D01*
X77062900Y-5245641D01*
X77058649Y-5326751D01*
X77052737Y-5439583D01*
X77052228Y-5449288D01*
X77082722Y-5650922D01*
X77084928Y-5656917D01*
X77084928Y-5656918D01*
X77139706Y-5805800D01*
X77153137Y-5842306D01*
X77220203Y-5950472D01*
X77256588Y-6009154D01*
X77260598Y-6015622D01*
X77264979Y-6020255D01*
X77264980Y-6020256D01*
X77359111Y-6119797D01*
X77400714Y-6163791D01*
X77405944Y-6167453D01*
X77405945Y-6167454D01*
X77560200Y-6275464D01*
X77567761Y-6280758D01*
X77659140Y-6320301D01*
X77740039Y-6355309D01*
X77754916Y-6361747D01*
X77778682Y-6366712D01*
X77949788Y-6402459D01*
X77949792Y-6402459D01*
X77954533Y-6403450D01*
X77959370Y-6403703D01*
X77959374Y-6403704D01*
X77959440Y-6403707D01*
X77961212Y-6403800D01*
X78110967Y-6403800D01*
X78200831Y-6394672D01*
X78256534Y-6389014D01*
X78256535Y-6389014D01*
X78262883Y-6388369D01*
X78457478Y-6327386D01*
X78635837Y-6228521D01*
X78790673Y-6095810D01*
X78915661Y-5934676D01*
X79005696Y-5751701D01*
X79007306Y-5745521D01*
X79055490Y-5560541D01*
X79055490Y-5560538D01*
X79057100Y-5554359D01*
X79063115Y-5439583D01*
X79067438Y-5357094D01*
X79067438Y-5357090D01*
X79067772Y-5350712D01*
X79037278Y-5149078D01*
X79033290Y-5138238D01*
X78969067Y-4963684D01*
X78969066Y-4963683D01*
X78966863Y-4957694D01*
X78950259Y-4930914D01*
X78931363Y-4862480D01*
X78952464Y-4794692D01*
X78970448Y-4773281D01*
X79023266Y-4722982D01*
X79123643Y-4571902D01*
X79176298Y-4433288D01*
X79185555Y-4408920D01*
X79185556Y-4408918D01*
X79188055Y-4402338D01*
X79191604Y-4377086D01*
X79212748Y-4226639D01*
X79212748Y-4226636D01*
X79213299Y-4222717D01*
X79213452Y-4211738D01*
X79213561Y-4203962D01*
X79213561Y-4203957D01*
X79213616Y-4200000D01*
X79193397Y-4019745D01*
X79190226Y-4010640D01*
X79136064Y-3855106D01*
X79136062Y-3855103D01*
X79133745Y-3848448D01*
X79108916Y-3808713D01*
X79052646Y-3718661D01*
X79033500Y-3651892D01*
X79033500Y-2510371D01*
X79053502Y-2442250D01*
X79107158Y-2395757D01*
X79177432Y-2385653D01*
X79242012Y-2415147D01*
G37*
%TD.AperFunction*%
%TA.AperFunction,Conductor*%
G36*
X94310588Y-528502D02*
G01*
X94357081Y-582158D01*
X94367185Y-652432D01*
X94337691Y-717012D01*
X94283072Y-753778D01*
X94253579Y-763818D01*
X94205166Y-793602D01*
X94105095Y-855166D01*
X94105092Y-855168D01*
X94099088Y-858862D01*
X94094053Y-863793D01*
X94094050Y-863795D01*
X93977449Y-977980D01*
X93969493Y-985771D01*
X93871235Y-1138238D01*
X93868826Y-1144858D01*
X93868824Y-1144861D01*
X93814352Y-1294522D01*
X93809197Y-1308685D01*
X93786463Y-1488640D01*
X93804163Y-1669160D01*
X93861418Y-1841273D01*
X93865065Y-1847295D01*
X93865066Y-1847297D01*
X93939596Y-1970361D01*
X93955380Y-1996424D01*
X93960269Y-2001487D01*
X93960270Y-2001488D01*
X94002230Y-2044938D01*
X94081382Y-2126902D01*
X94108944Y-2144938D01*
X94211765Y-2212222D01*
X94233159Y-2226222D01*
X94239763Y-2228678D01*
X94239765Y-2228679D01*
X94396558Y-2286990D01*
X94396560Y-2286990D01*
X94403168Y-2289448D01*
X94519344Y-2304949D01*
X94575982Y-2312507D01*
X94575984Y-2312507D01*
X94582961Y-2313438D01*
X94589973Y-2312800D01*
X94589977Y-2312800D01*
X94593069Y-2312519D01*
X94624195Y-2313552D01*
X94665523Y-2320098D01*
X94677144Y-2322505D01*
X94712289Y-2331528D01*
X94719970Y-2333500D01*
X94740224Y-2333500D01*
X94759934Y-2335051D01*
X94779943Y-2338220D01*
X94787835Y-2337474D01*
X94823961Y-2334059D01*
X94835819Y-2333500D01*
X98273579Y-2333500D01*
X98341700Y-2353502D01*
X98362674Y-2370405D01*
X99287044Y-3294775D01*
X99321070Y-3357087D01*
X99316005Y-3427902D01*
X99273458Y-3484738D01*
X99206938Y-3509549D01*
X99131833Y-3491130D01*
X99003757Y-3412184D01*
X98990576Y-3406037D01*
X98836290Y-3354862D01*
X98822914Y-3351995D01*
X98728562Y-3342328D01*
X98722145Y-3342000D01*
X98472115Y-3342000D01*
X98456876Y-3346475D01*
X98455671Y-3347865D01*
X98454000Y-3355548D01*
X98454000Y-4077885D01*
X98458475Y-4093124D01*
X98459865Y-4094329D01*
X98467548Y-4096000D01*
X99414884Y-4096000D01*
X99430123Y-4091525D01*
X99431328Y-4090135D01*
X99432999Y-4082452D01*
X99432999Y-4052905D01*
X99432662Y-4046386D01*
X99422743Y-3950794D01*
X99419851Y-3937400D01*
X99368412Y-3783216D01*
X99362238Y-3770038D01*
X99283613Y-3642981D01*
X99264775Y-3574529D01*
X99285936Y-3506760D01*
X99340377Y-3461188D01*
X99410813Y-3452284D01*
X99479852Y-3487583D01*
X101079595Y-5087326D01*
X101113621Y-5149638D01*
X101116500Y-5176421D01*
X101116500Y-5739856D01*
X101116501Y-5739860D01*
X101116501Y-6024924D01*
X101117039Y-6029008D01*
X101117039Y-6029014D01*
X101129696Y-6125158D01*
X101131197Y-6136561D01*
X101188733Y-6275464D01*
X101216936Y-6312219D01*
X101262194Y-6371200D01*
X101280258Y-6394742D01*
X101399537Y-6486267D01*
X101538439Y-6543803D01*
X101546623Y-6544880D01*
X101546625Y-6544881D01*
X101645988Y-6557962D01*
X101650075Y-6558500D01*
X101749987Y-6558500D01*
X101849924Y-6558499D01*
X101854009Y-6557961D01*
X101854013Y-6557961D01*
X101920344Y-6549229D01*
X101961561Y-6543803D01*
X101968026Y-6541125D01*
X102031974Y-6541125D01*
X102038439Y-6543803D01*
X102132008Y-6556121D01*
X102145981Y-6557961D01*
X102150075Y-6558500D01*
X102249987Y-6558500D01*
X102349924Y-6558499D01*
X102354009Y-6557961D01*
X102354013Y-6557961D01*
X102453374Y-6544881D01*
X102453376Y-6544880D01*
X102461561Y-6543803D01*
X102560625Y-6502769D01*
X102579782Y-6494834D01*
X102650371Y-6487245D01*
X102713858Y-6519024D01*
X102750086Y-6580082D01*
X102754000Y-6611243D01*
X102754000Y-6717320D01*
X102733998Y-6785441D01*
X102680342Y-6831934D01*
X102644445Y-6842242D01*
X102579911Y-6850738D01*
X102538439Y-6856197D01*
X102531974Y-6858875D01*
X102468026Y-6858875D01*
X102461561Y-6856197D01*
X102361729Y-6843054D01*
X102354012Y-6842038D01*
X102354011Y-6842038D01*
X102349925Y-6841500D01*
X102250013Y-6841500D01*
X102150076Y-6841501D01*
X102145991Y-6842039D01*
X102145987Y-6842039D01*
X102046626Y-6855119D01*
X102046624Y-6855120D01*
X102038439Y-6856197D01*
X101899536Y-6913733D01*
X101885565Y-6924453D01*
X101880991Y-6927963D01*
X101814770Y-6953563D01*
X101804287Y-6954000D01*
X101355058Y-6954000D01*
X101339143Y-6960704D01*
X101287165Y-7000587D01*
X101275586Y-7012167D01*
X101194198Y-7118235D01*
X101186008Y-7132421D01*
X101134844Y-7255941D01*
X101130606Y-7271758D01*
X101117538Y-7371019D01*
X101117000Y-7379228D01*
X101117000Y-8020772D01*
X101117537Y-8028971D01*
X101117734Y-8030464D01*
X101117664Y-8030910D01*
X101117808Y-8033099D01*
X101117318Y-8033131D01*
X101106796Y-8100613D01*
X101059670Y-8153713D01*
X101032688Y-8166438D01*
X100993893Y-8179381D01*
X100980714Y-8185555D01*
X100847827Y-8267788D01*
X100836426Y-8276824D01*
X100726014Y-8387429D01*
X100717002Y-8398840D01*
X100634996Y-8531880D01*
X100628849Y-8545061D01*
X100579509Y-8693814D01*
X100576642Y-8707190D01*
X100567328Y-8798097D01*
X100567000Y-8804514D01*
X100567000Y-8827885D01*
X100571475Y-8843124D01*
X100572865Y-8844329D01*
X100580548Y-8846000D01*
X101653000Y-8846000D01*
X101721121Y-8866002D01*
X101767614Y-8919658D01*
X101779000Y-8972000D01*
X101779000Y-9228000D01*
X101758998Y-9296121D01*
X101705342Y-9342614D01*
X101653000Y-9354000D01*
X100585115Y-9354000D01*
X100569876Y-9358475D01*
X100568671Y-9359865D01*
X100567000Y-9367548D01*
X100567000Y-9395438D01*
X100567337Y-9401953D01*
X100570088Y-9428463D01*
X100557224Y-9498285D01*
X100508653Y-9550067D01*
X100459962Y-9564955D01*
X100460157Y-9566498D01*
X100456154Y-9567004D01*
X100444320Y-9567936D01*
X100400111Y-9569326D01*
X100392497Y-9571538D01*
X100392492Y-9571539D01*
X100380659Y-9574977D01*
X100361296Y-9578988D01*
X100341203Y-9581526D01*
X100330882Y-9585612D01*
X100328395Y-9585840D01*
X100326156Y-9586415D01*
X100326063Y-9586054D01*
X100260184Y-9592091D01*
X100197204Y-9559319D01*
X100161940Y-9497699D01*
X100158500Y-9468460D01*
X100158500Y-7503267D01*
X100166712Y-7458523D01*
X100185555Y-7408920D01*
X100185556Y-7408918D01*
X100188055Y-7402338D01*
X100190212Y-7386990D01*
X100212748Y-7226639D01*
X100212748Y-7226636D01*
X100213299Y-7222717D01*
X100213616Y-7200000D01*
X100193397Y-7019745D01*
X100186726Y-7000587D01*
X100158553Y-6919687D01*
X100151959Y-6888464D01*
X100149454Y-6857661D01*
X100149453Y-6857658D01*
X100148860Y-6850363D01*
X100146604Y-6843399D01*
X100145413Y-6837440D01*
X100144029Y-6831585D01*
X100143182Y-6824319D01*
X100118265Y-6755673D01*
X100116848Y-6751545D01*
X100096607Y-6689064D01*
X100096606Y-6689062D01*
X100094351Y-6682101D01*
X100090555Y-6675846D01*
X100088049Y-6670372D01*
X100085330Y-6664942D01*
X100082833Y-6658063D01*
X100075409Y-6646739D01*
X100042814Y-6597024D01*
X100040467Y-6593305D01*
X100039489Y-6591693D01*
X100002595Y-6530893D01*
X99995197Y-6522516D01*
X99995224Y-6522492D01*
X99992571Y-6519500D01*
X99989868Y-6516267D01*
X99985856Y-6510148D01*
X99929617Y-6456872D01*
X99927175Y-6454494D01*
X99466416Y-5993735D01*
X99432390Y-5931423D01*
X99430184Y-5917643D01*
X99430024Y-5916095D01*
X99426416Y-5881324D01*
X99423238Y-5850693D01*
X99423237Y-5850690D01*
X99422526Y-5843834D01*
X99412766Y-5814578D01*
X99368868Y-5683002D01*
X99366550Y-5676054D01*
X99273478Y-5525652D01*
X99260549Y-5512745D01*
X99167417Y-5419776D01*
X99148303Y-5400695D01*
X99143765Y-5397898D01*
X99103176Y-5340647D01*
X99099946Y-5269724D01*
X99135572Y-5208313D01*
X99144068Y-5200938D01*
X99154207Y-5192902D01*
X99268739Y-5078171D01*
X99277751Y-5066760D01*
X99362816Y-4928757D01*
X99368963Y-4915576D01*
X99420138Y-4761290D01*
X99423005Y-4747914D01*
X99432672Y-4653562D01*
X99433000Y-4647146D01*
X99433000Y-4622115D01*
X99428525Y-4606876D01*
X99427135Y-4605671D01*
X99419452Y-4604000D01*
X98072000Y-4604000D01*
X98003879Y-4583998D01*
X97957386Y-4530342D01*
X97946000Y-4478000D01*
X97946000Y-3360116D01*
X97941525Y-3344877D01*
X97940135Y-3343672D01*
X97932452Y-3342001D01*
X97677905Y-3342001D01*
X97671386Y-3342338D01*
X97575794Y-3352257D01*
X97562400Y-3355149D01*
X97408216Y-3406588D01*
X97395038Y-3412761D01*
X97257193Y-3498063D01*
X97245792Y-3507099D01*
X97139015Y-3614061D01*
X97076732Y-3648140D01*
X97005912Y-3643137D01*
X96985703Y-3633496D01*
X96920427Y-3594892D01*
X96920428Y-3594892D01*
X96913601Y-3590855D01*
X96905990Y-3588644D01*
X96905988Y-3588643D01*
X96827766Y-3565918D01*
X96753831Y-3544438D01*
X96747426Y-3543934D01*
X96747421Y-3543933D01*
X96718958Y-3541693D01*
X96718950Y-3541693D01*
X96716502Y-3541500D01*
X95558498Y-3541500D01*
X95556050Y-3541693D01*
X95556042Y-3541693D01*
X95527579Y-3543933D01*
X95527574Y-3543934D01*
X95521169Y-3544438D01*
X95447234Y-3565918D01*
X95369012Y-3588643D01*
X95369010Y-3588644D01*
X95361399Y-3590855D01*
X95354572Y-3594892D01*
X95354573Y-3594892D01*
X95225020Y-3671509D01*
X95225017Y-3671511D01*
X95218193Y-3675547D01*
X95100547Y-3793193D01*
X95098294Y-3797002D01*
X95042004Y-3837655D01*
X94971112Y-3841506D01*
X94909391Y-3806418D01*
X94902724Y-3798724D01*
X94899453Y-3793193D01*
X94781807Y-3675547D01*
X94774983Y-3671511D01*
X94774980Y-3671509D01*
X94645427Y-3594892D01*
X94645428Y-3594892D01*
X94638601Y-3590855D01*
X94630990Y-3588644D01*
X94630988Y-3588643D01*
X94586847Y-3575819D01*
X94527011Y-3537606D01*
X94497334Y-3473110D01*
X94496000Y-3454822D01*
X94496000Y-3291267D01*
X94496527Y-3280084D01*
X94498202Y-3272591D01*
X94497680Y-3255968D01*
X94496062Y-3204514D01*
X94496000Y-3200555D01*
X94496000Y-3172644D01*
X94495495Y-3168644D01*
X94494562Y-3156801D01*
X94493422Y-3120530D01*
X94493173Y-3112611D01*
X94487521Y-3093157D01*
X94483513Y-3073800D01*
X94481968Y-3061570D01*
X94481968Y-3061569D01*
X94480974Y-3053703D01*
X94477689Y-3045405D01*
X94464696Y-3012588D01*
X94460851Y-3001358D01*
X94450729Y-2966517D01*
X94450729Y-2966516D01*
X94448518Y-2958907D01*
X94444485Y-2952088D01*
X94444483Y-2952083D01*
X94438207Y-2941472D01*
X94429512Y-2923724D01*
X94422052Y-2904883D01*
X94396064Y-2869113D01*
X94389548Y-2859193D01*
X94371080Y-2827965D01*
X94371078Y-2827962D01*
X94367042Y-2821138D01*
X94352721Y-2806817D01*
X94339880Y-2791783D01*
X94332631Y-2781806D01*
X94327972Y-2775393D01*
X94293895Y-2747202D01*
X94285116Y-2739212D01*
X93095405Y-1549500D01*
X93061379Y-1487188D01*
X93058500Y-1460405D01*
X93058500Y-874600D01*
X93056867Y-858862D01*
X93048238Y-775692D01*
X93048237Y-775688D01*
X93047526Y-768834D01*
X93024690Y-700386D01*
X93016013Y-674377D01*
X93013428Y-603427D01*
X93049611Y-542343D01*
X93113075Y-510518D01*
X93135536Y-508500D01*
X94242467Y-508500D01*
X94310588Y-528502D01*
G37*
%TD.AperFunction*%
%TA.AperFunction,Conductor*%
G36*
X97696121Y-9016002D02*
G01*
X97742614Y-9069658D01*
X97754000Y-9122000D01*
X97754000Y-9378000D01*
X97733998Y-9446121D01*
X97680342Y-9492614D01*
X97628000Y-9504000D01*
X95072000Y-9504000D01*
X95003879Y-9483998D01*
X94957386Y-9430342D01*
X94946000Y-9378000D01*
X94946000Y-9122000D01*
X94966002Y-9053879D01*
X95019658Y-9007386D01*
X95072000Y-8996000D01*
X97628000Y-8996000D01*
X97696121Y-9016002D01*
G37*
%TD.AperFunction*%
%TA.AperFunction,Conductor*%
G36*
X90709532Y-3790538D02*
G01*
X90766368Y-3833085D01*
X90791179Y-3899605D01*
X90791500Y-3908594D01*
X90791500Y-6698134D01*
X90798255Y-6760316D01*
X90849385Y-6896705D01*
X90936739Y-7013261D01*
X91053295Y-7100615D01*
X91189684Y-7151745D01*
X91251866Y-7158500D01*
X92548134Y-7158500D01*
X92610316Y-7151745D01*
X92746705Y-7100615D01*
X92863261Y-7013261D01*
X92868642Y-7006081D01*
X92874992Y-6999731D01*
X92876734Y-7001473D01*
X92923037Y-6966847D01*
X92993855Y-6961817D01*
X93031146Y-6976469D01*
X93086399Y-7009145D01*
X93094010Y-7011356D01*
X93094012Y-7011357D01*
X93140050Y-7024732D01*
X93246169Y-7055562D01*
X93252574Y-7056066D01*
X93252579Y-7056067D01*
X93281042Y-7058307D01*
X93281050Y-7058307D01*
X93283498Y-7058500D01*
X93464629Y-7058500D01*
X93532750Y-7078502D01*
X93579243Y-7132158D01*
X93589347Y-7202432D01*
X93559853Y-7267012D01*
X93553724Y-7273595D01*
X93011089Y-7816230D01*
X92996677Y-7828616D01*
X92985078Y-7837152D01*
X92985073Y-7837157D01*
X92979182Y-7841492D01*
X92974444Y-7847069D01*
X92970068Y-7851150D01*
X92906608Y-7882982D01*
X92836012Y-7875452D01*
X92795114Y-7848175D01*
X92778171Y-7831261D01*
X92766760Y-7822249D01*
X92628757Y-7737184D01*
X92615576Y-7731037D01*
X92461290Y-7679862D01*
X92447914Y-7676995D01*
X92353562Y-7667328D01*
X92347145Y-7667000D01*
X92322115Y-7667000D01*
X92306876Y-7671475D01*
X92305671Y-7672865D01*
X92304000Y-7680548D01*
X92304000Y-9028000D01*
X92283998Y-9096121D01*
X92230342Y-9142614D01*
X92178000Y-9154000D01*
X91922000Y-9154000D01*
X91853879Y-9133998D01*
X91807386Y-9080342D01*
X91796000Y-9028000D01*
X91796000Y-7685116D01*
X91791525Y-7669877D01*
X91790135Y-7668672D01*
X91782452Y-7667001D01*
X91752905Y-7667001D01*
X91746386Y-7667338D01*
X91650794Y-7677257D01*
X91637400Y-7680149D01*
X91483216Y-7731588D01*
X91470038Y-7737761D01*
X91332193Y-7823063D01*
X91320792Y-7832099D01*
X91206262Y-7946828D01*
X91199206Y-7955762D01*
X91141288Y-7996823D01*
X91070365Y-8000053D01*
X91008954Y-7964426D01*
X91002154Y-7956593D01*
X90998478Y-7950652D01*
X90873303Y-7825695D01*
X90852384Y-7812800D01*
X90848662Y-7810506D01*
X90809408Y-7772334D01*
X90792793Y-7746991D01*
X90790472Y-7743312D01*
X90788520Y-7740094D01*
X90776277Y-7719918D01*
X90755509Y-7685693D01*
X90755505Y-7685688D01*
X90752595Y-7680892D01*
X90745197Y-7672516D01*
X90745223Y-7672493D01*
X90742574Y-7669503D01*
X90739866Y-7666264D01*
X90735856Y-7660148D01*
X90730549Y-7655121D01*
X90730546Y-7655117D01*
X90679617Y-7606872D01*
X90677175Y-7604494D01*
X90183770Y-7111089D01*
X90171384Y-7096677D01*
X90162851Y-7085082D01*
X90162846Y-7085077D01*
X90158508Y-7079182D01*
X90152927Y-7074441D01*
X90149710Y-7070991D01*
X90117878Y-7007530D01*
X90125409Y-6936934D01*
X90141030Y-6909494D01*
X90150615Y-6896705D01*
X90201745Y-6760316D01*
X90208500Y-6698134D01*
X90208500Y-4239594D01*
X90228502Y-4171473D01*
X90245405Y-4150499D01*
X90576405Y-3819499D01*
X90638717Y-3785473D01*
X90709532Y-3790538D01*
G37*
%TD.AperFunction*%
%TA.AperFunction,Conductor*%
G36*
X84250680Y-4726411D02*
G01*
X84268622Y-4741303D01*
X84866230Y-5338911D01*
X84878616Y-5353323D01*
X84887149Y-5364918D01*
X84887154Y-5364923D01*
X84891492Y-5370818D01*
X84897070Y-5375557D01*
X84897073Y-5375560D01*
X84931768Y-5405035D01*
X84939284Y-5411965D01*
X84944980Y-5417661D01*
X84947841Y-5419924D01*
X84947846Y-5419929D01*
X84967266Y-5435293D01*
X84970667Y-5438082D01*
X85026285Y-5485333D01*
X85032798Y-5488659D01*
X85037837Y-5492020D01*
X85042979Y-5495196D01*
X85048716Y-5499734D01*
X85114875Y-5530655D01*
X85118769Y-5532558D01*
X85183808Y-5565769D01*
X85190917Y-5567508D01*
X85196551Y-5569604D01*
X85202321Y-5571523D01*
X85208950Y-5574622D01*
X85216113Y-5576112D01*
X85216116Y-5576113D01*
X85266830Y-5586661D01*
X85280435Y-5589491D01*
X85284701Y-5590457D01*
X85355610Y-5607808D01*
X85361212Y-5608156D01*
X85361215Y-5608156D01*
X85366764Y-5608500D01*
X85366762Y-5608535D01*
X85370734Y-5608775D01*
X85374955Y-5609152D01*
X85382115Y-5610641D01*
X85459542Y-5608546D01*
X85462950Y-5608500D01*
X87865500Y-5608500D01*
X87933621Y-5628502D01*
X87980114Y-5682158D01*
X87991500Y-5734500D01*
X87991500Y-6352026D01*
X87971498Y-6420147D01*
X87917842Y-6466640D01*
X87847568Y-6476744D01*
X87797986Y-6458411D01*
X87730644Y-6415675D01*
X87656666Y-6368727D01*
X87596489Y-6347299D01*
X87492425Y-6310243D01*
X87492420Y-6310242D01*
X87485790Y-6307881D01*
X87478802Y-6307048D01*
X87478799Y-6307047D01*
X87355698Y-6292368D01*
X87305680Y-6286404D01*
X87298677Y-6287140D01*
X87298676Y-6287140D01*
X87132288Y-6304628D01*
X87132286Y-6304629D01*
X87125288Y-6305364D01*
X86953579Y-6363818D01*
X86913672Y-6388369D01*
X86805095Y-6455166D01*
X86805092Y-6455168D01*
X86799088Y-6458862D01*
X86794053Y-6463793D01*
X86794050Y-6463795D01*
X86685371Y-6570222D01*
X86669493Y-6585771D01*
X86571235Y-6738238D01*
X86568826Y-6744858D01*
X86568824Y-6744861D01*
X86513586Y-6896626D01*
X86509197Y-6908685D01*
X86486463Y-7088640D01*
X86504163Y-7269160D01*
X86561418Y-7441273D01*
X86565065Y-7447295D01*
X86565066Y-7447297D01*
X86651359Y-7589784D01*
X86655380Y-7596424D01*
X86660269Y-7601487D01*
X86660270Y-7601488D01*
X86716286Y-7659494D01*
X86781382Y-7726902D01*
X86832831Y-7760569D01*
X86878878Y-7814604D01*
X86888402Y-7884959D01*
X86858378Y-7949294D01*
X86798338Y-7987185D01*
X86763837Y-7992000D01*
X86427816Y-7992001D01*
X86359696Y-7971999D01*
X86351130Y-7965977D01*
X86250463Y-7888733D01*
X86111561Y-7831197D01*
X86103377Y-7830120D01*
X86103375Y-7830119D01*
X86004012Y-7817038D01*
X86004011Y-7817038D01*
X85999925Y-7816500D01*
X85160397Y-7816500D01*
X85092276Y-7796498D01*
X85045783Y-7742842D01*
X85040163Y-7728180D01*
X85025472Y-7681301D01*
X84936639Y-7534619D01*
X84815381Y-7413361D01*
X84668699Y-7324528D01*
X84661452Y-7322257D01*
X84661450Y-7322256D01*
X84575937Y-7295458D01*
X84505062Y-7273247D01*
X84431635Y-7266500D01*
X84423706Y-7266500D01*
X84007880Y-7266501D01*
X83939761Y-7246499D01*
X83893267Y-7192844D01*
X83883163Y-7122570D01*
X83908321Y-7063275D01*
X83960456Y-6996062D01*
X83995661Y-6950676D01*
X84085696Y-6767701D01*
X84088739Y-6756020D01*
X84135490Y-6576541D01*
X84135490Y-6576538D01*
X84137100Y-6570359D01*
X84141770Y-6481240D01*
X84147438Y-6373094D01*
X84147438Y-6373090D01*
X84147772Y-6366712D01*
X84117278Y-6165078D01*
X84114053Y-6156312D01*
X84049067Y-5979684D01*
X84049066Y-5979683D01*
X84046863Y-5973694D01*
X83959144Y-5832219D01*
X83942764Y-5805800D01*
X83942763Y-5805799D01*
X83939402Y-5800378D01*
X83917020Y-5776709D01*
X83803671Y-5656846D01*
X83799286Y-5652209D01*
X83788427Y-5644605D01*
X83637472Y-5538906D01*
X83637471Y-5538905D01*
X83632239Y-5535242D01*
X83587235Y-5515767D01*
X83532661Y-5470356D01*
X83511301Y-5402649D01*
X83529937Y-5334142D01*
X83576190Y-5289928D01*
X83710257Y-5215614D01*
X83715837Y-5212521D01*
X83870673Y-5079810D01*
X83995661Y-4918676D01*
X84001502Y-4906807D01*
X84054328Y-4799449D01*
X84066472Y-4774769D01*
X84114495Y-4722478D01*
X84183165Y-4704451D01*
X84250680Y-4726411D01*
G37*
%TD.AperFunction*%
%TA.AperFunction,Conductor*%
G36*
X69737064Y-4046369D02*
G01*
X69762022Y-4058992D01*
X69845659Y-4113722D01*
X69852263Y-4116178D01*
X69852265Y-4116179D01*
X70009058Y-4174490D01*
X70009060Y-4174490D01*
X70015668Y-4176948D01*
X70099495Y-4188133D01*
X70188480Y-4200007D01*
X70188484Y-4200007D01*
X70195461Y-4200938D01*
X70202472Y-4200300D01*
X70202476Y-4200300D01*
X70344959Y-4187332D01*
X70376100Y-4184498D01*
X70382802Y-4182320D01*
X70382804Y-4182320D01*
X70451565Y-4159978D01*
X70522533Y-4157951D01*
X70583330Y-4194613D01*
X70614656Y-4258325D01*
X70616501Y-4279807D01*
X70616501Y-4369134D01*
X70616764Y-4371992D01*
X70616764Y-4372001D01*
X70619754Y-4404542D01*
X70623247Y-4442562D01*
X70625246Y-4448940D01*
X70625246Y-4448941D01*
X70671509Y-4596564D01*
X70674528Y-4606199D01*
X70763361Y-4752881D01*
X70884619Y-4874139D01*
X71031301Y-4962972D01*
X71038548Y-4965243D01*
X71038550Y-4965244D01*
X71104052Y-4985771D01*
X71194938Y-5014253D01*
X71268365Y-5021000D01*
X71286473Y-5021000D01*
X71560405Y-5020999D01*
X71628524Y-5041001D01*
X71649500Y-5057904D01*
X71729596Y-5138001D01*
X71763621Y-5200314D01*
X71766500Y-5227096D01*
X71766500Y-6364713D01*
X71746498Y-6432834D01*
X71692842Y-6479327D01*
X71688336Y-6480949D01*
X71688439Y-6481197D01*
X71549536Y-6538733D01*
X71516168Y-6564337D01*
X71436811Y-6625230D01*
X71430258Y-6630258D01*
X71338733Y-6749537D01*
X71281197Y-6888439D01*
X71280120Y-6896623D01*
X71280119Y-6896625D01*
X71269436Y-6977773D01*
X71266500Y-7000075D01*
X71266501Y-7226902D01*
X71266501Y-7328000D01*
X71246499Y-7396120D01*
X71192844Y-7442613D01*
X71140501Y-7454000D01*
X69795499Y-7454000D01*
X69727378Y-7433998D01*
X69688356Y-7394305D01*
X69682605Y-7385012D01*
X69682601Y-7385007D01*
X69678752Y-7378787D01*
X69641173Y-7341273D01*
X69611965Y-7312116D01*
X69557702Y-7257948D01*
X69547529Y-7251677D01*
X69418331Y-7172038D01*
X69418329Y-7172037D01*
X69412101Y-7168198D01*
X69303329Y-7132120D01*
X69244969Y-7091689D01*
X69217732Y-7026125D01*
X69225208Y-6967783D01*
X69285555Y-6808920D01*
X69285556Y-6808918D01*
X69288055Y-6802338D01*
X69289054Y-6795229D01*
X69312748Y-6626639D01*
X69312748Y-6626636D01*
X69313299Y-6622717D01*
X69313616Y-6600000D01*
X69293397Y-6419745D01*
X69291080Y-6413091D01*
X69236064Y-6255106D01*
X69236062Y-6255103D01*
X69233745Y-6248448D01*
X69226802Y-6237337D01*
X69141359Y-6100598D01*
X69137626Y-6094624D01*
X69120062Y-6076937D01*
X69014778Y-5970915D01*
X69014774Y-5970912D01*
X69009815Y-5965918D01*
X69001781Y-5960819D01*
X68940482Y-5921918D01*
X68856666Y-5868727D01*
X68812390Y-5852961D01*
X68692425Y-5810243D01*
X68692420Y-5810242D01*
X68685790Y-5807881D01*
X68678802Y-5807048D01*
X68678799Y-5807047D01*
X68636008Y-5801945D01*
X68570734Y-5774018D01*
X68561831Y-5765926D01*
X68470405Y-5674500D01*
X68436379Y-5612188D01*
X68433500Y-5585405D01*
X68433500Y-5517569D01*
X68453502Y-5449448D01*
X68507158Y-5402955D01*
X68526890Y-5395862D01*
X68550587Y-5389513D01*
X68680190Y-5335829D01*
X68694373Y-5327640D01*
X68805663Y-5242245D01*
X68817243Y-5230665D01*
X68902642Y-5119370D01*
X68910829Y-5105189D01*
X68964513Y-4975586D01*
X68968751Y-4959769D01*
X68982462Y-4855622D01*
X68983000Y-4847413D01*
X68983000Y-4818115D01*
X68978525Y-4802876D01*
X68977135Y-4801671D01*
X68969452Y-4800000D01*
X68941821Y-4800000D01*
X68873700Y-4779998D01*
X68827207Y-4726342D01*
X68817103Y-4656068D01*
X68846597Y-4591488D01*
X68893601Y-4557592D01*
X68935305Y-4540317D01*
X68967685Y-4533346D01*
X68967498Y-4532163D01*
X68975332Y-4530922D01*
X68983252Y-4530673D01*
X69002706Y-4525021D01*
X69022063Y-4521013D01*
X69034293Y-4519468D01*
X69034294Y-4519468D01*
X69042160Y-4518474D01*
X69049531Y-4515555D01*
X69049533Y-4515555D01*
X69083275Y-4502196D01*
X69094505Y-4498351D01*
X69129346Y-4488229D01*
X69129347Y-4488229D01*
X69136956Y-4486018D01*
X69143775Y-4481985D01*
X69143780Y-4481983D01*
X69154391Y-4475707D01*
X69172139Y-4467012D01*
X69190980Y-4459552D01*
X69198076Y-4454397D01*
X69226750Y-4433564D01*
X69236670Y-4427048D01*
X69267898Y-4408580D01*
X69267901Y-4408578D01*
X69274725Y-4404542D01*
X69289046Y-4390221D01*
X69304080Y-4377380D01*
X69306194Y-4375844D01*
X69320470Y-4365472D01*
X69348661Y-4331395D01*
X69356651Y-4322616D01*
X69603937Y-4075330D01*
X69666249Y-4041304D01*
X69737064Y-4046369D01*
G37*
%TD.AperFunction*%
%TA.AperFunction,Conductor*%
G36*
X65697441Y-1455502D02*
G01*
X65743934Y-1509158D01*
X65754038Y-1579432D01*
X65729283Y-1638204D01*
X65691895Y-1686929D01*
X65688736Y-1694555D01*
X65688735Y-1694557D01*
X65657293Y-1770465D01*
X65631840Y-1831913D01*
X65630763Y-1840097D01*
X65630762Y-1840099D01*
X65619109Y-1928614D01*
X65616500Y-1948434D01*
X65616500Y-2136500D01*
X65596498Y-2204621D01*
X65542842Y-2251114D01*
X65490500Y-2262500D01*
X64330522Y-2262500D01*
X64264406Y-2243760D01*
X64168331Y-2184538D01*
X64168329Y-2184537D01*
X64162101Y-2180698D01*
X63999757Y-2126851D01*
X63992920Y-2126151D01*
X63992918Y-2126150D01*
X63950791Y-2121834D01*
X63898732Y-2116500D01*
X63351268Y-2116500D01*
X63348022Y-2116837D01*
X63348018Y-2116837D01*
X63318730Y-2119876D01*
X63248981Y-2127113D01*
X63240963Y-2129788D01*
X63093676Y-2178927D01*
X63093674Y-2178928D01*
X63086732Y-2181244D01*
X63080509Y-2185095D01*
X63080507Y-2185096D01*
X62978372Y-2248299D01*
X62941287Y-2271248D01*
X62936114Y-2276430D01*
X62930377Y-2280977D01*
X62928945Y-2279170D01*
X62876425Y-2307902D01*
X62805605Y-2302892D01*
X62769147Y-2279501D01*
X62768317Y-2280552D01*
X62751160Y-2267002D01*
X62618120Y-2184996D01*
X62604939Y-2178849D01*
X62456186Y-2129509D01*
X62442810Y-2126642D01*
X62351903Y-2117328D01*
X62346874Y-2117071D01*
X62331876Y-2121475D01*
X62330671Y-2122865D01*
X62329000Y-2130548D01*
X62329000Y-3228000D01*
X62308998Y-3296121D01*
X62255342Y-3342614D01*
X62203000Y-3354000D01*
X61135115Y-3354000D01*
X61119876Y-3358475D01*
X61118671Y-3359865D01*
X61117000Y-3367548D01*
X61117000Y-3395438D01*
X61117337Y-3401953D01*
X61126894Y-3494057D01*
X61129788Y-3507456D01*
X61179384Y-3656115D01*
X61185032Y-3668172D01*
X61195818Y-3738345D01*
X61166953Y-3803209D01*
X61124387Y-3835723D01*
X61120043Y-3837758D01*
X60982193Y-3923063D01*
X60970792Y-3932099D01*
X60856261Y-4046829D01*
X60847249Y-4058240D01*
X60762184Y-4196243D01*
X60756037Y-4209424D01*
X60704862Y-4363710D01*
X60701995Y-4377086D01*
X60692328Y-4471438D01*
X60692000Y-4477855D01*
X60692000Y-4727885D01*
X60696475Y-4743124D01*
X60697865Y-4744329D01*
X60705548Y-4746000D01*
X61828000Y-4746000D01*
X61896121Y-4766002D01*
X61942614Y-4819658D01*
X61954000Y-4872000D01*
X61954000Y-5128000D01*
X61933998Y-5196121D01*
X61880342Y-5242614D01*
X61828000Y-5254000D01*
X60710117Y-5254000D01*
X60660187Y-5268661D01*
X60589190Y-5268661D01*
X60535593Y-5236860D01*
X60272405Y-4973672D01*
X60238379Y-4911360D01*
X60235500Y-4884577D01*
X60235500Y-3015422D01*
X60255502Y-2947301D01*
X60272405Y-2926327D01*
X60370847Y-2827885D01*
X61117000Y-2827885D01*
X61121475Y-2843124D01*
X61122865Y-2844329D01*
X61130548Y-2846000D01*
X61802885Y-2846000D01*
X61818124Y-2841525D01*
X61819329Y-2840135D01*
X61821000Y-2832452D01*
X61821000Y-2135115D01*
X61816525Y-2119876D01*
X61815135Y-2118671D01*
X61807452Y-2117000D01*
X61804562Y-2117000D01*
X61798047Y-2117337D01*
X61705943Y-2126894D01*
X61692544Y-2129788D01*
X61543893Y-2179381D01*
X61530714Y-2185555D01*
X61397827Y-2267788D01*
X61386426Y-2276824D01*
X61276014Y-2387429D01*
X61267002Y-2398840D01*
X61184996Y-2531880D01*
X61178849Y-2545061D01*
X61129509Y-2693814D01*
X61126642Y-2707190D01*
X61117328Y-2798097D01*
X61117000Y-2804514D01*
X61117000Y-2827885D01*
X60370847Y-2827885D01*
X61726328Y-1472405D01*
X61788640Y-1438379D01*
X61815423Y-1435500D01*
X65629320Y-1435500D01*
X65697441Y-1455502D01*
G37*
%TD.AperFunction*%
%TA.AperFunction,Conductor*%
G36*
X103370018Y-510000D02*
G01*
X103384851Y-512310D01*
X103384855Y-512310D01*
X103393724Y-513691D01*
X103410012Y-511561D01*
X103434589Y-510767D01*
X103461441Y-512527D01*
X103651701Y-524998D01*
X103668041Y-527149D01*
X103766241Y-546682D01*
X103907343Y-574749D01*
X103923257Y-579013D01*
X103991746Y-602262D01*
X104154292Y-657439D01*
X104169519Y-663746D01*
X104388342Y-771657D01*
X104402616Y-779898D01*
X104605478Y-915447D01*
X104618553Y-925480D01*
X104801993Y-1086352D01*
X104813648Y-1098007D01*
X104974520Y-1281447D01*
X104984553Y-1294522D01*
X105120102Y-1497384D01*
X105128343Y-1511658D01*
X105236254Y-1730481D01*
X105242561Y-1745708D01*
X105249842Y-1767156D01*
X105318821Y-1970361D01*
X105320986Y-1976740D01*
X105325251Y-1992657D01*
X105342682Y-2080287D01*
X105372851Y-2231959D01*
X105375002Y-2248299D01*
X105382896Y-2368727D01*
X105388291Y-2451029D01*
X105388763Y-2458236D01*
X105387733Y-2481350D01*
X105387690Y-2484854D01*
X105386309Y-2493724D01*
X105387473Y-2502622D01*
X105387473Y-2502628D01*
X105390436Y-2525283D01*
X105391500Y-2541621D01*
X105391500Y-3661494D01*
X105371498Y-3729615D01*
X105317842Y-3776108D01*
X105247568Y-3786212D01*
X105182988Y-3756718D01*
X105158646Y-3728264D01*
X105137626Y-3694624D01*
X105132664Y-3689627D01*
X105014778Y-3570915D01*
X105014774Y-3570912D01*
X105009815Y-3565918D01*
X105002810Y-3561472D01*
X104917693Y-3507456D01*
X104856666Y-3468727D01*
X104810489Y-3452284D01*
X104692425Y-3410243D01*
X104692420Y-3410242D01*
X104685790Y-3407881D01*
X104678802Y-3407048D01*
X104678799Y-3407047D01*
X104521355Y-3388273D01*
X104456082Y-3360345D01*
X104416269Y-3301562D01*
X104411059Y-3277204D01*
X104398220Y-3162740D01*
X104393397Y-3119745D01*
X104389614Y-3108882D01*
X104336064Y-2955106D01*
X104336062Y-2955103D01*
X104333745Y-2948448D01*
X104302513Y-2898466D01*
X104241359Y-2800598D01*
X104237626Y-2794624D01*
X104223941Y-2780843D01*
X104114778Y-2670915D01*
X104114774Y-2670912D01*
X104109815Y-2665918D01*
X104100500Y-2660006D01*
X104024923Y-2612044D01*
X103956666Y-2568727D01*
X103927463Y-2558328D01*
X103792425Y-2510243D01*
X103792420Y-2510242D01*
X103785790Y-2507881D01*
X103778802Y-2507048D01*
X103778799Y-2507047D01*
X103646110Y-2491225D01*
X103605680Y-2486404D01*
X103598677Y-2487140D01*
X103598676Y-2487140D01*
X103432288Y-2504628D01*
X103432286Y-2504629D01*
X103425288Y-2505364D01*
X103253579Y-2563818D01*
X103210208Y-2590500D01*
X103105095Y-2655166D01*
X103105092Y-2655168D01*
X103099088Y-2658862D01*
X103094053Y-2663793D01*
X103094050Y-2663795D01*
X102978710Y-2776745D01*
X102969493Y-2785771D01*
X102871235Y-2938238D01*
X102868826Y-2944858D01*
X102868824Y-2944861D01*
X102821894Y-3073800D01*
X102809197Y-3108685D01*
X102786463Y-3288640D01*
X102804163Y-3469160D01*
X102861418Y-3641273D01*
X102865065Y-3647295D01*
X102865066Y-3647297D01*
X102950026Y-3787583D01*
X102955380Y-3796424D01*
X102960269Y-3801487D01*
X102960270Y-3801488D01*
X102998376Y-3840947D01*
X103081382Y-3926902D01*
X103089324Y-3932099D01*
X103213093Y-4013091D01*
X103233159Y-4026222D01*
X103239763Y-4028678D01*
X103239765Y-4028679D01*
X103396558Y-4086990D01*
X103396560Y-4086990D01*
X103403168Y-4089448D01*
X103410153Y-4090380D01*
X103410157Y-4090381D01*
X103504988Y-4103034D01*
X103581375Y-4113226D01*
X103646251Y-4142062D01*
X103685239Y-4201395D01*
X103690109Y-4225823D01*
X103704163Y-4369160D01*
X103761418Y-4541273D01*
X103765065Y-4547295D01*
X103765066Y-4547297D01*
X103851212Y-4689541D01*
X103855380Y-4696424D01*
X103860270Y-4701487D01*
X103860274Y-4701493D01*
X103968020Y-4813066D01*
X104000953Y-4875962D01*
X103994653Y-4946679D01*
X103975027Y-4980228D01*
X103974526Y-4980842D01*
X103969493Y-4985771D01*
X103945597Y-5022851D01*
X103891885Y-5069274D01*
X103821599Y-5079290D01*
X103757055Y-5049716D01*
X103739725Y-5031299D01*
X103724773Y-5011813D01*
X103724768Y-5011808D01*
X103719742Y-5005258D01*
X103600463Y-4913733D01*
X103461561Y-4856197D01*
X103453377Y-4855120D01*
X103453375Y-4855119D01*
X103354012Y-4842038D01*
X103354011Y-4842038D01*
X103349925Y-4841500D01*
X103250013Y-4841500D01*
X103150076Y-4841501D01*
X103145991Y-4842039D01*
X103145987Y-4842039D01*
X103046626Y-4855119D01*
X103046624Y-4855120D01*
X103039388Y-4856072D01*
X103039385Y-4856072D01*
X103038439Y-4856197D01*
X103038420Y-4856049D01*
X102971792Y-4854463D01*
X102912997Y-4814668D01*
X102885050Y-4749403D01*
X102884221Y-4738404D01*
X102883891Y-4727885D01*
X102883562Y-4717432D01*
X102883500Y-4713475D01*
X102883500Y-4685575D01*
X102882996Y-4681584D01*
X102882063Y-4669742D01*
X102881676Y-4657405D01*
X102880674Y-4625542D01*
X102875251Y-4606876D01*
X102875021Y-4606083D01*
X102871012Y-4586724D01*
X102870846Y-4585414D01*
X102868474Y-4566634D01*
X102865558Y-4559268D01*
X102865556Y-4559262D01*
X102852200Y-4525529D01*
X102848355Y-4514299D01*
X102838230Y-4479448D01*
X102838230Y-4479447D01*
X102836019Y-4471838D01*
X102828753Y-4459552D01*
X102825705Y-4454397D01*
X102817008Y-4436644D01*
X102812472Y-4425189D01*
X102809552Y-4417814D01*
X102783563Y-4382043D01*
X102777047Y-4372123D01*
X102775295Y-4369160D01*
X102754542Y-4334069D01*
X102740221Y-4319748D01*
X102727380Y-4304714D01*
X102720131Y-4294737D01*
X102715472Y-4288324D01*
X102681395Y-4260133D01*
X102672616Y-4252143D01*
X99278221Y-857747D01*
X99270681Y-849461D01*
X99266569Y-842982D01*
X99216917Y-796356D01*
X99214076Y-793602D01*
X99194339Y-773865D01*
X99191142Y-771385D01*
X99182120Y-763680D01*
X99171576Y-753778D01*
X99149890Y-733414D01*
X99149966Y-733333D01*
X99109004Y-680209D01*
X99102932Y-609473D01*
X99136066Y-546682D01*
X99197887Y-511773D01*
X99226421Y-508500D01*
X103350633Y-508500D01*
X103370018Y-510000D01*
G37*
%TD.AperFunction*%
%TA.AperFunction,Conductor*%
G36*
X89133090Y-528502D02*
G01*
X89179583Y-582158D01*
X89189687Y-652432D01*
X89184562Y-674167D01*
X89154863Y-763707D01*
X89151995Y-777086D01*
X89142328Y-871438D01*
X89142000Y-877855D01*
X89142000Y-1127885D01*
X89146475Y-1143124D01*
X89147865Y-1144329D01*
X89155548Y-1146000D01*
X90278000Y-1146000D01*
X90346121Y-1166002D01*
X90392614Y-1219658D01*
X90404000Y-1272000D01*
X90404000Y-1528000D01*
X90383998Y-1596121D01*
X90330342Y-1642614D01*
X90278000Y-1654000D01*
X89160116Y-1654000D01*
X89144877Y-1658475D01*
X89143672Y-1659865D01*
X89142001Y-1667548D01*
X89142001Y-1922095D01*
X89142338Y-1928614D01*
X89152257Y-2024206D01*
X89155149Y-2037600D01*
X89206588Y-2191784D01*
X89212761Y-2204962D01*
X89240135Y-2249197D01*
X89258973Y-2317648D01*
X89237812Y-2385418D01*
X89183371Y-2430989D01*
X89132991Y-2441500D01*
X88451866Y-2441500D01*
X88389684Y-2448255D01*
X88253295Y-2499385D01*
X88136739Y-2586739D01*
X88049385Y-2703295D01*
X87998255Y-2839684D01*
X87991500Y-2901866D01*
X87991500Y-3965500D01*
X87971498Y-4033621D01*
X87917842Y-4080114D01*
X87865500Y-4091500D01*
X87625320Y-4091500D01*
X87557199Y-4071498D01*
X87510706Y-4017842D01*
X87500105Y-3979546D01*
X87494723Y-3931570D01*
X87493397Y-3919745D01*
X87454603Y-3808344D01*
X87436064Y-3755106D01*
X87436062Y-3755103D01*
X87433745Y-3748448D01*
X87400844Y-3695794D01*
X87395683Y-3686211D01*
X87394352Y-3682101D01*
X87390557Y-3675847D01*
X87388063Y-3670400D01*
X87385330Y-3664941D01*
X87382833Y-3658063D01*
X87342805Y-3597010D01*
X87340481Y-3593327D01*
X87305500Y-3535680D01*
X87305499Y-3535679D01*
X87302595Y-3530893D01*
X87295198Y-3522517D01*
X87295225Y-3522493D01*
X87292570Y-3519499D01*
X87289868Y-3516268D01*
X87285856Y-3510148D01*
X87229617Y-3456872D01*
X87227175Y-3454494D01*
X85609270Y-1836589D01*
X85596884Y-1822177D01*
X85588351Y-1810582D01*
X85588346Y-1810577D01*
X85584008Y-1804682D01*
X85578430Y-1799943D01*
X85578427Y-1799940D01*
X85543732Y-1770465D01*
X85536216Y-1763535D01*
X85530521Y-1757840D01*
X85524380Y-1752982D01*
X85508249Y-1740219D01*
X85504845Y-1737428D01*
X85454797Y-1694909D01*
X85454795Y-1694908D01*
X85449215Y-1690167D01*
X85442699Y-1686839D01*
X85437650Y-1683472D01*
X85432521Y-1680305D01*
X85426784Y-1675766D01*
X85360625Y-1644845D01*
X85356725Y-1642939D01*
X85347452Y-1638204D01*
X85291692Y-1609731D01*
X85284577Y-1607990D01*
X85281955Y-1607015D01*
X85269156Y-1600660D01*
X85268946Y-1601091D01*
X85262619Y-1598005D01*
X85256666Y-1594227D01*
X85205518Y-1576014D01*
X85092425Y-1535743D01*
X85092420Y-1535742D01*
X85085790Y-1533381D01*
X85078802Y-1532548D01*
X85078799Y-1532547D01*
X84955698Y-1517868D01*
X84905680Y-1511904D01*
X84898677Y-1512640D01*
X84898676Y-1512640D01*
X84732288Y-1530128D01*
X84732286Y-1530129D01*
X84725288Y-1530864D01*
X84553579Y-1589318D01*
X84519612Y-1610215D01*
X84405095Y-1680666D01*
X84405092Y-1680668D01*
X84399088Y-1684362D01*
X84394053Y-1689293D01*
X84394050Y-1689295D01*
X84294262Y-1787015D01*
X84269493Y-1811271D01*
X84171235Y-1963738D01*
X84168826Y-1970358D01*
X84168824Y-1970361D01*
X84112030Y-2126402D01*
X84109197Y-2134185D01*
X84086463Y-2314140D01*
X84090579Y-2356114D01*
X84077320Y-2425861D01*
X84028458Y-2477368D01*
X83959505Y-2494282D01*
X83948518Y-2493202D01*
X83944390Y-2492192D01*
X83933236Y-2491500D01*
X83933238Y-2491464D01*
X83929245Y-2491225D01*
X83925053Y-2490851D01*
X83917885Y-2489360D01*
X83851675Y-2491151D01*
X83840479Y-2491454D01*
X83837072Y-2491500D01*
X81516371Y-2491500D01*
X81448250Y-2471498D01*
X81427276Y-2454595D01*
X79696276Y-723595D01*
X79662250Y-661283D01*
X79667315Y-590468D01*
X79709862Y-533632D01*
X79776382Y-508821D01*
X79785371Y-508500D01*
X89064969Y-508500D01*
X89133090Y-528502D01*
G37*
%TD.AperFunction*%
%TA.AperFunction,Conductor*%
G36*
X70539107Y-2037740D02*
G01*
X70595943Y-2080287D01*
X70620754Y-2146807D01*
X70620546Y-2167327D01*
X70618087Y-2194086D01*
X70621475Y-2205624D01*
X70622865Y-2206829D01*
X70630548Y-2208500D01*
X71728000Y-2208500D01*
X71796121Y-2228502D01*
X71842614Y-2282158D01*
X71854000Y-2334500D01*
X71854000Y-2590500D01*
X71833998Y-2658621D01*
X71780342Y-2705114D01*
X71728000Y-2716500D01*
X70700747Y-2716500D01*
X70633233Y-2696885D01*
X70628394Y-2693814D01*
X70569166Y-2656227D01*
X70523778Y-2640065D01*
X70404925Y-2597743D01*
X70404920Y-2597742D01*
X70398290Y-2595381D01*
X70391302Y-2594548D01*
X70391299Y-2594547D01*
X70268198Y-2579868D01*
X70218180Y-2573904D01*
X70211177Y-2574640D01*
X70211176Y-2574640D01*
X70044790Y-2592128D01*
X70044789Y-2592128D01*
X70037788Y-2592864D01*
X70031832Y-2594892D01*
X69961300Y-2590004D01*
X69904371Y-2547583D01*
X69879413Y-2481117D01*
X69894351Y-2411710D01*
X69915975Y-2382758D01*
X70028556Y-2270177D01*
X70078820Y-2239406D01*
X70210933Y-2196608D01*
X70210936Y-2196607D01*
X70217899Y-2194351D01*
X70224154Y-2190555D01*
X70224157Y-2190554D01*
X70364314Y-2105504D01*
X70364318Y-2105501D01*
X70369107Y-2102595D01*
X70373306Y-2098886D01*
X70373311Y-2098883D01*
X70376019Y-2096491D01*
X70376023Y-2096488D01*
X70377484Y-2095197D01*
X70405980Y-2066701D01*
X70468292Y-2032675D01*
X70539107Y-2037740D01*
G37*
%TD.AperFunction*%
%TA.AperFunction,Conductor*%
G36*
X69582750Y-528502D02*
G01*
X69629243Y-582158D01*
X69639347Y-652432D01*
X69609853Y-717012D01*
X69603724Y-723595D01*
X69332340Y-994979D01*
X69250266Y-1098716D01*
X69247167Y-1105347D01*
X69247165Y-1105350D01*
X69178477Y-1252318D01*
X69178476Y-1252322D01*
X69175378Y-1258950D01*
X69173888Y-1266114D01*
X69165459Y-1306637D01*
X69131194Y-1370073D01*
X68962152Y-1539115D01*
X68899840Y-1573141D01*
X68829025Y-1568076D01*
X68796353Y-1549982D01*
X68694627Y-1471925D01*
X68694624Y-1471923D01*
X68688071Y-1466895D01*
X68680445Y-1463736D01*
X68680443Y-1463735D01*
X68581774Y-1422865D01*
X68543087Y-1406840D01*
X68534903Y-1405763D01*
X68534901Y-1405762D01*
X68430653Y-1392038D01*
X68430652Y-1392038D01*
X68426566Y-1391500D01*
X68173434Y-1391500D01*
X68169351Y-1392038D01*
X68169344Y-1392038D01*
X68072518Y-1404785D01*
X68002370Y-1393845D01*
X67949271Y-1346717D01*
X67932753Y-1302590D01*
X67932665Y-1299795D01*
X67926987Y-1280251D01*
X67922977Y-1260888D01*
X67921420Y-1248560D01*
X67921420Y-1248558D01*
X67920427Y-1240701D01*
X67917511Y-1233337D01*
X67917510Y-1233332D01*
X67904093Y-1199444D01*
X67900248Y-1188215D01*
X67890080Y-1153219D01*
X67887869Y-1145607D01*
X67877510Y-1128091D01*
X67868813Y-1110341D01*
X67861319Y-1091412D01*
X67835240Y-1055517D01*
X67828722Y-1045595D01*
X67810170Y-1014224D01*
X67810166Y-1014219D01*
X67806134Y-1007401D01*
X67791747Y-993014D01*
X67778906Y-977980D01*
X67771602Y-967927D01*
X67766942Y-961513D01*
X67732750Y-933227D01*
X67723971Y-925238D01*
X67522328Y-723595D01*
X67488302Y-661283D01*
X67493367Y-590468D01*
X67535914Y-533632D01*
X67602434Y-508821D01*
X67611423Y-508500D01*
X69514629Y-508500D01*
X69582750Y-528502D01*
G37*
%TD.AperFunction*%
%TD*%
M02*
